<?xml version="1.0" encoding="UTF-8"?>
<svg width="18px" height="20px" viewBox="0 0 18 20" version="1.1" xmlns="http://www.w3.org/2000/svg" xmlns:xlink="http://www.w3.org/1999/xlink">
    <title>Icon/24/Bell</title>
    <g id="Design-System" stroke="none" stroke-width="1" fill="none" fill-rule="evenodd">
        <g id="Icon" transform="translate(-1131.000000, -502.000000)">
            <g id="Group" transform="translate(1128.000000, 500.000000)">
                <rect id="Rectangle" x="0" y="0" width="24" height="24"></rect>
                <path d="M13.772761,20.108 C13.772761,21.152 12.902761,21.999 11.827761,21.999 C10.753761,21.999 9.88276097,21.152 9.88276097,20.108 L9.88276097,20.108 Z M11.984161,1.9999 C13.300161,1.9999 14.373161,2.9849 14.513161,4.2429 C16.613161,5.1829 18.274161,7.3379 18.274161,10.6399 C18.274161,13.3089 18.851161,15.0909 20.144161,16.4189 C20.582161,16.8689 20.707161,17.5329 20.464161,18.1099 C20.227161,18.6719 19.682161,19.0339 19.074161,19.0339 L19.074161,19.0339 L4.91016097,19.0339 C4.30216097,19.0339 3.75716097,18.6719 3.52116097,18.1099 C3.27916097,17.5329 3.40616097,16.8699 3.84416097,16.4219 C5.13716097,15.0999 5.71416097,13.3159 5.71416097,10.6399 C5.71416097,9.9239 5.79516097,9.2319 5.95616097,8.5839 C6.08916097,8.0459 6.63916097,7.7229 7.16716097,7.8539 C7.70416097,7.9859 8.03116097,8.5279 7.89816097,9.0649 C7.77616097,9.5569 7.71416097,10.0859 7.71416097,10.6399 C7.71416097,13.3679 7.15016097,15.4299 5.94916097,17.0339 L5.94916097,17.0339 L18.043161,17.0339 C16.840161,15.4269 16.274161,13.3639 16.274161,10.6399 C16.274161,7.2439 14.055161,5.6969 11.994161,5.6969 C10.939161,5.6969 9.94616097,6.0809 9.19816097,6.7779 C8.79216097,7.1529 8.16116097,7.1309 7.78416097,6.7279 C7.40816097,6.3229 7.43016097,5.6899 7.83416097,5.3139 C8.31316097,4.8679 8.86616097,4.5279 9.45316097,4.2629 C9.58216097,2.9949 10.661161,1.9999 11.984161,1.9999 Z" id="Combined-Shape" fill="#000000" fill-rule="nonzero"></path>
            </g>
        </g>
    </g>
</svg>