<?xml version="1.0" encoding="UTF-8"?>
<svg width="18px" height="20px" viewBox="0 0 18 20" version="1.1" xmlns="http://www.w3.org/2000/svg" xmlns:xlink="http://www.w3.org/1999/xlink">
    <title>Icon/24/Beverage</title>
    <g id="Design-System" stroke="none" stroke-width="1" fill="none" fill-rule="evenodd">
        <g id="Icon" transform="translate(-251.000000, -710.000000)">
            <g id="Icon/24/Beverage" transform="translate(248.000000, 708.000000)">
                <rect id="Rectangle" x="0" y="0" width="24" height="24"></rect>
                <path d="M14.0336514,8.412 L9.86865143,13.813 L6.19065143,8.412 L14.0336514,8.412 Z M15.6486514,2 C14.0326514,2 12.5016514,2.783 11.5546514,4.094 C11.2306514,4.542 11.3316514,5.167 11.7786514,5.49 C12.2266514,5.813 12.8516514,5.712 13.1756514,5.266 C13.7476514,4.473 14.6726514,4 15.6486514,4 C17.3306514,4 18.6986514,5.368 18.6986514,7.05 C18.6986514,8.731 17.3306514,10.099 15.6486514,10.099 C15.5256514,10.099 15.4096514,10.072 15.2896514,10.058 L16.8596514,8.022 C17.0926514,7.721 17.1336514,7.312 16.9656514,6.971 C16.7976514,6.629 16.4486514,6.412 16.0676514,6.412 L4.30065143,6.412 C3.92965143,6.412 3.58965143,6.617 3.41665143,6.944 C3.24265143,7.272 3.26465143,7.669 3.47365143,7.975 L8.86465143,15.891 L8.86465143,20 L6.23065143,20 C5.67865143,20 5.23065143,20.447 5.23065143,21 C5.23065143,21.553 5.67865143,22 6.23065143,22 L13.4966514,22 C14.0496514,22 14.4966514,21.553 14.4966514,21 C14.4966514,20.447 14.0496514,20 13.4966514,20 L10.8646514,20 L10.8646514,15.798 L13.9436514,11.805 C14.4866514,12 15.0576514,12.1 15.6486514,12.1 C18.4326514,12.1 20.6986514,9.834 20.6986514,7.05 C20.6986514,4.266 18.4326514,2 15.6486514,2 L15.6486514,2 Z" id="Fill-1" fill="#000000" fill-rule="nonzero"></path>
            </g>
        </g>
    </g>
</svg>