<?xml version="1.0" encoding="UTF-8"?>
<svg width="20px" height="20px" viewBox="0 0 20 20" version="1.1" xmlns="http://www.w3.org/2000/svg" xmlns:xlink="http://www.w3.org/1999/xlink">
    <title>Icon/24/Bonus</title>
    <g id="Design-System" stroke="none" stroke-width="1" fill="none" fill-rule="evenodd">
        <g id="Icon" transform="translate(-690.000000, -710.000000)">
            <g id="Icon/24/Bonus" transform="translate(688.000000, 708.000000)">
                <rect id="Rectangle" x="0" y="0" width="24" height="24"></rect>
                <path d="M12.0022,2 C13.0582,2 13.9712,2.589 14.3842,3.536 C14.4682,3.729 14.6372,3.809 14.7302,3.839 C14.9052,3.898 15.0972,3.878 15.2532,3.785 C16.1682,3.253 17.3092,3.314 18.1562,3.949 C18.9802,4.564 19.3402,5.558 19.0982,6.541 C19.0552,6.716 19.1172,6.851 19.1772,6.934 C19.2762,7.072 19.4392,7.159 19.6212,7.174 C20.6842,7.258 21.5722,7.955 21.8862,8.949 C22.1952,9.931 21.8882,10.952 21.0842,11.616 C20.9202,11.752 20.8962,11.915 20.8962,12 C20.8962,12.085 20.9202,12.248 21.0842,12.385 C21.8882,13.048 22.1952,14.069 21.8862,15.051 C21.5722,16.045 20.6842,16.742 19.6212,16.826 C19.4392,16.841 19.2762,16.928 19.1772,17.066 C19.1172,17.149 19.0552,17.284 19.0982,17.458 C19.3402,18.442 18.9802,19.436 18.1562,20.051 C17.3092,20.684 16.1682,20.746 15.2532,20.215 C15.0972,20.122 14.9052,20.104 14.7302,20.161 C14.6372,20.191 14.4682,20.271 14.3842,20.464 C13.9712,21.411 13.0582,22 12.0022,22 C10.9462,22 10.0332,21.411 9.6202,20.464 C9.5362,20.271 9.3672,20.191 9.2732,20.16 C9.1002,20.103 8.9082,20.123 8.7522,20.214 C7.8332,20.749 6.6942,20.685 5.8472,20.05 C5.0242,19.436 4.6642,18.442 4.9062,17.459 C4.9492,17.284 4.8872,17.149 4.8272,17.066 C4.7282,16.928 4.5652,16.841 4.3832,16.826 C3.3202,16.742 2.4322,16.045 2.1182,15.051 C1.8092,14.069 2.1162,13.048 2.9202,12.384 C3.0842,12.248 3.1082,12.085 3.1082,12 C3.1082,11.915 3.0842,11.752 2.9202,11.615 C2.1162,10.952 1.8092,9.931 2.1182,8.949 C2.4322,7.955 3.3202,7.258 4.3832,7.174 C4.5652,7.159 4.7282,7.072 4.8272,6.934 C4.8872,6.851 4.9492,6.716 4.9062,6.542 C4.6792,5.614 4.9972,4.654 5.7362,4.037 C6.1602,3.683 6.7922,3.74 7.1452,4.164 C7.4982,4.588 7.4412,5.219 7.0182,5.572 C6.9082,5.664 6.7892,5.824 6.8492,6.064 C7.0222,6.768 6.8762,7.511 6.4492,8.104 C6.0062,8.719 5.3112,9.106 4.5412,9.168 C4.1652,9.197 4.0522,9.468 4.0252,9.55 C3.9902,9.664 3.9642,9.884 4.1932,10.073 C4.7752,10.555 5.1082,11.257 5.1082,12 C5.1082,12.743 4.7752,13.445 4.1932,13.926 C3.9642,14.116 3.9902,14.336 4.0252,14.45 C4.0522,14.532 4.1652,14.803 4.5412,14.832 C5.3112,14.894 6.0062,15.281 6.4492,15.896 C6.8762,16.489 7.0222,17.232 6.8482,17.937 C6.7822,18.205 6.9422,18.372 7.0442,18.448 C7.1242,18.508 7.4102,18.686 7.7442,18.486 C8.3942,18.109 9.1812,18.025 9.8952,18.26 C10.5972,18.488 11.1642,19.001 11.4542,19.665 C11.5892,19.976 11.9072,20 12.0022,20 C12.0972,20 12.4152,19.976 12.5502,19.665 C12.8402,19.001 13.4072,18.489 14.1082,18.26 C14.8252,18.023 15.6092,18.108 16.2612,18.486 C16.5942,18.683 16.8792,18.507 16.9592,18.448 C17.0622,18.372 17.2222,18.205 17.1562,17.936 C16.9822,17.232 17.1282,16.489 17.5552,15.896 C17.9982,15.281 18.6932,14.894 19.4632,14.832 C19.8392,14.803 19.9522,14.532 19.9792,14.45 C20.0142,14.336 20.0402,14.116 19.8112,13.927 C19.2292,13.445 18.8962,12.743 18.8962,12 C18.8962,11.257 19.2292,10.555 19.8112,10.074 C20.0402,9.884 20.0142,9.664 19.9792,9.55 C19.9522,9.468 19.8392,9.197 19.4632,9.168 C18.6932,9.106 17.9982,8.719 17.5552,8.104 C17.1282,7.511 16.9822,6.768 17.1562,6.063 C17.2222,5.795 17.0622,5.628 16.9592,5.552 C16.8812,5.493 16.5972,5.317 16.2612,5.514 C15.6112,5.892 14.8282,5.977 14.1082,5.74 C13.4072,5.511 12.8402,4.999 12.5502,4.335 C12.4152,4.024 12.0972,4 12.0022,4 C11.9072,4 11.5892,4.024 11.4542,4.335 C11.2022,4.911 10.7452,5.372 10.1652,5.635 C9.6612,5.866 9.0692,5.64 8.8422,5.138 C8.6132,4.635 8.8362,4.042 9.3392,3.814 C9.4302,3.772 9.5532,3.69 9.6212,3.535 C10.0332,2.589 10.9462,2 12.0022,2 Z M14.9509,11.0888 C15.1599,11.0888 15.3299,11.2578 15.3299,11.4678 L15.3299,11.4678 L15.3299,12.7498 C15.3299,12.9588 15.1599,13.1288 14.9509,13.1288 L14.9509,13.1288 L14.8749,13.1288 C14.7079,13.1288 14.5719,12.9928 14.5719,12.8248 C14.4329,13.0428 14.2189,13.1618 13.9459,13.1618 C13.5179,13.1618 13.2259,12.8588 13.2259,12.3828 L13.2259,12.3828 L13.2259,11.4678 C13.2259,11.2578 13.3959,11.0888 13.6039,11.0888 C13.8139,11.0888 13.9829,11.2578 13.9829,11.4678 L13.9829,11.4678 L13.9829,12.1688 C13.9829,12.3668 14.0919,12.4948 14.2569,12.4948 C14.4519,12.4908 14.5719,12.3298 14.5719,12.0978 L14.5719,12.0978 L14.5719,11.4678 C14.5719,11.2578 14.7419,11.0888 14.9509,11.0888 Z M16.5782,11.0549 C16.8012,11.0549 17.0232,11.0999 17.2362,11.1859 C17.3732,11.2419 17.4192,11.4059 17.3512,11.5369 C17.2792,11.6709 17.1152,11.7209 16.9752,11.6649 C16.8082,11.5979 16.6652,11.5659 16.5552,11.5659 C16.4612,11.5659 16.4012,11.5989 16.4012,11.6619 C16.4012,11.8919 17.4672,11.7899 17.4672,12.4869 C17.4672,12.9069 17.1032,13.1619 16.5702,13.1619 C16.2932,13.1619 16.0312,13.1049 15.8052,12.9909 C15.6882,12.9329 15.6522,12.7869 15.7102,12.6699 C15.7802,12.5249 15.9612,12.4769 16.1092,12.5409 C16.2732,12.6119 16.4362,12.6489 16.5812,12.6489 C16.6832,12.6489 16.7502,12.6189 16.7502,12.5549 C16.7502,12.3219 15.7082,12.4349 15.7082,11.7369 C15.7082,11.3099 16.0642,11.0549 16.5782,11.0549 Z M18.0787,12.4544 C18.2887,12.4544 18.4347,12.5964 18.4347,12.8024 C18.4347,13.0124 18.2887,13.1594 18.0787,13.1594 C17.8727,13.1594 17.7257,13.0124 17.7257,12.8024 C17.7257,12.5964 17.8727,12.4544 18.0787,12.4544 Z M9.3098,11.0622 C9.9968,11.0622 10.4428,11.4742 10.4428,12.1082 C10.4428,12.7382 9.9968,13.1552 9.3098,13.1552 C8.6238,13.1552 8.1728,12.7382 8.1728,12.1082 C8.1728,11.4742 8.6238,11.0622 9.3098,11.0622 Z M6.9147,10.5003 C7.5297,10.5003 7.9227,10.7593 7.9227,11.1643 C7.9227,11.4293 7.7507,11.6513 7.4767,11.7303 C7.7987,11.7983 8.0047,12.0593 8.0047,12.3933 C8.0047,12.8433 7.6007,13.1293 6.9707,13.1293 L6.9707,13.1293 L5.8497,13.1293 C5.7257,13.1293 5.6247,13.0283 5.6247,12.9033 L5.6247,12.9033 L5.6247,10.7243 C5.6247,10.6003 5.7257,10.5003 5.8497,10.5003 L5.8497,10.5003 Z M12.1465,11.059 C12.5825,11.059 12.8825,11.362 12.8825,11.835 L12.8825,11.835 L12.8825,12.75 C12.8825,12.959 12.7125,13.129 12.5035,13.129 C12.2945,13.129 12.1245,12.959 12.1245,12.75 L12.1245,12.75 L12.1245,12.053 C12.1245,11.85 12.0085,11.723 11.8325,11.723 C11.6265,11.727 11.4985,11.888 11.4985,12.12 L11.4985,12.12 L11.4985,12.75 C11.4985,12.959 11.3285,13.129 11.1195,13.129 C10.9105,13.129 10.7405,12.959 10.7405,12.75 L10.7405,12.75 L10.7405,11.468 C10.7405,11.258 10.9105,11.089 11.1195,11.089 L11.1195,11.089 L11.1825,11.089 C11.3575,11.089 11.4985,11.229 11.4985,11.403 C11.6405,11.179 11.8615,11.059 12.1465,11.059 Z M9.3098,11.6622 C9.0848,11.6622 8.9388,11.8462 8.9388,12.1162 C8.9388,12.3892 9.0848,12.5702 9.3098,12.5702 C9.5318,12.5702 9.6768,12.3892 9.6768,12.1162 C9.6768,11.8462 9.5318,11.6622 9.3098,11.6622 Z M6.8737,12.0633 L6.4007,12.0633 L6.4007,12.5483 L6.8737,12.5483 C7.0717,12.5483 7.1957,12.4503 7.1957,12.2963 C7.1957,12.1533 7.0717,12.0633 6.8737,12.0633 L6.8737,12.0633 Z M18.0937,10.5074 C18.2927,10.5074 18.4537,10.6694 18.4537,10.8674 L18.4537,10.8674 L18.4537,11.1904 L18.3517,11.9654 C18.3357,12.0944 18.2247,12.1914 18.0947,12.1914 C17.9647,12.1914 17.8557,12.0954 17.8387,11.9664 L17.8387,11.9664 L17.7337,11.1904 L17.7337,10.8674 C17.7337,10.6694 17.8947,10.5074 18.0937,10.5074 Z M6.8737,11.0853 L6.4007,11.0853 L6.4007,11.5313 L6.8737,11.5313 C7.0267,11.5313 7.1247,11.4413 7.1247,11.3023 C7.1247,11.1683 7.0267,11.0853 6.8737,11.0853 L6.8737,11.0853 Z" id="Combined-Shape" fill="#000000" fill-rule="nonzero"></path>
            </g>
        </g>
    </g>
</svg>