<?xml version="1.0" encoding="UTF-8"?>
<svg width="18px" height="18px" viewBox="0 0 18 18" version="1.1" xmlns="http://www.w3.org/2000/svg" xmlns:xlink="http://www.w3.org/1999/xlink">
    <title>Icon/24/Calendar</title>
    <g id="Design-System" stroke="none" stroke-width="1" fill="none" fill-rule="evenodd">
        <g id="Icon" transform="translate(-779.000000, -503.000000)">
            <g id="Group" transform="translate(776.000000, 500.000000)">
                <rect id="Rectangle" x="0" y="0" width="24" height="24"></rect>
                <path d="M16.585,3 C17.138,3 17.585,3.447 17.585,4 L17.585,4 L17.585,4.636 L17.601,4.636 C19.475,4.636 21,6.162 21,8.037 L21,8.037 L21,17.599 C21,19.474 19.475,21 17.601,21 L17.601,21 L6.4,21 C4.525,21 3,19.474 3,17.599 L3,17.599 L3,16.631 C3,16.078 3.447,15.631 4,15.631 C4.553,15.631 5,16.078 5,16.631 L5,16.631 L5,17.599 C5,18.372 5.628,19 6.4,19 L6.4,19 L17.601,19 C18.372,19 19,18.372 19,17.599 L19,17.599 L19,11.736 L5,11.736 L5,13.262 C5,13.815 4.553,14.262 4,14.262 C3.447,14.262 3,13.815 3,13.262 L3,13.262 L3,8.037 C3,6.162 4.525,4.636 6.4,4.636 L6.4,4.636 L6.415,4.636 L6.415,4 C6.415,3.447 6.862,3 7.415,3 C7.968,3 8.415,3.447 8.415,4 L8.415,4 L8.415,4.636 L15.585,4.636 L15.585,4 C15.585,3.447 16.032,3 16.585,3 Z M16.2109,16.1262 C16.6759,16.1262 17.0529,16.5032 17.0529,16.9682 C17.0529,17.4332 16.6759,17.8102 16.2109,17.8102 C15.7459,17.8102 15.3679,17.4332 15.3679,16.9682 C15.3679,16.5032 15.7459,16.1262 16.2109,16.1262 Z M12,16.1262 C12.465,16.1262 12.842,16.5032 12.842,16.9682 C12.842,17.4332 12.465,17.8102 12,17.8102 C11.535,17.8102 11.158,17.4332 11.158,16.9682 C11.158,16.5032 11.535,16.1262 12,16.1262 Z M7.79,16.1262 C8.255,16.1262 8.632,16.5032 8.632,16.9682 C8.632,17.4332 8.255,17.8102 7.79,17.8102 C7.324,17.8102 6.947,17.4332 6.947,16.9682 C6.947,16.5032 7.324,16.1262 7.79,16.1262 Z M16.2109,12.7571 C16.6759,12.7571 17.0529,13.1341 17.0529,13.5991 C17.0529,14.0641 16.6759,14.4411 16.2109,14.4411 C15.7459,14.4411 15.3679,14.0641 15.3679,13.5991 C15.3679,13.1341 15.7459,12.7571 16.2109,12.7571 Z M12,12.7571 C12.465,12.7571 12.842,13.1341 12.842,13.5991 C12.842,14.0641 12.465,14.4411 12,14.4411 C11.535,14.4411 11.158,14.0641 11.158,13.5991 C11.158,13.1341 11.535,12.7571 12,12.7571 Z M7.79,12.7571 C8.255,12.7571 8.632,13.1341 8.632,13.5991 C8.632,14.0641 8.255,14.4411 7.79,14.4411 C7.324,14.4411 6.947,14.0641 6.947,13.5991 C6.947,13.1341 7.324,12.7571 7.79,12.7571 Z M6.437,6.636 L6.4,6.636 C5.628,6.636 5,7.264 5,8.037 L5,8.037 L5,9.736 L19,9.736 L19,8.037 C19,7.264 18.372,6.636 17.601,6.636 L17.601,6.636 L17.563,6.636 C17.506,7.134 17.099,7.526 16.585,7.526 C16.071,7.526 15.664,7.134 15.607,6.636 L15.607,6.636 L8.393,6.636 C8.336,7.134 7.929,7.526 7.415,7.526 C6.901,7.526 6.494,7.134 6.437,6.636 L6.437,6.636 Z" id="Combined-Shape" fill="#000000" fill-rule="nonzero"></path>
            </g>
        </g>
    </g>
</svg>