<?xml version="1.0" encoding="UTF-8"?>
<svg width="20px" height="16px" viewBox="0 0 20 16" version="1.1" xmlns="http://www.w3.org/2000/svg" xmlns:xlink="http://www.w3.org/1999/xlink">
    <title>Icon/24/Cardboard</title>
    <g id="Design-System" stroke="none" stroke-width="1" fill="none" fill-rule="evenodd">
        <g id="Icon" transform="translate(-162.000000, -712.000000)">
            <g id="Icon/24/Cardboard" transform="translate(160.000000, 708.000000)">
                <rect id="Rectangle" x="0" y="0" width="24" height="24"></rect>
                <path d="M21.6338,10.4919395 L19.4738,5.12566801 C19.2698,4.61378992 18.6808,4.36928116 18.1738,4.57105059 C17.6608,4.77480788 17.4108,5.35327983 17.6158,5.86317004 L18.7108,8.58258453 C18.6548,8.57960272 18.6018,8.56668152 18.5448,8.56668152 L5.4538,8.56668152 C5.3978,8.56668152 5.3448,8.57960272 5.2878,8.58258453 L6.3828,5.86317004 C6.5878,5.35327983 6.3378,4.77480788 5.8248,4.57105059 C5.3148,4.36828722 4.7308,4.61378992 4.5258,5.12566801 L2.3628,10.4988971 C2.1378,10.9541207 1.9998,11.4590412 1.9998,11.9997435 C1.9998,12.5483973 2.4468,12.9936816 2.9998,12.9936816 C3.5528,12.9936816 3.9998,12.5483973 3.9998,11.9997435 C3.9998,11.8625801 4.0258,11.7313803 4.0618,11.6051501 C4.0708,11.5872592 4.0838,11.5733441 4.0918,11.5544593 L4.2078,11.2662172 C4.4618,10.8427996 4.9228,10.5535637 5.4538,10.5535637 L18.5448,10.5535637 C19.0738,10.5535637 19.5338,10.8398178 19.7878,11.2602536 L19.9068,11.5544593 C19.9148,11.575332 19.9298,11.5892471 19.9398,11.6081319 C19.9748,11.7343621 19.9998,11.8625801 19.9998,11.9997435 L19.9998,16.0649501 C19.9998,16.8630824 19.3478,17.51113 18.5448,17.51113 L14.7208,17.51113 L12.8948,13.885244 C12.7248,13.5492929 12.3788,13.3365902 11.9998,13.3365902 C11.6208,13.3365902 11.2758,13.5492929 11.1058,13.885244 L9.2788,17.51113 L5.4538,17.51113 C4.6528,17.51113 3.9998,16.8630824 3.9998,16.0649501 L3.9998,14.8463821 C3.9998,14.2967343 3.5528,13.852444 2.9998,13.852444 C2.4468,13.852444 1.9998,14.2967343 1.9998,14.8463821 L1.9998,16.0649501 C1.9998,17.959396 3.5498,19.5 5.4538,19.5 L9.3908,19.5 C10.0818,19.5 10.7048,19.1173339 11.0168,18.5020862 L11.9998,16.5499919 L12.9838,18.5020862 C13.2938,19.1173339 13.9168,19.5 14.6088,19.5 L18.5448,19.5 C20.4498,19.5 21.9998,17.959396 21.9998,16.0649501 L21.9998,11.9997435 C21.9998,11.4570534 21.8608,10.949151 21.6338,10.4919395" id="Fill-1" fill="#000000" fill-rule="nonzero"></path>
            </g>
        </g>
    </g>
</svg>