<?xml version="1.0" encoding="UTF-8"?>
<svg width="24px" height="20px" viewBox="0 0 24 20" version="1.1" xmlns="http://www.w3.org/2000/svg" xmlns:xlink="http://www.w3.org/1999/xlink">
    <title>Icon/24/Cart</title>
    <g id="Design-System" stroke="none" stroke-width="1" fill="none" fill-rule="evenodd">
        <g id="Icon" transform="translate(-1480.000000, -398.000000)">
            <g id="Group" transform="translate(1480.000000, 396.000000)">
                <rect id="Rectangle" x="0" y="0" width="24" height="24"></rect>
                <path d="M10.1009,18.8793 C10.8259,18.8793 11.4119,19.4663 11.4119,20.1913 C11.4119,20.9133 10.8259,21.5013 10.1009,21.5013 C9.3769,21.5013 8.7899,20.9133 8.7899,20.1913 C8.7899,19.4663 9.3769,18.8793 10.1009,18.8793 Z M18.8392,18.8793 C19.5632,18.8793 20.1502,19.4663 20.1502,20.1913 C20.1502,20.9133 19.5632,21.5013 18.8392,21.5013 C18.1142,21.5013 17.5282,20.9133 17.5282,20.1913 C17.5282,19.4663 18.1142,18.8793 18.8392,18.8793 Z M3.944,2.5 C5.25,2.5 6.384,3.431 6.639,4.713 L6.639,4.713 L7.867,10.899 C7.884,10.898 7.899,10.889 7.916,10.889 L7.916,10.889 L10.317,10.889 L10.042,7.872 L9.227,7.872 C8.674,7.872 8.227,7.424 8.227,6.872 C8.227,6.319 8.674,5.872 9.227,5.872 L9.227,5.872 L20.5,5.872 C21.361,5.872 22.155,6.262 22.678,6.944 C23.202,7.624 23.376,8.492 23.157,9.322 L23.157,9.322 L21.578,15.288 C21.158,16.874 19.718,17.983 18.077,17.983 L18.077,17.983 L10.206,17.983 C8.484,17.983 6.991,16.756 6.656,15.066 L6.656,15.066 L4.678,5.103 C4.608,4.754 4.299,4.5 3.944,4.5 L3.944,4.5 L1.8,4.5 C1.247,4.5 0.8,4.053 0.8,3.5 C0.8,2.948 1.247,2.5 1.8,2.5 L1.8,2.5 Z M20.144,12.889 L17.568,12.889 L17.286,15.983 L18.077,15.983 C18.812,15.983 19.456,15.487 19.645,14.776 L19.645,14.776 L20.144,12.889 Z M15.559,12.889 L12.507,12.889 L12.788,15.983 L15.278,15.983 L15.559,12.889 Z M10.498,12.889 L8.261,12.889 L8.617,14.677 C8.767,15.434 9.436,15.983 10.206,15.983 L10.206,15.983 L10.78,15.983 L10.498,12.889 Z M20.5,7.872 L18.024,7.872 L17.749,10.889 L20.673,10.889 L21.223,8.81 C21.283,8.583 21.236,8.348 21.093,8.164 C20.951,7.978 20.735,7.872 20.5,7.872 L20.5,7.872 Z M16.015,7.872 L12.051,7.872 L12.326,10.889 L15.741,10.889 L16.015,7.872 Z" id="Combined-Shape" fill="#000000" fill-rule="nonzero"></path>
            </g>
        </g>
    </g>
</svg>