<?xml version="1.0" encoding="UTF-8"?>
<svg width="20px" height="20px" viewBox="0 0 20 20" version="1.1" xmlns="http://www.w3.org/2000/svg" xmlns:xlink="http://www.w3.org/1999/xlink">
    <title>Icon/24/Categories</title>
    <g id="Design-System" stroke="none" stroke-width="1" fill="none" fill-rule="evenodd">
        <g id="Icon" transform="translate(-602.000000, -710.000000)">
            <g id="Icon/24/Categories" transform="translate(600.000000, 708.000000)">
                <rect id="Rectangle" x="0" y="0" width="24" height="24"></rect>
                <path d="M8.2868,12.9141 C9.8308,12.9141 11.0868,14.1701 11.0868,15.7141 L11.0868,19.2001 C11.0868,20.7441 9.8308,22.0001 8.2868,22.0001 L4.7998,22.0001 C3.2558,22.0001 1.9998,20.7441 1.9998,19.2001 L1.9998,15.7141 C1.9998,14.1701 3.2558,12.9141 4.7998,12.9141 L8.2868,12.9141 Z M19.2002,12.914 C20.7442,12.914 22.0002,14.17 22.0002,15.714 L22.0002,19.2 C22.0002,20.744 20.7442,22 19.2002,22 L15.7142,22 C14.1702,22 12.9142,20.744 12.9142,19.2 L12.9142,15.714 C12.9142,14.17 14.1702,12.914 15.7142,12.914 C16.2662,12.914 16.7472,13.361 16.7472,13.914 C16.7472,14.467 16.3332,14.914 15.7802,14.914 L15.7142,14.914 C15.2722,14.914 14.9142,15.272 14.9142,15.714 L14.9142,19.2 C14.9142,19.642 15.2722,20 15.7142,20 L19.2002,20 C19.6412,20 20.0002,19.642 20.0002,19.2 L20.0002,15.714 C20.0002,15.272 19.6412,14.914 19.2002,14.914 L18.7502,14.914 C18.1972,14.914 17.7502,14.467 17.7502,13.914 C17.7502,13.361 18.1972,12.914 18.7502,12.914 L19.2002,12.914 Z M8.2868,14.9141 L4.7998,14.9141 C4.3588,14.9141 3.9998,15.2721 3.9998,15.7141 L3.9998,19.2001 C3.9998,19.6421 4.3588,20.0001 4.7998,20.0001 L8.2868,20.0001 C8.7288,20.0001 9.0868,19.6421 9.0868,19.2001 L9.0868,15.7141 C9.0868,15.2721 8.7288,14.9141 8.2868,14.9141 Z M8.2868,2 C9.8308,2 11.0868,3.257 11.0868,4.801 L11.0868,8.287 C11.0868,9.831 9.8308,11.087 8.2868,11.087 L4.7998,11.087 C3.2558,11.087 1.9998,9.831 1.9998,8.287 L1.9998,4.801 C1.9998,3.257 3.2558,2 4.7998,2 L8.2868,2 Z M19.1999,2 C20.7439,2 21.9999,3.257 21.9999,4.801 L21.9999,8.287 C21.9999,9.831 20.7439,11.087 19.1999,11.087 L15.7139,11.087 C14.1699,11.087 12.9139,9.831 12.9139,8.287 L12.9139,4.801 C12.9139,3.257 14.1699,2 15.7139,2 L19.1999,2 Z M8.2868,4 L4.7998,4 C4.3588,4 3.9998,4.359 3.9998,4.801 L3.9998,8.287 C3.9998,8.729 4.3588,9.087 4.7998,9.087 L8.2868,9.087 C8.7288,9.087 9.0868,8.729 9.0868,8.287 L9.0868,4.801 C9.0868,4.359 8.7288,4 8.2868,4 Z M19.1999,4 L15.7139,4 C15.2729,4 14.9139,4.359 14.9139,4.801 L14.9139,8.287 C14.9139,8.729 15.2729,9.087 15.7139,9.087 L19.1999,9.087 C19.6419,9.087 19.9999,8.729 19.9999,8.287 L19.9999,4.801 C19.9999,4.359 19.6419,4 19.1999,4 Z" id="Combined-Shape" fill="#000000" fill-rule="nonzero"></path>
            </g>
        </g>
    </g>
</svg>