<?xml version="1.0" encoding="UTF-8"?>
<svg width="16px" height="20px" viewBox="0 0 16 20" version="1.1" xmlns="http://www.w3.org/2000/svg" xmlns:xlink="http://www.w3.org/1999/xlink">
    <title>Icon/24/Change</title>
    <g id="Design-System" stroke="none" stroke-width="1" fill="none" fill-rule="evenodd">
        <g id="Icon" transform="translate(-692.000000, -502.000000)">
            <g id="Group" transform="translate(688.000000, 500.000000)">
                <rect id="Rectangle" x="0" y="0" width="24" height="24"></rect>
                <path d="M17.766,12.2851 C18.319,12.2851 18.766,12.7321 18.766,13.2851 L18.766,13.2851 L18.766,15.9351 C18.766,17.3891 17.583,18.5721 16.129,18.5721 L16.129,18.5721 L8.197,18.5721 L9.784,20.3301 C10.154,20.7401 10.121,21.3721 9.711,21.7421 C9.52,21.9151 9.281,22.0001 9.041,22.0001 C8.769,22.0001 8.496,21.8891 8.299,21.6701 L8.299,21.6701 L5.098,18.1231 C4.754,17.7421 4.754,17.1641 5.098,16.7831 L5.098,16.7831 L8.299,13.2361 C8.669,12.8261 9.302,12.7941 9.711,13.1641 C10.121,13.5341 10.154,14.1661 9.784,14.5761 L9.784,14.5761 L7.982,16.5721 L16.129,16.5721 C16.481,16.5721 16.766,16.2871 16.766,15.9351 L16.766,15.9351 L16.766,13.2851 C16.766,12.7321 17.213,12.2851 17.766,12.2851 Z M14.2418,2.2579 C14.6508,1.8889 15.2838,1.9189 15.6538,2.3299 L15.6538,2.3299 L18.8548,5.8769 C19.1988,6.2579 19.1988,6.8359 18.8548,7.2169 L18.8548,7.2169 L15.6538,10.7639 C15.4568,10.9819 15.1838,11.0939 14.9118,11.0939 C14.6718,11.0939 14.4328,11.0089 14.2418,10.8359 C13.8318,10.4659 13.7988,9.8339 14.1688,9.4239 L14.1688,9.4239 L15.9698,7.4289 L7.8238,7.4289 C7.4718,7.4289 7.1868,7.7139 7.1868,8.0649 L7.1868,8.0649 L7.1868,10.7149 C7.1868,11.2679 6.7398,11.7149 6.1868,11.7149 C5.6338,11.7149 5.1868,11.2679 5.1868,10.7149 L5.1868,10.7149 L5.1868,8.0649 C5.1868,6.6109 6.3698,5.4289 7.8238,5.4289 L7.8238,5.4289 L15.7568,5.4289 L14.1688,3.6699 C13.7988,3.2599 13.8318,2.6279 14.2418,2.2579 Z" id="Combined-Shape" fill="#000000" fill-rule="nonzero"></path>
            </g>
        </g>
    </g>
</svg>