<?xml version="1.0" encoding="UTF-8"?>
<svg width="20px" height="18px" viewBox="0 0 20 18" version="1.1" xmlns="http://www.w3.org/2000/svg" xmlns:xlink="http://www.w3.org/1999/xlink">
    <title>Icon/24/Chat</title>
    <g id="Design-System" stroke="none" stroke-width="1" fill="none" fill-rule="evenodd">
        <g id="Icon" transform="translate(-426.000000, -399.000000)">
            <g id="Group" transform="translate(424.000000, 396.000000)">
                <rect id="Rectangle" x="0" y="0" width="24" height="24"></rect>
                <path d="M18.301,3.5 C20.341,3.5 22,5.16 22,7.2 L22,15.099 C22,17.139 20.341,18.799 18.301,18.799 L7.867,18.799 L6.607,19.863 C6.087,20.301 5.453,20.528 4.808,20.528 C4.408,20.528 4.003,20.441 3.621,20.263 C2.621,19.799 2,18.826 2,17.723 L2,11.7 C2,11.147 2.448,10.7 3,10.7 C3.553,10.7 4,11.147 4,11.7 L4,17.723 C4,18.184 4.324,18.384 4.463,18.449 C4.603,18.514 4.963,18.633 5.317,18.335 L6.855,17.036 C7.036,16.883 7.264,16.799 7.5,16.799 L18.301,16.799 C19.238,16.799 20,16.037 20,15.099 L20,7.2 C20,6.262 19.238,5.5 18.301,5.5 L5.701,5.5 C4.763,5.5 4,6.262 4,7.2 L4,8.099 C4,8.652 3.553,9.099 3,9.099 C2.448,9.099 2,8.652 2,8.099 L2,7.2 C2,5.16 3.661,3.5 5.701,3.5 L18.301,3.5 Z M8.851,10.1501 C9.404,10.1501 9.851,10.5971 9.851,11.1501 C9.851,11.7031 9.404,12.1501 8.851,12.1501 L7.951,12.1501 C7.398,12.1501 6.951,11.7031 6.951,11.1501 C6.951,10.5971 7.398,10.1501 7.951,10.1501 L8.851,10.1501 Z M12.641,10.1501 C13.194,10.1501 13.641,10.5971 13.641,11.1501 C13.641,11.7031 13.194,12.1501 12.641,12.1501 L11.741,12.1501 C11.188,12.1501 10.741,11.7031 10.741,11.1501 C10.741,10.5971 11.188,10.1501 11.741,10.1501 L12.641,10.1501 Z M16.4301,10.1501 C16.9831,10.1501 17.4301,10.5971 17.4301,11.1501 C17.4301,11.7031 16.9831,12.1501 16.4301,12.1501 L15.5301,12.1501 C14.9771,12.1501 14.5301,11.7031 14.5301,11.1501 C14.5301,10.5971 14.9771,10.1501 15.5301,10.1501 L16.4301,10.1501 Z" id="Combined-Shape" fill="#000000" fill-rule="nonzero"></path>
            </g>
        </g>
    </g>
</svg>