<?xml version="1.0" encoding="UTF-8"?>
<svg width="20px" height="20px" viewBox="0 0 20 20" version="1.1" xmlns="http://www.w3.org/2000/svg" xmlns:xlink="http://www.w3.org/1999/xlink">
    <title>Icon/24/CustomerService</title>
    <g id="Design-System" stroke="none" stroke-width="1" fill="none" fill-rule="evenodd">
        <g id="Icon" transform="translate(-1394.000000, -606.000000)">
            <g id="Group" transform="translate(1392.000000, 604.000000)">
                <rect id="Rectangle" x="0" y="0" width="24" height="24"></rect>
                <path d="M5.69844617,7.3606576 L5.90811284,7.36107427 C6.58211284,7.38907427 7.24611284,7.66707427 7.75511284,8.18507427 L7.75511284,8.18507427 L7.75611284,8.18707427 L8.63511284,9.09007427 C9.69711284,10.1840743 9.69811284,11.9390743 8.64511284,13.0350743 L8.64511284,13.0350743 L8.64511284,13.0360743 L8.63761284,13.0444493 L8.63761284,13.0444493 L8.63711284,13.0450743 L8.18411284,13.5260743 C8.15911284,13.5520743 8.13311284,13.5760743 8.10511284,13.5990743 C8.08111284,13.6190743 8.06911284,13.6320743 8.05511284,13.6460743 C8.08111284,13.6880743 8.12011284,13.7440743 8.19211284,13.8230743 L8.19211284,13.8230743 L10.0541128,15.7330743 C10.1081128,15.7840743 10.1501128,15.8170743 10.1841128,15.8410743 C10.1971128,15.8270743 10.2081128,15.8180743 10.2271128,15.7960743 C10.2401128,15.7810743 10.2531128,15.7660743 10.2681128,15.7510743 L10.2681128,15.7510743 L10.7451128,15.2610743 C11.8261128,14.1560743 13.5811128,14.1560743 14.6601128,15.2600743 L14.6601128,15.2600743 L14.6601128,15.2610743 L15.5401128,16.1630743 C16.6031128,17.2600743 16.6031128,19.0220743 15.5411128,20.1180743 L15.5411128,20.1180743 C14.3521128,21.3330743 12.7371128,22.0110743 11.0551128,22.0002061 L11.0551128,22.0002061 C9.37111284,22.0002061 7.76711284,21.3170743 6.58611284,20.1070743 L6.58611284,20.1070743 L6.58511284,20.1060743 L3.83911284,17.3010743 C2.44411284,15.8660743 1.84711284,13.9350743 2.03311284,12.0790743 C2.07911284,11.6210743 2.48811284,11.2880743 2.94611284,11.3340743 C3.40311284,11.3790743 3.73711284,11.7890743 3.69111284,12.2460743 C3.55211284,13.6390743 4.00111284,15.0750743 5.02911284,16.1360743 L5.02911284,16.1360743 L7.77611284,18.9410743 C8.65011284,19.8380743 9.82911284,20.3350743 11.0531128,20.3330743 L11.0531128,20.3330743 C12.2861128,20.3430743 13.4691128,19.8500743 14.3461128,18.9560743 C14.7801128,18.5070743 14.7801128,17.7730743 14.3451128,17.3250743 L14.3451128,17.3250743 L14.3461128,17.3250743 L13.4681128,16.4250743 C13.0431128,15.9900743 12.3641128,15.9900743 11.9381128,16.4240743 L11.9381128,16.4240743 L11.9391128,16.4250743 L11.4621128,16.9140743 C11.1721128,17.2400743 10.7641128,17.5480743 10.2121128,17.5480743 C9.66611284,17.5480743 9.22711284,17.2450743 8.90111284,16.9380743 L8.90111284,16.9380743 L8.87711284,16.9140743 L6.97911284,14.9670743 C6.97311284,14.9600743 6.96711284,14.9530743 6.96011284,14.9460743 C6.65311284,14.6080743 6.35311284,14.1610743 6.35311284,13.6160743 C6.35311284,13.0740743 6.64611284,12.6730743 6.97111284,12.3840743 L6.97111284,12.3840743 L6.97011284,12.3840743 L7.43211284,11.8930743 C7.43511284,11.8910743 7.43711284,11.8880743 7.43911284,11.8840743 C7.87611284,11.4350743 7.87611284,10.7010743 7.43911284,10.2520743 L7.43911284,10.2520743 L7.44011284,10.2510743 L6.56311284,9.35207427 C6.35911284,9.14307427 6.10011284,9.03707427 5.84011284,9.02607427 C5.67711284,9.01907427 5.51311284,9.05107427 5.36111284,9.11907427 C4.94111284,9.30907427 4.44811284,9.12207427 4.25911284,8.70307427 C4.06911284,8.28307427 4.25611284,7.79007427 4.67511284,7.60107427 C5.06611284,7.42407427 5.48911284,7.34407427 5.90811284,7.36107427 Z M9.45367151,2.00003276 L9.55831284,2.00747427 C10.0133128,2.06947427 10.3343128,2.48947427 10.2713128,2.94547427 L10.2713128,2.94547427 L10.1773128,3.63947427 C10.4153128,3.52447427 10.6493128,3.40647427 10.9013128,3.31447427 C15.2183128,1.75047427 19.9283128,4.26447427 21.4883128,8.77147427 C22.5303128,11.7854743 21.9323128,14.9834743 20.1453128,17.2494743 C19.8603128,17.6114743 19.3373128,17.6724743 18.9753128,17.3874743 C18.6143128,17.1024743 18.5513128,16.5794743 18.8373128,16.2174743 C20.2673128,14.4034743 20.7713128,11.7984743 19.9123128,9.31747427 C18.6213128,5.58347427 14.8123128,3.66947427 11.4693128,4.88047427 C11.2813128,4.95047427 11.1053128,5.03947427 10.9273128,5.12447427 L10.9273128,5.12447427 L11.7803128,5.47047427 C12.2063128,5.64347427 12.4113128,6.12947427 12.2383128,6.55547427 C12.0643128,6.98247427 11.5793128,7.18747427 11.1523128,7.01447427 L11.1523128,7.01447427 L8.80031284,6.05947427 C8.44731284,5.91647427 8.23631284,5.55247427 8.28831284,5.17547427 L8.28831284,5.17547427 L8.62131284,2.72247427 C8.68231284,2.26547427 9.10131284,1.94647427 9.55831284,2.00747427 Z M12.5052128,8.48297427 C13.4442128,8.48297427 14.1202128,8.98097427 14.1202128,9.74897427 C14.1202128,10.2749743 13.7412128,10.8219743 13.2272128,11.3609743 L13.2272128,11.3609743 L12.2682128,12.4059743 L13.7742128,12.4059743 C14.0432128,12.4059743 14.2622128,12.6239743 14.2622128,12.8949743 C14.2622128,13.1629743 14.0432128,13.3819743 13.7742128,13.3819743 L13.7742128,13.3819743 L11.2922128,13.3819743 C10.9762128,13.3819743 10.7202128,13.1259743 10.7202128,12.8099743 C10.7202128,12.6659743 10.7742128,12.5269743 10.8722128,12.4219743 L10.8722128,12.4219743 L12.4102128,10.7529743 C12.6732128,10.4689743 12.8622128,10.1439743 12.8622128,9.92197427 C12.8622128,9.64497427 12.6662128,9.47897427 12.3292128,9.47897427 C12.0852128,9.47897427 11.8072128,9.57297427 11.5252128,9.73897427 C11.2612128,9.89497427 10.9022128,9.82997427 10.7642128,9.55797427 C10.6602128,9.35597427 10.7142128,9.10597427 10.9052128,8.98497427 C11.4102128,8.66597427 11.9482128,8.48297427 12.5052128,8.48297427 Z M16.4841128,8.53877427 C16.8701128,8.53877427 17.1211128,8.94277427 16.9501128,9.28777427 L16.9501128,9.28777427 L15.9151128,11.3817743 L16.9151128,11.3817743 L16.9151128,10.9027743 C16.9151128,10.5937743 17.1651128,10.3447743 17.4731128,10.3447743 C17.7801128,10.3447743 18.0291128,10.5937743 18.0291128,10.9027743 L18.0291128,10.9027743 L18.0291128,11.3817743 L18.2051128,11.3817743 C18.4631128,11.3817743 18.6721128,11.5907743 18.6721128,11.8497743 C18.6721128,12.1067743 18.4631128,12.3167743 18.2051128,12.3167743 L18.2051128,12.3167743 L18.0291128,12.3167743 L18.0291128,12.8237743 C18.0291128,13.1327743 17.7801128,13.3817743 17.4731128,13.3817743 C17.1651128,13.3817743 16.9151128,13.1327743 16.9151128,12.8237743 L16.9151128,12.8237743 L16.9151128,12.3167743 L15.3371128,12.3167743 C14.9691128,12.3167743 14.6721128,12.0187743 14.6721128,11.6517743 C14.6721128,11.5467743 14.6951128,11.4437743 14.7431128,11.3517743 L14.7431128,11.3517743 L16.0201128,8.82277427 C16.1091128,8.64877427 16.2881128,8.53877427 16.4841128,8.53877427 Z" id="Combined-Shape" fill="#000000" fill-rule="nonzero"></path>
            </g>
        </g>
    </g>
</svg>