<?xml version="1.0" encoding="UTF-8"?>
<svg width="18px" height="20px" viewBox="0 0 18 20" version="1.1" xmlns="http://www.w3.org/2000/svg" xmlns:xlink="http://www.w3.org/1999/xlink">
    <title>Icon/24/Cutlery</title>
    <g id="Design-System" stroke="none" stroke-width="1" fill="none" fill-rule="evenodd">
        <g id="Icon" transform="translate(-1483.000000, -606.000000)">
            <g id="Group" transform="translate(1480.000000, 604.000000)">
                <rect id="Rectangle" x="0" y="0" width="24" height="24"></rect>
                <path d="M4.7719,2.7311 C5.5649,2.1381 6.5789,1.9061 7.5669,2.1021 C9.0519,2.3941 10.2029,3.6991 10.3639,5.2741 L10.3639,5.2741 L10.7379,8.9181 C10.8499,10.0211 10.5079,11.1401 9.7979,11.9871 C9.2899,12.5951 8.6339,13.0161 7.9059,13.2191 L7.9059,13.2191 L7.9059,21.0001 C7.9059,21.5531 7.4579,22.0001 6.9059,22.0001 C6.3529,22.0001 5.9059,21.5531 5.9059,21.0001 L5.9059,21.0001 L5.9059,13.2161 C5.2339,13.0401 4.6109,12.7001 4.1129,12.1931 C3.3099,11.3751 2.9109,10.2511 3.0169,9.1101 L3.0169,9.1101 L3.3799,5.2131 C3.4719,4.2281 3.9789,3.3241 4.7719,2.7311 Z M19.9724,1.9996 C20.5244,1.9996 20.9724,2.4476 20.9724,2.9996 L20.9724,2.9996 L20.9724,9.1246 C20.9724,9.1556 20.9634,9.1846 20.9624,9.2156 C20.9644,9.2316 20.9724,9.2456 20.9724,9.2606 C20.9724,9.3096 20.9504,9.3506 20.9444,9.3976 C20.8224,11.2806 19.4874,12.8286 17.7054,13.2606 L17.7054,13.2606 L17.7054,20.9996 C17.7054,21.5526 17.2584,21.9996 16.7054,21.9996 C16.1524,21.9996 15.7054,21.5526 15.7054,20.9996 L15.7054,20.9996 L15.7054,13.2606 C13.9234,12.8286 12.5874,11.2806 12.4664,9.3976 C12.4604,9.3506 12.4384,9.3096 12.4384,9.2606 C12.4384,9.2456 12.4464,9.2316 12.4484,9.2156 C12.4474,9.1846 12.4384,9.1556 12.4384,9.1246 L12.4384,9.1246 L12.4384,2.9996 C12.4384,2.4476 12.8864,1.9996 13.4384,1.9996 C13.9914,1.9996 14.4384,2.4476 14.4384,2.9996 L14.4384,2.9996 L14.4384,8.2606 L15.7054,8.2606 L15.7054,2.9996 C15.7054,2.4476 16.1524,1.9996 16.7054,1.9996 C17.2584,1.9996 17.7054,2.4476 17.7054,2.9996 L17.7054,2.9996 L17.7054,8.2606 L18.9724,8.2606 L18.9724,2.9996 C18.9724,2.4476 19.4194,1.9996 19.9724,1.9996 Z M18.6554,10.2606 L14.7554,10.2606 C15.1484,10.9336 15.8714,11.3916 16.7054,11.3916 C17.5394,11.3916 18.2624,10.9336 18.6554,10.2606 L18.6554,10.2606 Z M6.8699,4.0341 C6.5439,4.0341 6.2329,4.1371 5.9689,4.3331 C5.6289,4.5881 5.4119,4.9751 5.3719,5.3981 L5.3719,5.3981 L5.0089,9.2961 C4.9569,9.8491 5.1509,10.3951 5.5399,10.7931 C5.9379,11.1961 6.4709,11.3961 7.0359,11.3521 C7.5069,11.3171 7.9439,11.0871 8.2659,10.7031 C8.6299,10.2671 8.8059,9.6911 8.7469,9.1221 L8.7469,9.1221 L8.3729,5.4781 C8.3009,4.7691 7.8109,4.1891 7.1809,4.0651 C7.0769,4.0451 6.9719,4.0341 6.8699,4.0341 Z" id="Combined-Shape" fill="#000000" fill-rule="nonzero"></path>
            </g>
        </g>
    </g>
</svg>