<?xml version="1.0" encoding="UTF-8"?>
<svg width="20px" height="19px" viewBox="0 0 20 19" version="1.1" xmlns="http://www.w3.org/2000/svg" xmlns:xlink="http://www.w3.org/1999/xlink">
    <title>Icon/24/Data</title>
    <g id="Design-System" stroke="none" stroke-width="1" fill="none" fill-rule="evenodd">
        <g id="Icon" transform="translate(-954.000000, -606.000000)">
            <g id="Icon/24/Data" transform="translate(952.000000, 604.000000)">
                <rect id="Rectangle" x="0" y="0" width="24" height="24"></rect>
                <path d="M19.7936164,11.9599129 L19.9026,11.967059 C20.3796,12.028059 20.7156,12.464059 20.6546,12.940059 C20.2806,15.855059 18.3746,18.539059 15.4286,19.868059 C11.0236,21.856059 5.8466,20.088059 3.9136,15.801059 C3.8596,15.684059 3.8286,15.561059 3.7816,15.442059 L3.7816,15.442059 L3.6366,15.712059 C3.4116,16.135059 2.8846,16.295059 2.4606,16.070059 C2.0376,15.844059 1.8766,15.318059 2.1026,14.893059 L2.1026,14.893059 L3.2776,12.691059 L3.33921111,12.5912303 C3.45254444,12.4329201 3.61726667,12.3163924 3.8056,12.263059 C4.0326,12.197059 4.2766,12.229059 4.4796,12.347059 L4.4796,12.347059 L6.7836,13.681059 C7.1996,13.920059 7.3406,14.453059 7.1006,14.868059 C6.8596,15.284059 6.3276,15.426059 5.9126,15.185059 L5.9126,15.185059 L5.4326,14.907059 C5.4576,14.966059 5.4716,15.028059 5.4986,15.086059 C7.0046,18.425059 11.1086,19.909059 14.7146,18.282059 C17.1106,17.201059 18.6326,15.031059 18.9296,12.719059 C18.9906,12.242059 19.4266,11.906059 19.9026,11.967059 Z M14.4543,10.003159 C14.5643,10.003159 14.6503,10.100159 14.6373,10.209159 L14.6373,10.209159 L14.5793,10.684159 C14.5683,10.775159 14.4903,10.846159 14.3963,10.846159 L14.3963,10.846159 L13.8343,10.846159 L13.5953,12.900159 C13.5843,12.993159 13.5053,13.064159 13.4123,13.064159 L13.4123,13.064159 L12.9033,13.064159 C12.7943,13.064159 12.7083,12.968159 12.7213,12.857159 L12.7213,12.857159 L12.9543,10.846159 L12.4393,10.846159 C12.3293,10.846159 12.2433,10.749159 12.2573,10.640159 L12.2573,10.640159 L12.3143,10.165159 C12.3253,10.072159 12.4033,10.003159 12.4973,10.003159 L12.4973,10.003159 Z M8.3564,10.003559 C9.2034,10.003559 9.6854,10.600559 9.5774,11.530559 C9.4684,12.461559 8.8324,13.063559 7.9644,13.063559 L7.9644,13.063559 L7.1524,13.063559 C6.9874,13.063559 6.8584,12.920559 6.8784,12.755559 L6.8784,12.755559 L7.1734,10.247559 C7.1894,10.107559 7.3064,10.003559 7.4474,10.003559 L7.4474,10.003559 Z M11.4894,10.002959 C11.5764,10.002959 11.6504,10.062959 11.6704,10.146959 L11.6704,10.146959 L12.2764,12.838959 C12.3034,12.953959 12.2154,13.063959 12.0974,13.063959 L12.0974,13.063959 L11.5454,13.063959 C11.4554,13.063959 11.3794,12.999959 11.3634,12.910959 L11.3634,12.910959 L11.3134,12.630959 L10.3884,12.630959 L10.2534,12.950959 C10.2244,13.019959 10.1584,13.063959 10.0844,13.063959 L10.0844,13.063959 L9.5894,13.063959 C9.4544,13.063959 9.3654,12.922959 9.4234,12.799959 L9.4234,12.799959 L10.7014,10.107959 C10.7314,10.042959 10.7964,10.002959 10.8674,10.002959 L10.8674,10.002959 Z M16.1357,10.003359 C16.2227,10.003359 16.2967,10.062359 16.3157,10.146359 L16.3157,10.146359 L16.9227,12.839359 C16.9497,12.954359 16.8617,13.063359 16.7437,13.063359 L16.7437,13.063359 L16.1917,13.063359 C16.1017,13.063359 16.0257,13.000359 16.0097,12.911359 L16.0097,12.911359 L15.9597,12.631359 L15.0347,12.631359 L14.8997,12.951359 C14.8717,13.019359 14.8047,13.063359 14.7307,13.063359 L14.7307,13.063359 L14.2357,13.063359 C14.1007,13.063359 14.0117,12.923359 14.0697,12.800359 L14.0697,12.800359 L15.3477,10.107359 C15.3777,10.043359 15.4427,10.003359 15.5137,10.003359 L15.5137,10.003359 Z M8.2404,10.833559 L7.9824,10.833559 L7.8194,12.234559 L8.1164,12.234559 C8.4114,12.234559 8.6294,11.967559 8.6794,11.540559 C8.7304,11.107559 8.5564,10.833559 8.2404,10.833559 L8.2404,10.833559 Z M15.6877,11.076359 L15.3497,11.885359 L15.8297,11.885359 L15.6877,11.076359 Z M11.0414,11.075959 L10.7034,11.884959 L11.1824,11.884959 L11.0414,11.075959 Z M8.2502,3.07375903 C12.6562,1.08575903 17.8332,2.85375903 19.7672,7.13975903 C19.8772,7.38475903 19.9562,7.63675903 20.0402,7.88775903 L20.0402,7.88775903 L20.4482,7.37275903 C20.7462,6.99575903 21.2932,6.93075903 21.6692,7.22975903 C22.0462,7.52675903 22.1102,8.07375903 21.8132,8.45075903 L21.8132,8.45075903 L20.2682,10.404759 C20.0202,10.717759 19.5882,10.822759 19.2242,10.655759 L19.2242,10.655759 L16.8562,9.57075903 C16.4192,9.37175903 16.2272,8.85575903 16.4272,8.41875903 C16.6262,7.98275903 17.1432,7.79075903 17.5792,7.99075903 L17.5792,7.99075903 L18.3622,8.34875903 C18.3042,8.18375903 18.2542,8.01775903 18.1822,7.85575903 C16.6762,4.51675903 12.5702,3.03375903 8.9652,4.65875903 C6.5682,5.74075903 5.0472,7.91075903 4.7502,10.222759 C4.6892,10.699759 4.2532,11.036759 3.7762,10.974759 C3.3012,10.914759 2.9642,10.477759 3.0242,10.000759 C3.3982,7.08675903 5.3052,4.40275903 8.2502,3.07375903 Z" id="Combined-Shape" fill="#000000" fill-rule="nonzero"></path>
            </g>
        </g>
    </g>
</svg>