<?xml version="1.0" encoding="UTF-8"?>
<svg width="20px" height="16px" viewBox="0 0 20 16" version="1.1" xmlns="http://www.w3.org/2000/svg" xmlns:xlink="http://www.w3.org/1999/xlink">
    <title>Icon/24/Discount</title>
    <g id="Design-System" stroke="none" stroke-width="1" fill="none" fill-rule="evenodd">
        <g id="Icon" transform="translate(-1042.000000, -400.000000)">
            <g id="Group" transform="translate(1040.000000, 396.000000)">
                <rect id="Rectangle" x="0" y="0" width="24" height="24"></rect>
                <path d="M6.521,4 C7.074,4 7.521,4.448 7.521,5 C7.521,5.553 7.074,6 6.521,6 L6.521,6 L5.454,6 C4.652,6 4,6.653 4,7.455 L4,7.455 L4,9.455 C4,9.606 4.083,9.742 4.218,9.811 C5.037,10.219 5.543,11.041 5.543,11.955 C5.543,12.869 5.037,13.692 4.22,14.1 C4.083,14.168 4,14.305 4,14.455 L4,14.455 L4,16.455 C4,17.258 4.652,17.91 5.454,17.91 L5.454,17.91 L18.544,17.91 C19.347,17.91 20,17.258 20,16.455 L20,16.455 L20,14.916 C20,14.69 19.885,14.483 19.694,14.364 L19.694,14.364 L19.501,14.244 C18.715,13.752 18.273,12.906 18.318,11.983 C18.362,11.059 18.882,10.26 19.709,9.846 C19.885,9.758 20,9.572 20,9.377 L20,9.377 L20,7.455 C20,6.653 19.347,6 18.544,6 L18.544,6 L9.651,6 C9.098,6 8.651,5.553 8.651,5 C8.651,4.448 9.098,4 9.651,4 L9.651,4 L18.544,4 C20.45,4 22,5.551 22,7.455 L22,7.455 L22,9.377 C22,10.338 21.464,11.203 20.604,11.635 C20.357,11.758 20.32,11.987 20.315,12.078 C20.311,12.17 20.326,12.401 20.561,12.547 L20.561,12.547 L20.752,12.666 C21.534,13.155 22,13.994 22,14.916 L22,14.916 L22,16.455 C22,18.36 20.45,19.91 18.544,19.91 L18.544,19.91 L5.454,19.91 C3.549,19.91 2,18.36 2,16.455 L2,16.455 L2,14.455 C2,13.541 2.507,12.719 3.326,12.311 C3.515,12.215 3.543,12.047 3.543,11.955 C3.543,11.864 3.515,11.696 3.324,11.6 C2.507,11.192 2,10.369 2,9.455 L2,9.455 L2,7.455 C2,5.551 3.549,4 5.454,4 L5.454,4 Z M13.661,12.7733 C14.101,12.7733 14.502,12.9353 14.849,13.2583 C15.21,13.5863 15.393,13.9903 15.393,14.4553 C15.393,14.9163 15.22,15.3183 14.88,15.6483 C14.542,15.9753 14.129,16.1413 13.656,16.1413 C13.182,16.1413 12.77,15.9753 12.431,15.6483 C12.09,15.3163 11.918,14.9163 11.918,14.4553 C11.918,13.9943 12.09,13.5923 12.431,13.2623 C12.766,12.9373 13.174,12.7733 13.645,12.7733 L13.645,12.7733 Z M13.656,13.9783 C13.513,13.9783 13.409,14.0233 13.305,14.1213 C13.222,14.2033 13.18,14.3223 13.18,14.4823 C13.18,14.5743 13.222,14.6623 13.309,14.7483 C13.503,14.9303 13.796,14.9303 13.983,14.7463 C14.077,14.6563 14.121,14.5553 14.121,14.4283 C14.121,14.3123 14.076,14.2133 13.979,14.1153 C13.886,14.0213 13.785,13.9783 13.656,13.9783 Z M14.553624,9.373284 L14.6626,9.3811 C14.8476,9.4121 15.0066,9.5141 15.1126,9.6681 C15.3216,9.9711 15.2556,10.3791 14.9596,10.6001 L14.9596,10.6001 L10.5436,13.8991 C10.4246,13.9881 10.2836,14.0351 10.1376,14.0351 C10.1006,14.0351 10.0626,14.0311 10.0246,14.0261 C9.8406,13.9961 9.6816,13.8951 9.5746,13.7401 C9.3656,13.4381 9.4336,13.0291 9.7276,12.8091 L9.7276,12.8091 L14.1446,9.5081 C14.2946,9.3971 14.4816,9.3541 14.6626,9.3811 Z M11.0379,7.4511 C11.4769,7.4511 11.8769,7.6131 12.2249,7.9341 C12.5869,8.2641 12.7699,8.6661 12.7699,9.1311 C12.7699,9.5921 12.5969,9.9941 12.2559,10.3241 C11.9199,10.6531 11.5069,10.8191 11.0319,10.8191 C10.5579,10.8191 10.1469,10.6531 9.8079,10.3241 C9.4669,9.9961 9.2949,9.5941 9.2949,9.1311 C9.2949,8.6701 9.4669,8.2681 9.8079,7.9381 C10.1419,7.6151 10.5489,7.4511 11.0209,7.4511 L11.0209,7.4511 Z M11.0319,8.6541 C10.8919,8.6541 10.7839,8.7011 10.6819,8.7991 C10.5989,8.8811 10.5569,9.0001 10.5569,9.1581 C10.5569,9.2191 10.5709,9.3111 10.6859,9.4261 C10.8809,9.6101 11.1719,9.6081 11.3599,9.4241 C11.4539,9.3321 11.4979,9.2311 11.4979,9.1041 C11.4979,8.9901 11.4529,8.8911 11.3559,8.7931 C11.2629,8.6991 11.1599,8.6541 11.0319,8.6541 Z" id="Combined-Shape" fill="#000000" fill-rule="nonzero"></path>
            </g>
        </g>
    </g>
</svg>