<?xml version="1.0" encoding="UTF-8"?>
<svg width="18px" height="20px" viewBox="0 0 18 20" version="1.1" xmlns="http://www.w3.org/2000/svg" xmlns:xlink="http://www.w3.org/1999/xlink">
    <title>Icon/24/EditProfile</title>
    <g id="Design-System" stroke="none" stroke-width="1" fill="none" fill-rule="evenodd">
        <g id="Icon" transform="translate(-603.000000, -606.000000)">
            <g id="Icon/24/EditProfile" transform="translate(600.000000, 604.000000)">
                <rect id="Rectangle" x="0" y="0" width="24" height="24"></rect>
                <path d="M16.906,7.1642 C17.307,6.7852 17.94,6.8012 18.319,7.2032 C18.699,7.6032 18.682,8.2362 18.281,8.6162 L18.281,8.6162 L12.682,13.9212 L12.45,15.0382 L13.699,14.7982 L19.313,9.4782 C19.713,9.0982 20.347,9.1152 20.726,9.5162 C21.106,9.9162 21.089,10.5492 20.688,10.9292 L20.688,10.9292 L16.622,14.7832 C16.802,15.3472 16.92,15.9272 16.92,16.5262 L16.92,16.5262 L16.92,19.0512 C16.92,20.4662 15.77,21.6172 14.355,21.6172 L14.355,21.6172 L13.367,21.6172 C12.814,21.6172 12.367,21.1692 12.367,20.6172 C12.367,20.0642 12.814,19.6172 13.367,19.6172 L13.367,19.6172 L14.355,19.6172 C14.666,19.6172 14.92,19.3632 14.92,19.0512 L14.92,19.0512 L14.92,16.5262 C14.92,16.4862 14.91,16.4472 14.909,16.4062 L14.909,16.4062 L14.862,16.4512 C14.724,16.5822 14.55,16.6712 14.363,16.7072 L14.363,16.7072 L11.353,17.2862 C11.29,17.2972 11.227,17.3032 11.164,17.3032 C10.899,17.3032 10.642,17.1982 10.452,17.0042 C10.217,16.7662 10.118,16.4262 10.186,16.0992 L10.186,16.0992 L10.788,13.2062 C10.83,13.0072 10.931,12.8252 11.08,12.6852 L11.08,12.6852 L11.12,12.6472 C11.016,12.6402 10.916,12.6172 10.812,12.6172 L10.812,12.6172 L9.109,12.6172 C6.843,12.6172 5,14.3702 5,16.5262 L5,16.5262 L5,19.0512 C5,19.3632 5.254,19.6172 5.566,19.6172 L5.566,19.6172 L9.96,19.6172 C10.513,19.6172 10.96,20.0642 10.96,20.6172 C10.96,21.1692 10.513,21.6172 9.96,21.6172 L9.96,21.6172 L5.566,21.6172 C4.151,21.6172 3,20.4662 3,19.0512 L3,19.0512 L3,16.5262 C3,13.2672 5.741,10.6172 9.109,10.6172 L9.109,10.6172 L10.812,10.6172 C11.527,10.6172 12.221,10.7422 12.885,10.9742 L12.885,10.9742 Z M9.7279,2.4 C11.6529,2.4 13.2179,3.965 13.2179,5.89 C13.2179,7.815 11.6529,9.38 9.7279,9.38 C7.8029,9.38 6.2379,7.815 6.2379,5.89 C6.2379,3.965 7.8029,2.4 9.7279,2.4 Z M9.7279,4.4 C8.9069,4.4 8.2379,5.069 8.2379,5.89 C8.2379,6.712 8.9069,7.38 9.7279,7.38 C10.5489,7.38 11.2179,6.712 11.2179,5.89 C11.2179,5.069 10.5489,4.4 9.7279,4.4 Z" id="Combined-Shape" fill="#000000" fill-rule="nonzero"></path>
            </g>
        </g>
    </g>
</svg>