<?xml version="1.0" encoding="UTF-8"?>
<svg width="20px" height="14px" viewBox="0 0 20 14" version="1.1" xmlns="http://www.w3.org/2000/svg" xmlns:xlink="http://www.w3.org/1999/xlink">
    <title>Icon/24/Eye-On</title>
    <defs>
        <path d="M12.000175,13.5006346 C11.1731647,13.5006346 10.5001563,12.8276633 10.5001563,12.0006985 C10.5001563,11.1737338 11.1731647,10.5007625 12.000175,10.5007625 C12.8271853,10.5007625 13.5001938,11.1737338 13.5001938,12.0006985 C13.5001938,12.8276633 12.8271853,13.5006346 12.000175,13.5006346 M12.000175,8.50084782 C10.0701509,8.50084782 8.50013125,10.0707809 8.50013125,12.0006985 C8.50013125,13.9306162 10.0701509,15.5005493 12.000175,15.5005493 C13.9301991,15.5005493 15.5002188,13.9306162 15.5002188,12.0006985 C15.5002188,10.0707809 13.9301991,8.50084782 12.000175,8.50084782 M12.2198777,16.9980854 C7.91382392,17.0980811 5.10478881,13.4152382 4.17277716,11.9962987 C5.19878998,10.3913672 7.78282229,7.10550733 11.7808723,7.00351169 C16.0699259,6.89451633 18.8949612,10.5863589 19.8269728,12.0052983 C18.80196,13.6102299 16.2169277,16.8960897 12.2198777,16.9980854 M21.8679983,11.5033198 C21.2299904,10.3913672 17.7059463,4.81760492 11.7298716,5.00459694 C6.20180252,5.14459097 2.98676233,10.0143833 2.13275166,11.5033198 C1.95574945,11.8113066 1.95574945,12.1902905 2.13275166,12.4982773 C2.76175952,13.5952305 6.16180202,19 12.0248753,19 C12.1068763,19 12.1888774,18.999 12.2708784,18.9970001 C17.7979475,18.8560061 21.0139877,13.9872138 21.8679983,12.4982773 C22.0440006,12.1902905 22.0440006,11.8113066 21.8679983,11.5033198" id="path-1"></path>
    </defs>
    <g id="Design-System" stroke="none" stroke-width="1" fill="none" fill-rule="evenodd">
        <g id="Icon" transform="translate(-954.000000, -713.000000)">
            <g id="Icon/24/Movie" transform="translate(952.000000, 708.000000)">
                <rect id="Rectangle" x="0" y="0" width="24" height="24"></rect>
                <mask id="mask-2" fill="white">
                    <use xlink:href="#path-1"></use>
                </mask>
                <use id="Eye" fill="#000000" fill-rule="nonzero" xlink:href="#path-1"></use>
            </g>
        </g>
    </g>
</svg>