<?xml version="1.0" encoding="UTF-8"?>
<svg width="20px" height="18px" viewBox="0 0 20 18" version="1.1" xmlns="http://www.w3.org/2000/svg" xmlns:xlink="http://www.w3.org/1999/xlink">
    <title>Icon/24/Eye-Off</title>
    <g id="Design-System" stroke="none" stroke-width="1" fill="none" fill-rule="evenodd">
        <g id="Icon" transform="translate(-1042.000000, -711.000000)">
            <g id="Icon/24/Movie" transform="translate(1040.000000, 708.000000)">
                <rect id="Rectangle" x="0" y="0" width="24" height="24"></rect>
                <path d="M21.8679983,12.4977638 C21.4529932,13.2207839 20.476981,14.7388261 18.9549619,16.1268646 L17.5439443,14.7158254 C18.6039575,13.764799 19.3709671,12.71877 19.8269728,12.0047501 C18.8949612,10.5857107 16.0719259,6.89360816 11.7808723,7.00261118 C11.1808648,7.0176116 10.6178577,7.11161421 10.081851,7.25361816 L8.50183127,5.67357427 C9.47384342,5.2895636 10.5448568,5.03355649 11.7298716,5.00355565 C17.7049463,4.81655046 21.2299904,10.3907053 21.8679983,11.5027362 C22.0440006,11.8107447 22.0440006,12.1897553 21.8679983,12.4977638 L21.8679983,12.4977638 Z M13.917899,16.7468819 L15.4979187,18.3269257 C14.5269066,18.7109364 13.4548932,18.9669435 12.2708784,18.9969444 C12.1888774,18.9989444 12.1068763,18.9999444 12.0248753,18.9999444 C6.16180202,18.9999444 2.76175952,13.5947943 2.13275166,12.4977638 C1.95574945,12.1897553 1.95574945,11.8107447 2.13275166,11.5027362 C2.54675683,10.7797161 3.52276903,9.26167394 5.04478806,7.87263535 L6.4558057,9.28467457 C5.39579245,10.235701 4.62978287,11.28173 4.17277716,11.9957499 C5.10478881,13.4147893 7.91482394,17.0978916 12.2198777,16.9978888 C12.8198852,16.9828884 13.3828923,16.8888858 13.917899,16.7468819 L13.917899,16.7468819 Z M11.999875,13.4997917 C11.1728647,13.4997917 10.4998562,12.827773 10.4998562,11.99975 C10.4998562,11.9747493 10.5108564,11.9517487 10.5118564,11.9257479 L12.0748759,13.4887914 C12.0488756,13.4897914 12.0258753,13.4997917 11.999875,13.4997917 L11.999875,13.4997917 Z M4.70678383,3.29250813 C4.31677896,2.90249729 3.68377105,2.90249729 3.29276616,3.29250813 C2.90276128,3.68351899 2.90276128,4.31653657 3.29276616,4.7065474 L8.92383655,10.3377038 C8.64683309,10.8457179 8.49983125,11.4107336 8.49983125,11.99975 C8.49983125,13.9298036 10.0708509,15.4998472 11.999875,15.4998472 C12.5898824,15.4998472 13.1548894,15.3528431 13.6628958,15.0768355 L19.2929662,20.7069919 C19.4889686,20.9029973 19.7439718,21 19.999975,21 C20.2559782,21 20.5119814,20.9029973 20.7069838,20.7069919 C21.0979887,20.316981 21.0979887,19.6839634 20.7069838,19.2929526 L4.70678383,3.29250813 Z" id="🎨-Icon-Сolor" fill="#000000" fill-rule="nonzero"></path>
            </g>
        </g>
    </g>
</svg>