<?xml version="1.0" encoding="UTF-8"?>
<svg width="18px" height="18px" viewBox="0 0 18 18" version="1.1" xmlns="http://www.w3.org/2000/svg" xmlns:xlink="http://www.w3.org/1999/xlink">
    <title>Icon/24/Ezone</title>
    <g id="Design-System" stroke="none" stroke-width="1" fill="none" fill-rule="evenodd">
        <g id="Icon" transform="translate(-1131.000000, -607.000000)">
            <g id="Group" transform="translate(1128.000000, 604.000000)">
                <rect id="Rectangle" x="0" y="0" width="24" height="24"></rect>
                <path d="M11.523,3 C12.9693,3 14.1456,4.1763 14.1456,5.6217 C14.1456,7.068 12.9693,8.2443 11.523,8.2443 L7.9212,8.2443 L7.9212,9.0552 L11.523,9.0552 C12.9693,9.0552 14.1456,10.2306 14.1456,11.6769 C14.1456,13.1223 12.9693,14.2995 11.523,14.2995 L7.9212,14.2995 L7.9212,15.7557 L11.523,15.7557 C12.9693,15.7557 14.1456,16.932 14.1456,18.3783 C14.1456,19.8237 12.9693,21 11.523,21 L6.2139,21 C4.4418,21 3,19.5573 3,17.7861 L3,6.2139 C3,4.4427 4.4418,3 6.2139,3 L11.523,3 Z M18.07473,15.15 C19.68753,15.15 20.99973,16.4622 20.99973,18.075 C20.99973,19.6878 19.68753,21 18.07473,21 C16.46193,21 15.14973,19.6878 15.14973,18.075 C15.14973,16.4622 16.46193,15.15 18.07473,15.15 Z M11.523,4.8 L6.2139,4.8 C5.4345,4.8 4.8,5.4345 4.8,6.2139 L4.8,17.7861 C4.8,18.5655 5.4345,19.2 6.2139,19.2 L11.523,19.2 C11.9766,19.2 12.3447,18.8319 12.3447,18.3783 C12.3447,17.9247 11.9766,17.5557 11.523,17.5557 L7.0212,17.5557 C6.5244,17.5557 6.1212,17.1534 6.1212,16.6557 L6.1212,13.3995 C6.1212,12.9018 6.5244,12.4995 7.0212,12.4995 L11.523,12.4995 C11.9766,12.4995 12.3447,12.1305 12.3447,11.6769 C12.3447,11.2233 11.9766,10.8552 11.523,10.8552 L7.0212,10.8552 C6.5244,10.8552 6.1212,10.452 6.1212,9.9552 L6.1212,7.3443 C6.1212,6.8466 6.5244,6.4443 7.0212,6.4443 L11.523,6.4443 C11.9766,6.4443 12.3447,6.0753 12.3447,5.6217 C12.3447,5.1681 11.9766,4.8 11.523,4.8 Z M18.07473,16.95 C17.45463,16.95 16.94973,17.4549 16.94973,18.075 C16.94973,18.6951 17.45463,19.2 18.07473,19.2 C18.69483,19.2 19.19973,18.6951 19.19973,18.075 C19.19973,17.4549 18.69483,16.95 18.07473,16.95 Z M18.07473,3.00009 C19.68753,3.00009 20.99973,4.31229 20.99973,5.92509 L20.99973,11.84439 C20.99973,13.45719 19.68753,14.76939 18.07473,14.76939 C16.46193,14.76939 15.14973,13.45719 15.14973,11.84439 L15.14973,11.11269 C15.14973,10.61499 15.55203,10.21269 16.04973,10.21269 C16.54743,10.21269 16.94973,10.61499 16.94973,11.11269 L16.94973,11.84439 C16.94973,12.46449 17.45463,12.96939 18.07473,12.96939 C18.69483,12.96939 19.19973,12.46449 19.19973,11.84439 L19.19973,5.92509 C19.19973,5.30409 18.69483,4.80009 18.07473,4.80009 C17.45463,4.80009 16.94973,5.30409 16.94973,5.92509 L16.94973,7.70619 C16.94973,8.20389 16.54743,8.60619 16.04973,8.60619 C15.55203,8.60619 15.14973,8.20389 15.14973,7.70619 L15.14973,5.92509 C15.14973,4.31229 16.46193,3.00009 18.07473,3.00009 Z" id="Combined-Shape" fill="#000000" fill-rule="nonzero"></path>
            </g>
        </g>
    </g>
</svg>