<?xml version="1.0" encoding="UTF-8"?>
<svg width="20px" height="18px" viewBox="0 0 20 18" version="1.1" xmlns="http://www.w3.org/2000/svg" xmlns:xlink="http://www.w3.org/1999/xlink">
    <title>Icon/24/Favorite</title>
    <g id="Design-System" stroke="none" stroke-width="1" fill="none" fill-rule="evenodd">
        <g id="Icon" transform="translate(-866.000000, -607.000000)">
            <g id="Icon/24/Favorite" transform="translate(864.000000, 604.000000)">
                <rect id="Rectangle" x="0" y="0" width="24" height="24"></rect>
                <path d="M12,20.5 C11.308,20.5 10.616,20.2641879 10.052,19.7925636 L9.233,19.1076321 C7.348,17.5440313 5.721,16.1966732 4.555,14.8277886 C3.152,13.1829746 2.5,11.6017613 2.5,9.84833659 C2.5,8.13209393 3.112,6.54109589 4.226,5.36888454 C5.366,4.16438356 6.932,3.5 8.633,3.5 C9.865,3.5 10.998,3.86203523 12,4.57827789 C13.001,3.8630137 14.134,3.5 15.367,3.5 C16.493,3.5 17.585,3.79843444 18.523,4.36203523 C18.994,4.64579256 19.142,5.24755382 18.853,5.70841487 C18.562,6.16927593 17.945,6.30919765 17.477,6.03033268 C16.167,5.2407045 14.379,5.25342466 13.091,6.22309198 C12.953,6.32681018 12.822,6.43933464 12.695,6.55968689 C12.309,6.92661448 11.691,6.92661448 11.305,6.55968689 C11.178,6.43933464 11.046,6.3258317 10.909,6.2221135 C9.312,5.02348337 7.008,5.31017613 5.691,6.69960861 C4.923,7.51076321 4.5,8.62720157 4.5,9.84833659 C4.5,11.1174168 5.005,12.3013699 6.09,13.574364 C7.146,14.8131115 8.711,16.1105675 10.523,17.6125245 L11.352,18.3052838 C11.727,18.6183953 12.272,18.6193738 12.651,18.3043053 L13.466,17.6213307 C15.289,16.1105675 16.854,14.8131115 17.91,13.574364 C18.995,12.3013699 19.5,11.1174168 19.5,9.84833659 C19.5,9.31311155 19.419,8.79549902 19.26,8.31017613 C19.091,7.7964775 19.38,7.2446184 19.906,7.07925636 C20.434,6.9148728 20.994,7.19667319 21.164,7.71232877 C21.387,8.39138943 21.5,9.10958904 21.5,9.84833659 C21.5,11.6017613 20.848,13.1829746 19.445,14.8277886 C18.279,16.1966732 16.652,17.5440313 14.77,19.1056751 L13.95,19.7915851 C13.385,20.2641879 12.691,20.5 12,20.5" id="Fill-1" fill="#000000" fill-rule="nonzero"></path>
            </g>
        </g>
    </g>
</svg>