<?xml version="1.0" encoding="UTF-8"?>
<svg width="20px" height="18px" viewBox="0 0 20 18" version="1.1" xmlns="http://www.w3.org/2000/svg" xmlns:xlink="http://www.w3.org/1999/xlink">
    <title>Icon/24/Feedback</title>
    <g id="Design-System" stroke="none" stroke-width="1" fill="none" fill-rule="evenodd">
        <g id="Icon" transform="translate(-514.000000, -607.000000)">
            <g id="Icon/24/Feedback" transform="translate(512.000000, 604.000000)">
                <rect id="Rectangle" x="0" y="0" width="24" height="24"></rect>
                <path d="M18.3,3.478 C20.34,3.478 22,5.138 22,7.178 L22,15.078 C22,17.118 20.34,18.778 18.3,18.778 L7.866,18.778 L6.606,19.841 C6.086,20.279 5.453,20.506 4.808,20.506 C4.408,20.506 4.003,20.419 3.621,20.241 C2.621,19.777 2,18.804 2,17.701 L2,11.678 C2,11.125 2.448,10.678 3,10.678 C3.553,10.678 4,11.125 4,11.678 L4,17.701 C4,18.162 4.324,18.362 4.463,18.427 C4.601,18.491 4.965,18.609 5.316,18.313 L6.856,17.014 C7.037,16.861 7.264,16.778 7.5,16.778 L18.3,16.778 C19.238,16.778 20,16.016 20,15.078 L20,7.178 C20,6.24 19.238,5.478 18.3,5.478 L5.701,5.478 C4.763,5.478 4,6.24 4,7.178 L4,8.078 C4,8.631 3.553,9.078 3,9.078 C2.448,9.078 2,8.631 2,8.078 L2,7.178 C2,5.138 3.661,3.478 5.701,3.478 L18.3,3.478 Z M15.7176,10.6404 C16.2696,10.6404 16.7176,11.0884 16.7176,11.6404 C16.7176,13.7864 14.9726,15.5314 12.8266,15.5314 L11.1746,15.5314 C9.0286,15.5314 7.2836,13.7864 7.2836,11.6404 C7.2836,11.0884 7.7306,10.6404 8.2836,10.6404 C8.8366,10.6404 9.2836,11.0884 9.2836,11.6404 C9.2836,12.6834 10.1316,13.5314 11.1746,13.5314 L12.8266,13.5314 C13.8696,13.5314 14.7176,12.6834 14.7176,11.6404 C14.7176,11.0884 15.1646,10.6404 15.7176,10.6404 Z M15.7172,6.9241 C16.2702,6.9241 16.7172,7.3711 16.7172,7.9241 L16.7172,8.7501 C16.7172,9.3031 16.2702,9.7501 15.7172,9.7501 C15.1642,9.7501 14.7172,9.3031 14.7172,8.7501 L14.7172,7.9241 C14.7172,7.3711 15.1642,6.9241 15.7172,6.9241 Z M8.2836,6.9241 C8.8366,6.9241 9.2836,7.3711 9.2836,7.9241 L9.2836,8.7501 C9.2836,9.3031 8.8366,9.7501 8.2836,9.7501 C7.7306,9.7501 7.2836,9.3031 7.2836,8.7501 L7.2836,7.9241 C7.2836,7.3711 7.7306,6.9241 8.2836,6.9241 Z" id="Combined-Shape" fill="#000000" fill-rule="nonzero"></path>
            </g>
        </g>
    </g>
</svg>