<?xml version="1.0" encoding="UTF-8"?>
<svg width="14px" height="20px" viewBox="0 0 14 20" version="1.1" xmlns="http://www.w3.org/2000/svg" xmlns:xlink="http://www.w3.org/1999/xlink">
    <title>Icon/24/Flash</title>
    <g id="Design-System" stroke="none" stroke-width="1" fill="none" fill-rule="evenodd">
        <g id="Icon" transform="translate(-781.000000, -606.000000)">
            <g id="Icon/24/Flash" transform="translate(776.000000, 604.000000)">
                <rect id="Rectangle" x="0" y="0" width="24" height="24"></rect>
                <path d="M9.68929985,21.9993 C9.58029985,21.9993 9.46929985,21.9813 9.36129985,21.9433 C8.93529985,21.7963 8.66129985,21.3813 8.69129985,20.9323 L9.05129985,15.6133 C9.08929985,15.0623 9.56829985,14.6703 10.1172999,14.6833 C10.6682999,14.7213 11.0852999,15.1973 11.0472999,15.7483 L10.9342999,17.4093 L15.3532999,10.9533 L12.6892999,10.9533 C12.4052999,10.9533 12.1332999,10.8323 11.9442999,10.6203 C11.7532999,10.4073 11.6642999,10.1243 11.6952999,9.8423 L12.0092999,7.0423 L8.60329985,12.2263 L10.4692999,12.2263 C11.0222999,12.2263 11.4692999,12.6733 11.4692999,13.2263 C11.4692999,13.7783 11.0222999,14.2263 10.4692999,14.2263 L6.75029985,14.2263 C6.38229985,14.2263 6.04429985,14.0233 5.87029985,13.7003 C5.69529985,13.3773 5.71229985,12.9833 5.91429985,12.6773 L12.6332999,2.4503 C12.8872999,2.0623 13.3752999,1.9033 13.8092999,2.0593 C14.2442999,2.2163 14.5142999,2.6503 14.4632999,3.1103 L13.8072999,8.9533 L17.2502999,8.9533 C17.6212999,8.9533 17.9612999,9.1583 18.1342999,9.4863 C18.3072999,9.8143 18.2852999,10.2123 18.0752999,10.5183 L10.5142999,21.5633 C10.3242999,21.8423 10.0122999,21.9993 9.68929985,21.9993" id="Fill-1" fill="#000000" fill-rule="nonzero"></path>
            </g>
        </g>
    </g>
</svg>