<?xml version="1.0" encoding="UTF-8"?>
<svg width="20px" height="20px" viewBox="0 0 20 20" version="1.1" xmlns="http://www.w3.org/2000/svg" xmlns:xlink="http://www.w3.org/1999/xlink">
    <title>Icon/24/Game</title>
    <g id="Design-System" stroke="none" stroke-width="1" fill="none" fill-rule="evenodd">
        <g id="Icon" transform="translate(-514.000000, -710.000000)">
            <g id="Icon/24/Game" transform="translate(512.000000, 708.000000)">
                <rect id="Rectangle" x="0" y="0" width="24" height="24"></rect>
                <path d="M10.942283,2.6414 C11.141283,2.1254 11.717283,1.8684 12.235283,2.0674 C12.750283,2.2654 13.008283,2.8444 12.809283,3.3594 L12.809283,3.3594 L12.521283,4.1084 C12.436283,4.3264 12.493283,4.5684 12.663283,4.7264 L12.663283,4.7264 L13.320283,5.3344 C14.138283,6.0914 14.359283,7.2624 13.910283,8.2614 L13.910283,8.2614 L15.916283,8.2614 C18.115283,8.2614 20.065283,9.7364 20.658283,11.8494 L20.658283,11.8494 L20.813283,12.4004 C21.295283,14.1174 21.552283,15.8914 21.575283,17.6714 L21.575283,17.6714 L21.596283,19.3054 C21.606283,20.0204 21.335283,20.6954 20.831283,21.2064 C20.326283,21.7184 19.651283,22.0004 18.931283,22.0004 C18.027283,22.0004 17.193283,21.5494 16.699283,20.7934 L16.699283,20.7934 L14.610283,17.5984 L9.937283,17.5984 L7.957283,20.6264 C7.396283,21.4854 6.445283,22.0004 5.415283,22.0004 C4.596283,22.0004 3.827283,21.6794 3.252283,21.0964 C2.679283,20.5154 2.369283,19.7454 2.380283,18.9304 L2.380283,18.9304 L2.396283,17.6714 C2.420283,15.8914 2.677283,14.1174 3.158283,12.4004 L3.158283,12.4004 L3.313283,11.8494 C3.906283,9.7364 5.856283,8.2614 8.055283,8.2614 L8.055283,8.2614 L8.610283,8.2614 C9.163283,8.2614 9.610283,8.7084 9.610283,9.2614 C9.610283,9.8144 9.163283,10.2614 8.610283,10.2614 L8.610283,10.2614 L8.055283,10.2614 C6.749283,10.2614 5.591283,11.1364 5.239283,12.3904 L5.239283,12.3904 L5.084283,12.9424 C4.649283,14.4904 4.418283,16.0914 4.396283,17.6984 L4.396283,17.6984 L4.380283,18.9564 C4.376283,19.2334 4.481283,19.4944 4.676283,19.6924 C5.119283,20.1424 5.940283,20.0594 6.282283,19.5324 L6.282283,19.5324 L8.327283,16.4054 C8.657283,15.9004 9.216283,15.5984 9.821283,15.5984 L9.821283,15.5984 L14.725283,15.5984 C15.330283,15.5984 15.888283,15.9004 16.220283,16.4044 L16.220283,16.4044 L18.373283,19.6994 C18.593283,20.0374 19.121283,20.0904 19.407283,19.8024 C19.532283,19.6754 19.599283,19.5084 19.596283,19.3314 L19.596283,19.3314 L19.575283,17.6974 C19.554283,16.0914 19.322283,14.4904 18.887283,12.9424 L18.887283,12.9424 L18.732283,12.3904 C18.381283,11.1364 17.222283,10.2614 15.916283,10.2614 L15.916283,10.2614 L11.489283,10.2614 C10.936283,10.2614 10.489283,9.8144 10.489283,9.2614 C10.489283,8.7084 10.936283,8.2614 11.489283,8.2614 L11.489283,8.2614 L11.631283,8.2614 L12.067283,7.4974 C12.199283,7.2674 12.155283,6.9814 11.962283,6.8024 L11.962283,6.8024 L11.304283,6.1934 C10.528283,5.4764 10.273283,4.3744 10.655283,3.3884 L10.655283,3.3884 Z M15.324383,13.7569 C15.719383,13.7569 16.041383,14.0779 16.041383,14.4739 C16.041383,14.8709 15.719383,15.1919 15.324383,15.1919 L15.324383,15.1919 C14.923383,15.1919 14.601383,14.8709 14.601383,14.4739 C14.601383,14.0779 14.923383,13.7569 15.319383,13.7569 L15.319383,13.7569 Z M7.967883,11.1156 C8.381883,11.1156 8.717883,11.4516 8.717883,11.8656 L8.717883,11.8656 L8.717883,12.2896 L9.145883,12.2896 C9.559883,12.2896 9.895883,12.6256 9.895883,13.0396 C9.895883,13.4536 9.559883,13.7896 9.145883,13.7896 L9.145883,13.7896 L8.717883,13.7896 L8.717883,14.2136 C8.717883,14.6276 8.381883,14.9636 7.967883,14.9636 C7.553883,14.9636 7.217883,14.6276 7.217883,14.2136 L7.217883,14.2136 L7.217883,13.7896 L6.790883,13.7896 C6.376883,13.7896 6.040883,13.4536 6.040883,13.0396 C6.040883,12.6256 6.376883,12.2896 6.790883,12.2896 L6.790883,12.2896 L7.217883,12.2896 L7.217883,11.8656 C7.217883,11.4516 7.553883,11.1156 7.967883,11.1156 Z M13.884883,12.3214 C14.280883,12.3214 14.601883,12.6434 14.601883,13.0384 C14.601883,13.4354 14.280883,13.7564 13.884883,13.7564 L13.884883,13.7564 C13.484883,13.7564 13.162883,13.4354 13.162883,13.0384 C13.162883,12.6434 13.484883,12.3214 13.880883,12.3214 L13.880883,12.3214 Z M16.761883,12.3214 C17.157883,12.3214 17.479883,12.6434 17.479883,13.0384 C17.479883,13.4354 17.157883,13.7564 16.761883,13.7564 L16.761883,13.7564 C16.361883,13.7564 16.040883,13.4354 16.040883,13.0384 C16.040883,12.6434 16.361883,12.3214 16.757883,12.3214 L16.757883,12.3214 Z M15.324283,10.8872 C15.720283,10.8872 16.041283,11.2082 16.041283,11.6052 C16.041283,12.0002 15.720283,12.3222 15.324283,12.3222 L15.324283,12.3222 C14.924283,12.3222 14.601283,12.0002 14.601283,11.6052 C14.601283,11.2082 14.924283,10.8872 15.319283,10.8872 L15.319283,10.8872 Z" id="Combined-Shape" fill="#000000" fill-rule="nonzero"></path>
            </g>
        </g>
    </g>
</svg>