<?xml version="1.0" encoding="UTF-8"?>
<svg width="20px" height="20px" viewBox="0 0 20 20" version="1.1" xmlns="http://www.w3.org/2000/svg" xmlns:xlink="http://www.w3.org/1999/xlink">
    <title>Icon/24/Gift</title>
    <g id="Design-System" stroke="none" stroke-width="1" fill="none" fill-rule="evenodd">
        <g id="Icon" transform="translate(-514.000000, -398.000000)">
            <g id="Group" transform="translate(512.000000, 396.000000)">
                <rect id="Rectangle" x="0" y="0" width="24" height="24"></rect>
                <path d="M18.528,7.7272 C19.982,7.7272 21.165,8.9092 21.165,10.3632 L21.165,10.3632 L21.165,12.8172 C21.165,13.9182 20.487,14.8592 19.528,15.2542 L19.528,15.2542 L19.528,18.5452 C19.528,20.4502 17.978,22.0002 16.074,22.0002 L16.074,22.0002 L7.891,22.0002 C5.987,22.0002 4.437,20.4502 4.437,18.5452 L4.437,18.5452 L4.437,15.2542 C3.478,14.8592 2.8,13.9182 2.8,12.8172 L2.8,12.8172 L2.8,10.3632 C2.8,8.9092 3.983,7.7272 5.437,7.7272 L5.437,7.7272 Z M18.528,9.7272 L5.437,9.7272 C5.086,9.7272 4.8,10.0122 4.8,10.3632 L4.8,10.3632 L4.8,12.8172 C4.8,13.1692 5.086,13.4542 5.437,13.4542 L5.437,13.4542 L8.749,13.4542 C9.282,13.4832 9.71,13.9152 9.71,14.4542 C9.71,14.9932 9.282,15.4252 8.749,15.4462 L8.749,15.4462 L8.749,15.4542 L6.437,15.4542 L6.437,18.5452 C6.437,19.3482 7.09,20.0002 7.891,20.0002 L7.891,20.0002 L16.074,20.0002 C16.876,20.0002 17.528,19.3482 17.528,18.5452 L17.528,18.5452 L17.528,15.4542 L12.165,15.4542 C11.612,15.4542 11.165,15.0072 11.165,14.4542 C11.165,13.9012 11.612,13.4542 12.165,13.4542 L12.165,13.4542 L18.528,13.4542 C18.88,13.4542 19.165,13.1692 19.165,12.8172 L19.165,12.8172 L19.165,10.3632 C19.165,10.0122 18.88,9.7272 18.528,9.7272 L18.528,9.7272 Z M14.6516,2 C16.7466,2 18.4506,3.688 18.4506,5.761 C18.4506,6.314 18.0036,6.761 17.4506,6.761 C16.8986,6.761 16.4506,6.314 16.4506,5.761 C16.4506,4.79 15.6446,4 14.6516,4 C13.6596,4 12.8536,4.79 12.8536,5.761 C12.8536,6.314 12.4056,6.761 11.8536,6.761 C11.3006,6.761 10.8536,6.314 10.8536,5.761 C10.8536,4.79 10.0466,4 9.0546,4 C8.0626,4 7.2556,4.79 7.2556,5.761 C7.2556,6.314 6.8086,6.761 6.2556,6.761 C5.7026,6.761 5.2556,6.314 5.2556,5.761 C5.2556,3.688 6.9596,2 9.0546,2 C10.1656,2 11.1576,2.484 11.8536,3.24 C12.5486,2.484 13.5406,2 14.6516,2 Z" id="Combined-Shape" fill="#000000" fill-rule="nonzero"></path>
            </g>
        </g>
    </g>
</svg>