<?xml version="1.0" encoding="UTF-8"?>
<svg width="18px" height="18px" viewBox="0 0 18 18" version="1.1" xmlns="http://www.w3.org/2000/svg" xmlns:xlink="http://www.w3.org/1999/xlink">
    <title>Icon/24/Globe</title>
    <g id="Design-System" stroke="none" stroke-width="1" fill="none" fill-rule="evenodd">
        <g id="Icon" transform="translate(-251.000000, -399.000000)">
            <g id="Group" transform="translate(248.000000, 396.000000)">
                <rect id="Rectangle" x="0" y="0" width="24" height="24"></rect>
                <path d="M13.637,18.799 C14.653,17.446 15.353,15.886 15.684,14.213 C15.764,13.81 15.812,13.404 15.847,13 L18.92,13 C18.511,15.843 16.391,18.136 13.637,18.799 M5.08,13 L7.896,13 C7.931,13.404 7.979,13.81 8.059,14.213 C8.384,15.853 9.062,17.383 10.044,18.716 C7.447,17.958 5.474,15.733 5.08,13 M11.871,6.193 C12.979,7.585 13.644,9.254 13.831,11 L9.911,11 C10.099,9.254 10.765,7.585 11.871,6.193 M11.871,17.788 C10.952,16.63 10.31,15.284 10.021,13.824 C9.966,13.55 9.939,13.275 9.909,13 L13.833,13 C13.804,13.275 13.777,13.55 13.722,13.824 C13.434,15.284 12.79,16.63 11.871,17.788 M18.92,11 L15.841,11 C15.657,8.905 14.9,6.897 13.624,5.198 C16.384,5.858 18.51,8.153 18.92,11 M12,3 C10.255,3 8.563,3.5 7.107,4.445 C6.643,4.746 6.511,5.365 6.812,5.828 C7.112,6.293 7.733,6.424 8.195,6.123 C8.777,5.746 9.408,5.464 10.066,5.275 C8.825,6.956 8.084,8.936 7.903,11 L5.072,11 C5.213,10.01 5.564,9.064 6.109,8.219 C6.408,7.754 6.274,7.135 5.81,6.836 C5.345,6.538 4.727,6.672 4.427,7.135 C3.493,8.584 3,10.267 3,12 C3,16.963 7.037,21 12,21 C16.963,21 21,16.963 21,12 C21,7.037 16.963,3 12,3" id="Fill-1" fill="#000000" fill-rule="nonzero"></path>
            </g>
        </g>
    </g>
</svg>