<?xml version="1.0" encoding="UTF-8"?>
<svg width="18px" height="18px" viewBox="0 0 18 18" version="1.1" xmlns="http://www.w3.org/2000/svg" xmlns:xlink="http://www.w3.org/1999/xlink">
    <title>Icon/24/History</title>
    <g id="Design-System" stroke="none" stroke-width="1" fill="none" fill-rule="evenodd">
        <g id="Icon" transform="translate(-427.000000, -607.000000)">
            <g id="Icon/24/History" transform="translate(424.000000, 604.000000)">
                <rect id="Rectangle" x="0" y="0" width="24" height="24"></rect>
                <path d="M14.703804,15.6714905 C14.501804,15.6714905 14.298804,15.6104905 14.121804,15.4844905 L11.474804,13.5834905 C11.212804,13.3964905 11.057804,13.0934905 11.057804,12.7714905 L11.057804,9.73149054 C11.057804,9.17849054 11.504804,8.73149054 12.057804,8.73149054 C12.609804,8.73149054 13.057804,9.17849054 13.057804,9.73149054 L13.057804,12.2584905 L15.287804,13.8594905 C15.736804,14.1814905 15.839804,14.8064905 15.516804,15.2544905 C15.321804,15.5264905 15.015804,15.6714905 14.703804,15.6714905 M10.288804,20.2984905 C10.194804,20.2984905 10.099804,20.2854905 10.004804,20.2574905 C8.14480395,19.7054905 6.51280395,18.5204905 5.40380395,16.9194905 C5.08980395,16.4654905 5.20280395,15.8424905 5.65680395,15.5274905 C6.11080395,15.2124905 6.73280395,15.3264905 7.04880395,15.7804905 C7.91080395,17.0254905 9.12980395,17.9104905 10.572804,18.3394905 C11.102804,18.4964905 11.404804,19.0534905 11.247804,19.5824905 C11.118804,20.0174905 10.720804,20.2984905 10.288804,20.2984905 M12.958804,20.5934905 C12.436804,20.5934905 11.998804,20.1904905 11.961804,19.6614905 C11.924804,19.1104905 12.339804,18.6334905 12.891804,18.5954905 C14.067804,18.5144905 15.206804,18.1114905 16.182804,17.4304905 C19.154804,15.3534905 19.890804,11.2314905 17.822804,8.24249054 C16.820804,6.79449054 15.316804,5.82549054 13.590804,5.51549054 C11.862804,5.20649054 10.127804,5.58849054 8.68980395,6.59149054 C8.19280395,6.94049054 7.75180395,7.34749054 7.37480395,7.80449054 L8.48080395,7.42049054 C9.00080395,7.23949054 9.57180395,7.51649054 9.75380395,8.03849054 C9.93380395,8.56049054 9.65780395,9.12949054 9.13580395,9.31149054 L5.78080395,10.4734905 C5.53880395,10.6234905 5.23580395,10.6694905 4.94380395,10.5724905 C4.82180395,10.5324905 4.71380395,10.4724905 4.62080395,10.3964905 C4.46780395,10.2764905 4.35080395,10.1154905 4.28780395,9.93049054 L3.05480395,6.33849054 C2.87480395,5.81649054 3.15280395,5.24649054 3.67480395,5.06749054 C4.20080395,4.88949054 4.76580395,5.16649054 4.94480395,5.68849054 L5.42080395,7.07149054 C5.99180395,6.25349054 6.70680395,5.53749054 7.54580395,4.95149054 C9.42180395,3.64249054 11.693804,3.14249054 13.943804,3.54649054 C16.198804,3.95149054 18.160804,5.21549054 19.467804,7.10449054 C22.160804,10.9944905 21.200804,16.3624905 17.327804,19.0694905 C16.053804,19.9594905 14.566804,20.4844905 13.027804,20.5914905 C13.004804,20.5924905 12.981804,20.5934905 12.958804,20.5934905" id="Fill-1" fill="#000000" fill-rule="nonzero"></path>
            </g>
        </g>
    </g>
</svg>