<?xml version="1.0" encoding="UTF-8"?>
<svg width="20px" height="21px" viewBox="0 0 20 21" version="1.1" xmlns="http://www.w3.org/2000/svg" xmlns:xlink="http://www.w3.org/1999/xlink">
    <title>Icon/24/Home</title>
    <g id="Design-System" stroke="none" stroke-width="1" fill="none" fill-rule="evenodd">
        <g id="Icon" transform="translate(-1394.000000, -398.000000)">
            <g id="Group" transform="translate(1392.000000, 396.000000)">
                <rect id="Rectangle" x="0" y="0" width="24" height="24"></rect>
                <path d="M18.4478566,11.131575 C19.0008566,11.131575 19.4478566,11.578575 19.4478566,12.131575 L19.4478566,18.585575 C19.4478566,20.471575 17.9138566,22.005575 16.0278566,22.005575 L7.96085665,22.005575 C6.07385665,22.005575 4.53985665,20.471575 4.53985665,18.585575 L4.53985665,12.131575 C4.53985665,11.578575 4.98685665,11.131575 5.53985665,11.131575 C6.09185665,11.131575 6.53985665,11.578575 6.53985665,12.131575 L6.53985665,18.585575 C6.53985665,19.368575 7.17685665,20.005575 7.96085665,20.005575 L16.0278566,20.005575 C16.8108566,20.005575 17.4478566,19.368575 17.4478566,18.585575 L17.4478566,12.131575 C17.4478566,11.578575 17.8948566,11.131575 18.4478566,11.131575 Z M11.9936566,11.836675 C12.6626566,11.836675 13.2036566,12.377675 13.2036566,13.046675 C13.2036566,13.714675 12.6626566,14.256675 11.9936566,14.256675 C11.3256566,14.256675 10.7836566,13.714675 10.7836566,13.046675 C10.7836566,12.377675 11.3256566,11.836675 11.9936566,11.836675 Z M14.2947566,2.89637504 L21.5407566,9.48237504 C21.9487566,9.85437504 21.9787566,10.486375 21.6077566,10.895375 C21.4107566,11.112375 21.1387566,11.222375 20.8677566,11.222375 C20.6277566,11.222375 20.3867566,11.136375 20.1947566,10.962375 L12.9487566,4.37537504 C12.4027566,3.87837504 11.5827566,3.88137504 11.0387566,4.37437504 L3.79275665,10.962375 C3.38575665,11.333375 2.75175665,11.304375 2.37975665,10.895375 C2.00875665,10.486375 2.03875665,9.85437504 2.44675665,9.48237504 L9.69275665,2.89537504 C11.0057566,1.70137504 12.9837566,1.70137504 14.2947566,2.89637504 Z" id="Combined-Shape" fill="#000000" fill-rule="nonzero"></path>
            </g>
        </g>
    </g>
</svg>