<?xml version="1.0" encoding="UTF-8"?>
<svg width="16px" height="20px" viewBox="0 0 16 20" version="1.1" xmlns="http://www.w3.org/2000/svg" xmlns:xlink="http://www.w3.org/1999/xlink">
    <title>Icon/24/Keypad</title>
    <g id="Design-System" stroke="none" stroke-width="1" fill="none" fill-rule="evenodd">
        <g id="Icon" transform="translate(-692.000000, -606.000000)">
            <g id="Icon/24/Flash" transform="translate(688.000000, 604.000000)">
                <rect id="Rectangle" x="0" y="0" width="24" height="24"></rect>
                <path d="M15.874,2 C17.72,2 19.222,3.502 19.222,5.348 L19.222,18.652 C19.222,20.498 17.72,22 15.874,22 L8.048,22 C6.202,22 4.7,20.498 4.7,18.652 L4.7,10.826 C4.7,10.273 5.147,9.826 5.7,9.826 C6.253,9.826 6.7,10.273 6.7,10.826 L6.7,18.652 C6.7,19.396 7.305,20 8.048,20 L15.874,20 C16.617,20 17.222,19.396 17.222,18.652 L17.222,5.348 C17.222,4.604 16.617,4 15.874,4 L8.048,4 C7.305,4 6.7,4.604 6.7,5.348 L6.7,7.695 C6.7,8.248 6.253,8.695 5.7,8.695 C5.147,8.695 4.7,8.248 4.7,7.695 L4.7,5.348 C4.7,3.502 6.202,2 8.048,2 L15.874,2 Z M11.9609,16.0498 C12.4579,16.0498 12.8609,16.4528 12.8609,16.9498 C12.8609,17.4458 12.4579,17.8498 11.9609,17.8498 C11.4639,17.8498 11.0619,17.4458 11.0619,16.9498 C11.0619,16.4910308 11.4044325,16.1123562 11.8480338,16.0568132 L11.9609,16.0498 Z M9.2617,13.3496 C9.7587,13.3496 10.1607,13.7526 10.1607,14.2496 C10.1607,14.7466 9.7587,15.1496 9.2617,15.1496 C8.7647,15.1496 8.3617,14.7466 8.3617,14.2496 C8.3617,13.7908308 8.70508462,13.4121562 9.14881698,13.3566132 L9.2617,13.3496 Z M11.9609,13.3496 C12.4579,13.3496 12.8609,13.7526 12.8609,14.2496 C12.8609,14.7466 12.4579,15.1496 11.9609,15.1496 C11.4639,15.1496 11.0619,14.7466 11.0619,14.2496 C11.0619,13.7908308 11.4044325,13.4121562 11.8480338,13.3566132 L11.9609,13.3496 Z M14.6611,13.3496 C15.1581,13.3496 15.5611,13.7526 15.5611,14.2496 C15.5611,14.7466 15.1581,15.1496 14.6611,15.1496 C14.1641,15.1496 13.7621,14.7466 13.7621,14.2496 C13.7621,13.7908308 14.1046325,13.4121562 14.5482338,13.3566132 L14.6611,13.3496 Z M9.2617,10.6494 C9.7587,10.6494 10.1607,11.0524 10.1607,11.5494 C10.1607,12.0464 9.7587,12.4504 9.2617,12.4504 C8.7647,12.4504 8.3617,12.0464 8.3617,11.5494 C8.3617,11.0906308 8.70508462,10.7119562 9.14881698,10.6564132 L9.2617,10.6494 Z M11.9609,10.6494 C12.4579,10.6494 12.8609,11.0524 12.8609,11.5494 C12.8609,12.0464 12.4579,12.4504 11.9609,12.4504 C11.4639,12.4504 11.0619,12.0464 11.0619,11.5494 C11.0619,11.0906308 11.4044325,10.7119562 11.8480338,10.6564132 L11.9609,10.6494 Z M14.6611,10.6494 C15.1581,10.6494 15.5611,11.0524 15.5611,11.5494 C15.5611,12.0464 15.1581,12.4504 14.6611,12.4504 C14.1641,12.4504 13.7621,12.0464 13.7621,11.5494 C13.7621,11.0906308 14.1046325,10.7119562 14.5482338,10.6564132 L14.6611,10.6494 Z M9.2617,7.9502 C9.7587,7.9502 10.1607,8.3522 10.1607,8.8492 C10.1607,9.3462 9.7587,9.7502 9.2617,9.7502 C8.7647,9.7502 8.3617,9.3462 8.3617,8.8492 C8.3617,8.39043077 8.70508462,8.01260828 9.14881698,7.95719636 L9.2617,7.9502 Z M11.9609,7.9502 C12.4579,7.9502 12.8609,8.3522 12.8609,8.8492 C12.8609,9.3462 12.4579,9.7502 11.9609,9.7502 C11.4639,9.7502 11.0619,9.3462 11.0619,8.8492 C11.0619,8.39043077 11.4044325,8.01260828 11.8480338,7.95719636 L11.9609,7.9502 Z M14.6611,7.9502 C15.1581,7.9502 15.5611,8.3522 15.5611,8.8492 C15.5611,9.3462 15.1581,9.7502 14.6611,9.7502 C14.1641,9.7502 13.7621,9.3462 13.7621,8.8492 C13.7621,8.39043077 14.1046325,8.01260828 14.5482338,7.95719636 L14.6611,7.9502 Z" id="Combined-Shape" fill="#000000" fill-rule="nonzero"></path>
            </g>
        </g>
    </g>
</svg>