<?xml version="1.0" encoding="UTF-8"?>
<svg width="16px" height="14px" viewBox="0 0 16 14" version="1.1" xmlns="http://www.w3.org/2000/svg" xmlns:xlink="http://www.w3.org/1999/xlink">
    <title>Icon/Other/Arrow/Left</title>
    <defs>
        <path d="M19,10.9999481 L7.135,10.9999481 L10.768,6.63991974 C11.122,6.21591699 11.064,5.58491289 10.64,5.2319106 C10.215,4.8779083 9.585,4.93590868 9.232,5.35991143 L4.232,11.3599504 C4.193,11.4069507 4.173,11.4619511 4.144,11.5139514 C4.12,11.5559517 4.091,11.5919519 4.073,11.6379522 C4.028,11.7529529 4.001,11.8739537 4.001,11.9959545 C4.001,11.9969545 4,11.9989545 4,11.9999545 C4,12.0009546 4.001,12.0029546 4.001,12.0039546 C4.001,12.1259554 4.028,12.2469561 4.073,12.3619569 C4.091,12.4079572 4.12,12.4439574 4.144,12.4859577 C4.173,12.537958 4.193,12.5929584 4.232,12.6399587 L9.232,18.6399977 C9.43,18.8769992 9.714,19 10,19 C10.226,19 10.453,18.9239995 10.64,18.7679985 C11.064,18.4149962 11.122,17.7839921 10.768,17.3599894 L7.135,12.999961 L19,12.999961 C19.552,12.999961 20,12.5519581 20,11.9999545 C20,11.447951 19.552,10.9999481 19,10.9999481" id="path-1"></path>
    </defs>
    <g id="Design-System" stroke="none" stroke-width="1" fill="none" fill-rule="evenodd">
        <g id="Icon" transform="translate(-460.000000, -2369.000000)">
            <g id="Group" transform="translate(456.000000, 2364.000000)">
                <rect id="Rectangle-Copy-2" x="0" y="0" width="24" height="24"></rect>
                <mask id="mask-2" fill="white">
                    <use xlink:href="#path-1"></use>
                </mask>
                <use id="🎨-Icon-Сolor" fill="#000000" xlink:href="#path-1"></use>
            </g>
        </g>
    </g>
</svg>