<?xml version="1.0" encoding="UTF-8"?>
<svg width="20px" height="20px" viewBox="0 0 20 20" version="1.1" xmlns="http://www.w3.org/2000/svg" xmlns:xlink="http://www.w3.org/1999/xlink">
    <title>Icon/24/LiveChat</title>
    <g id="Design-System" stroke="none" stroke-width="1" fill="none" fill-rule="evenodd">
        <g id="Icon" transform="translate(-1306.000000, -606.000000)">
            <g id="Group" transform="translate(1304.000000, 604.000000)">
                <rect id="Rectangle" x="0" y="0" width="24" height="24"></rect>
                <path d="M21,14.4944 C21.553,14.4944 22,14.9414 22,15.4944 L22,19.7574 C22,20.4624 21.601,21.0804 20.959,21.3714 C20.72,21.4794 20.47,21.5324 20.222,21.5324 C19.803,21.5324 19.392,21.3824 19.06,21.0904 L17.57,19.7854 L10.633,19.7854 C9.062,19.7854 7.783,18.5074 7.783,16.9364 C7.783,16.3844 8.23,15.9364 8.783,15.9364 C9.336,15.9364 9.783,16.3844 9.783,16.9364 C9.783,17.4044 10.164,17.7854 10.633,17.7854 L17.946,17.7854 C18.188,17.7854 18.423,17.8734 18.605,18.0334 L20,19.2554 L20,15.4944 C20,14.9414 20.447,14.4944 21,14.4944 Z M14.3367,2.46 C16.1657,2.46 17.6547,3.949 17.6547,5.779 L17.6547,11.608 C17.6547,13.437 16.1657,14.925 14.3367,14.925 L6.7897,14.925 L6.2227,15.423 C5.7437,15.841 5.1547,16.058 4.5537,16.058 C4.1977,16.058 3.8367,15.982 3.4927,15.826 C2.5727,15.408 1.9997,14.52 1.9997,13.508 L1.9997,10.13 C1.9997,9.578 2.4477,9.13 2.9997,9.13 C3.5527,9.13 3.9997,9.578 3.9997,10.13 L3.9997,13.508 C3.9997,13.826 4.2237,13.961 4.3207,14.004 C4.4157,14.05 4.6667,14.128 4.9057,13.918 L5.7547,13.173 C5.9377,13.013 6.1717,12.925 6.4137,12.925 L14.3367,12.925 C15.0637,12.925 15.6547,12.334 15.6547,11.608 L15.6547,5.779 C15.6547,5.052 15.0637,4.46 14.3367,4.46 L5.3177,4.46 C4.5907,4.46 3.9997,5.052 3.9997,5.779 L3.9997,6.293 C3.9997,6.846 3.5527,7.293 2.9997,7.293 C2.4477,7.293 1.9997,6.846 1.9997,6.293 L1.9997,5.779 C1.9997,3.949 3.4887,2.46 5.3177,2.46 L14.3367,2.46 Z M19.707,8.4224 C20.972,8.4224 22,9.4504 22,10.7154 L22,11.9564 C22,12.5094 21.553,12.9564 21,12.9564 C20.447,12.9564 20,12.5094 20,11.9564 L20,10.7154 C20,10.5544 19.868,10.4224 19.707,10.4224 C19.154,10.4224 18.707,9.9754 18.707,9.4224 C18.707,8.8694 19.154,8.4224 19.707,8.4224 Z M6.8633,8.0961 C7.2893,8.0961 7.6353,8.4421 7.6353,8.8681 C7.6353,9.2951 7.2893,9.6411 6.8633,9.6411 C6.4363,9.6411 6.0913,9.2951 6.0913,8.8681 C6.0913,8.4776 6.38119583,8.15432222 6.75841053,8.1031544 L6.8633,8.0961 Z M9.9531,8.0961 C10.3801,8.0961 10.7251,8.4421 10.7251,8.8681 C10.7251,9.2951 10.3801,9.6411 9.9531,9.6411 C9.5261,9.6411 9.1811,9.2951 9.1811,8.8681 C9.1811,8.4776 9.47099583,8.15432222 9.84821053,8.1031544 L9.9531,8.0961 Z M13.043,8.0961 C13.47,8.0961 13.815,8.4421 13.815,8.8681 C13.815,9.2951 13.47,9.6411 13.043,9.6411 C12.616,9.6411 12.271,9.2951 12.271,8.8681 C12.271,8.4776 12.5608958,8.15432222 12.9381105,8.1031544 L13.043,8.0961 Z" id="Combined-Shape" fill="#000000" fill-rule="nonzero"></path>
            </g>
        </g>
    </g>
</svg>