<?xml version="1.0" encoding="UTF-8"?>
<svg width="17px" height="20px" viewBox="0 0 17 20" version="1.1" xmlns="http://www.w3.org/2000/svg" xmlns:xlink="http://www.w3.org/1999/xlink">
    <title>Icon/24/Lock</title>
    <g id="Design-System" stroke="none" stroke-width="1" fill="none" fill-rule="evenodd">
        <g id="Icon" transform="translate(-1307.000000, -502.000000)">
            <g id="Group" transform="translate(1304.000000, 500.000000)">
                <rect id="Rectangle" x="0" y="0" width="24" height="24"></rect>
                <path d="M11.37,2.0002 C14.145,2.0002 16.402,4.2582 16.402,7.0322 L16.402,7.0322 L16.402,8.4982 C16.402,8.6052 16.373,8.7042 16.342,8.8012 C18.25,9.0502 19.734,10.6672 19.734,12.6422 L19.734,12.6422 L19.734,18.1062 C19.734,20.2532 17.987,22.0002 15.841,22.0002 L15.841,22.0002 L7.162,22.0002 C5.016,22.0002 3.27,20.2532 3.27,18.1062 L3.27,18.1062 L3.27,15.7032 C3.27,15.1502 3.717,14.7032 4.27,14.7032 C4.822,14.7032 5.27,15.1502 5.27,15.7032 L5.27,15.7032 L5.27,18.1062 C5.27,19.1502 6.118,20.0002 7.162,20.0002 L7.162,20.0002 L15.841,20.0002 C16.885,20.0002 17.734,19.1502 17.734,18.1062 L17.734,18.1062 L17.734,12.6422 C17.734,11.5982 16.885,10.7502 15.841,10.7502 L15.841,10.7502 L7.116,10.7502 C6.098,10.7502 5.27,11.5782 5.27,12.5962 C5.27,13.1492 4.822,13.5962 4.27,13.5962 C3.717,13.5962 3.27,13.1492 3.27,12.5962 C3.27,10.7202 4.623,9.1582 6.403,8.8222 C6.367,8.7192 6.338,8.6132 6.338,8.4982 L6.338,8.4982 L6.338,7.0322 C6.338,4.2582 8.596,2.0002 11.37,2.0002 Z M11.3699,13.862 C12.2049,13.862 12.8829,14.54 12.8829,15.374 C12.8829,16.21 12.2049,16.887 11.3699,16.887 C10.5349,16.887 9.8589,16.21 9.8589,15.374 C9.8589,14.54 10.5349,13.862 11.3699,13.862 Z M11.37,4.0002 C9.698,4.0002 8.338,5.3602 8.338,7.0322 L8.338,7.0322 L8.338,8.4982 C8.338,8.5872 8.309,8.6672 8.287,8.7502 L8.287,8.7502 L14.453,8.7502 C14.432,8.6672 14.402,8.5872 14.402,8.4982 L14.402,8.4982 L14.402,7.0322 C14.402,5.3602 13.042,4.0002 11.37,4.0002 Z" id="Combined-Shape" fill="#000000" fill-rule="nonzero"></path>
            </g>
        </g>
    </g>
</svg>