<?xml version="1.0" encoding="UTF-8"?>
<svg width="20px" height="16px" viewBox="0 0 20 16" version="1.1" xmlns="http://www.w3.org/2000/svg" xmlns:xlink="http://www.w3.org/1999/xlink">
    <title>Icon/24/Message</title>
    <g id="Design-System" stroke="none" stroke-width="1" fill="none" fill-rule="evenodd">
        <g id="Icon" transform="translate(-162.000000, -400.000000)">
            <g id="Group" transform="translate(160.000000, 396.000000)">
                <rect id="Rectangle" x="0" y="0" width="24" height="24"></rect>
                <path d="M12,12.0561593 L4.794,6.65293884 C4.993,6.55155391 5.216,6.48793983 5.454,6.48793983 L18.545,6.48793983 C18.784,6.48793983 19.007,6.55155391 19.206,6.65293884 L12,12.0561593 Z M18.545,4.5 L5.454,4.5 C3.55,4.5 2,6.04065337 2,7.93516003 L2,16.0668279 C2,17.9593466 3.55,19.5 5.454,19.5 L6.272,19.5 C6.825,19.5 7.272,19.0556954 7.272,18.5060301 C7.272,17.9573587 6.825,17.5120602 6.272,17.5120602 L5.454,17.5120602 C4.652,17.5120602 4,16.8639918 4,16.0668279 L4,8.54943344 L11.397,14.0957856 C11.576,14.2289775 11.788,14.2955735 12,14.2955735 C12.212,14.2955735 12.424,14.2289775 12.603,14.0957856 L20,8.54943344 L20,16.0668279 C20,16.8639918 19.348,17.5120602 18.545,17.5120602 L9.545,17.5120602 C8.992,17.5120602 8.545,17.9573587 8.545,18.5060301 C8.545,19.0556954 8.992,19.5 9.545,19.5 L18.545,19.5 C20.45,19.5 22,17.9593466 22,16.0668279 L22,7.93516003 C22,6.04065337 20.45,4.5 18.545,4.5 L18.545,4.5 Z" id="Fill-1" fill="#000000" fill-rule="nonzero"></path>
            </g>
        </g>
    </g>
</svg>