<?xml version="1.0" encoding="UTF-8"?>
<svg width="22px" height="16px" viewBox="0 0 22 16" version="1.1" xmlns="http://www.w3.org/2000/svg" xmlns:xlink="http://www.w3.org/1999/xlink">
    <title>Icon/24/Mifi</title>
    <g id="Design-System" stroke="none" stroke-width="1" fill="none" fill-rule="evenodd">
        <g id="Icon" transform="translate(-865.000000, -504.000000)">
            <g id="Icon/24/Mifi" transform="translate(864.000000, 500.000000)">
                <rect id="Rectangle" x="0" y="0" width="24" height="24"></rect>
                <path d="M21.0654436,4.64573107 C21.2614436,4.12973107 21.8424436,3.86873107 22.3544436,4.06573107 C22.8714436,4.26073107 23.1304436,4.83873107 22.9344436,5.35473107 L22.9344436,5.35473107 L20.4974436,11.7797311 L20.4974436,16.3047311 C20.4974436,18.2947311 18.8774436,19.9137311 16.8874436,19.9137311 L16.8874436,19.9137311 L7.11144356,19.9137311 C5.12244356,19.9137311 3.50244356,18.2947311 3.50244356,16.3047311 L3.50244356,16.3047311 L3.50244356,11.7797311 L1.06544356,5.35473107 C0.869443561,4.83873107 1.12844356,4.26073107 1.64544356,4.06573107 C2.16044356,3.86873107 2.73844356,4.12973107 2.93444356,4.64573107 L2.93444356,4.64573107 L3.83244356,7.01173107 C4.40044356,5.76373107 5.65344356,4.88973107 7.11144356,4.88973107 L7.11144356,4.88973107 L7.68944356,4.88973107 C8.24244356,4.88973107 8.68944356,5.33673107 8.68944356,5.88973107 C8.68944356,6.44273107 8.24244356,6.88973107 7.68944356,6.88973107 L7.68944356,6.88973107 L7.11144356,6.88973107 C6.22444356,6.88973107 5.50244356,7.61173107 5.50244356,8.49973107 L5.50244356,8.49973107 L5.50244356,16.3047311 C5.50244356,17.1917311 6.22444356,17.9137311 7.11144356,17.9137311 L7.11144356,17.9137311 L16.8874436,17.9137311 C17.7754436,17.9137311 18.4974436,17.1917311 18.4974436,16.3047311 L18.4974436,16.3047311 L18.4974436,8.49973107 C18.4974436,7.61173107 17.7754436,6.88973107 16.8874436,6.88973107 L16.8874436,6.88973107 L10.8764436,6.88973107 C10.3244436,6.88973107 9.87644356,6.44273107 9.87644356,5.88973107 C9.87644356,5.33673107 10.3244436,4.88973107 10.8764436,4.88973107 L10.8764436,4.88973107 L16.8874436,4.88973107 C18.3464436,4.88973107 19.5994436,5.76373107 20.1674436,7.01173107 L20.1674436,7.01173107 Z M12.0000436,14.1643311 C12.3710436,14.1643311 12.6720436,14.4653311 12.6720436,14.8363311 C12.6720436,15.2073311 12.3710436,15.5083311 12.0000436,15.5083311 C11.6290436,15.5083311 11.3280436,15.2073311 11.3280436,14.8363311 C11.3280436,14.4653311 11.6290436,14.1643311 12.0000436,14.1643311 Z M10.2571436,12.3124311 C11.1851436,11.3824311 12.8101436,11.3804311 13.7431436,12.3124311 C13.9771436,12.5474311 13.9761436,12.9274311 13.7421436,13.1614311 C13.5081436,13.3954311 13.1281436,13.3944311 12.8931436,13.1604311 C12.4171436,12.6834311 11.5831436,12.6834311 11.1041436,13.1604311 C10.9871436,13.2774311 10.8341436,13.3364319 10.6801436,13.3364319 C10.5271436,13.3364319 10.3741436,13.2774311 10.2571436,13.1604311 C10.0221436,12.9274311 10.0221436,12.5464311 10.2571436,12.3124311 Z M8.39144356,10.7713311 C10.3794436,8.78033107 13.6204436,8.78033107 15.6084436,10.7713311 C15.8424436,11.0043311 15.8424436,11.3853311 15.6084436,11.6183311 C15.4914436,11.7353311 15.3374436,11.7943311 15.1844436,11.7943311 C15.0314436,11.7943311 14.8774436,11.7353311 14.7604436,11.6183311 C13.2374436,10.0973311 10.7624436,10.0973311 9.23944356,11.6183311 C9.00444356,11.8533311 8.62544356,11.8533311 8.39144356,11.6183311 C8.15744356,11.3853311 8.15744356,11.0043311 8.39144356,10.7713311 Z" id="Combined-Shape" fill="#000000" fill-rule="nonzero"></path>
            </g>
        </g>
    </g>
</svg>