<?xml version="1.0" encoding="UTF-8"?>
<svg width="18px" height="20px" viewBox="0 0 18 20" version="1.1" xmlns="http://www.w3.org/2000/svg" xmlns:xlink="http://www.w3.org/1999/xlink">
    <title>Icon/24/Movie</title>
    <g id="Design-System" stroke="none" stroke-width="1" fill="none" fill-rule="evenodd">
        <g id="Icon" transform="translate(-867.000000, -710.000000)">
            <g id="Icon/24/Movie" transform="translate(864.000000, 708.000000)">
                <rect id="Rectangle" x="0" y="0" width="24" height="24"></rect>
                <path d="M16.4082786,13.5442573 L17.1042786,12.3152573 L18.7222786,12.3152573 L18.7222786,13.5442573 L16.4082786,13.5442573 Z M6.32027857,12.3152573 L9.20527857,12.3152573 L8.50827857,13.5442573 L6.32027857,13.5442573 L6.32027857,12.3152573 Z M7.78127857,8.14925728 L8.83027857,8.97625728 L6.02727857,10.1352573 L5.59027857,9.05725728 L7.78127857,8.14925728 Z M17.5062786,5.38825728 L16.1332786,5.95625728 L15.0832786,5.13025728 L17.0682786,4.30925728 L17.5062786,5.38825728 Z M12.9632786,6.00725728 L14.0122786,6.83325728 L10.9502786,8.09925728 L9.90127857,7.27325728 L12.9632786,6.00725728 Z M10.8072786,13.5442573 L11.5042786,12.3152573 L14.8052786,12.3152573 L14.1092786,13.5442573 L10.8072786,13.5442573 Z M19.7222786,10.3152573 L10.8232786,10.3152573 L19.1872786,6.85725728 C19.6952786,6.64725728 19.9382786,6.06625728 19.7322786,5.55725728 L18.5432786,2.62425728 C18.4422786,2.37725728 18.2482786,2.18125728 18.0032786,2.07825728 C17.7562786,1.97525728 17.4792786,1.97325728 17.2342786,2.07625728 L3.90827857,7.58825728 C3.40027857,7.79825728 3.15727857,8.37825728 3.36327857,8.88825728 L4.33027857,11.2702573 C4.32927857,11.2862573 4.32027857,11.2992573 4.32027857,11.3152573 L4.32027857,14.5442573 L4.32027857,19.3872573 C4.32027857,20.8282573 5.49327857,22.0002573 6.93427857,22.0002573 L18.1082786,22.0002573 C19.5502786,22.0002573 20.7222786,20.8282573 20.7222786,19.3872573 L20.7222786,19.1852573 C20.7222786,18.6322573 20.2752786,18.1852573 19.7222786,18.1852573 C19.1702786,18.1852573 18.7222786,18.6322573 18.7222786,19.1852573 L18.7222786,19.3872573 C18.7222786,19.7252573 18.4472786,20.0002573 18.1082786,20.0002573 L6.93427857,20.0002573 C6.59527857,20.0002573 6.32027857,19.7252573 6.32027857,19.3872573 L6.32027857,15.5442573 L18.7222786,15.5442573 L18.7222786,16.1582573 C18.7222786,16.7112573 19.1702786,17.1582573 19.7222786,17.1582573 C20.2752786,17.1582573 20.7222786,16.7112573 20.7222786,16.1582573 L20.7222786,14.5442573 L20.7222786,11.3152573 C20.7222786,10.7632573 20.2752786,10.3152573 19.7222786,10.3152573 L19.7222786,10.3152573 Z" id="Fill-1" fill="#000000" fill-rule="nonzero"></path>
            </g>
        </g>
    </g>
</svg>