<?xml version="1.0" encoding="UTF-8"?>
<svg width="20px" height="20px" viewBox="0 0 20 20" version="1.1" xmlns="http://www.w3.org/2000/svg" xmlns:xlink="http://www.w3.org/1999/xlink">
    <title>Icon/24/Others</title>
    <g id="Design-System" stroke="none" stroke-width="1" fill="none" fill-rule="evenodd">
        <g id="Icon" transform="translate(-1218.000000, -606.000000)">
            <g id="Group" transform="translate(1216.000000, 604.000000)">
                <rect id="Rectangle" x="0" y="0" width="24" height="24"></rect>
                <path d="M10.329,6.2577 C10.569,6.1627 10.836,6.1627 11.074,6.2577 L11.074,6.2577 L18.377,9.1897 C18.757,9.3417 19.005,9.7087 19.005,10.1177 C19.005,10.1997 18.988,10.2787 18.969,10.3557 C18.98,10.4167 19.005,10.4717 19.005,10.5357 L19.005,10.5357 L19.005,18.0707 C19.005,18.4787 18.757,18.8467 18.377,18.9987 L18.377,18.9987 L11.094,21.9197 L11.094,21.9197 L11.088,21.9217 L11.074,21.9277 C10.955,21.9757 10.828,22.0007 10.702,22.0007 C10.576,22.0007 10.449,21.9757 10.33,21.9277 L10.33,21.9277 L10.316,21.9217 C10.314,21.9217 10.312,21.9207 10.31,21.9197 L10.31,21.9197 L3.028,18.9987 C2.648,18.8467 2.4,18.4787 2.4,18.0707 L2.4,18.0707 L2.4,14.8207 C2.4,14.2677 2.848,13.8207 3.4,13.8207 C3.953,13.8207 4.4,14.2677 4.4,14.8207 L4.4,14.8207 L4.4,17.3947 L9.702,19.5217 L9.702,13.7227 L3.028,11.0447 C2.648,10.8937 2.4,10.5257 2.4,10.1177 C2.4,9.7087 2.648,9.3417 3.027,9.1897 L3.027,9.1897 Z M17.005,11.5957 L11.702,13.7227 L11.702,19.5217 L17.005,17.3937 L17.005,11.5957 Z M10.702,8.2627 L6.085,10.1177 L10.702,11.9697 L15.32,10.1177 L10.702,8.2627 Z M18.4348,2 C18.9868,2 19.4348,2.447 19.4348,3 L19.4348,3 L19.4348,4.093 L20.5818,4.093 C21.1348,4.093 21.5818,4.54 21.5818,5.093 C21.5818,5.646 21.1348,6.093 20.5818,6.093 L20.5818,6.093 L19.4348,6.093 L19.4348,7.186 C19.4348,7.739 18.9868,8.186 18.4348,8.186 C17.8818,8.186 17.4348,7.739 17.4348,7.186 L17.4348,7.186 L17.4348,6.093 L16.2858,6.093 C15.7328,6.093 15.2858,5.646 15.2858,5.093 C15.2858,4.54 15.7328,4.093 16.2858,4.093 L16.2858,4.093 L17.4348,4.093 L17.4348,3 C17.4348,2.447 17.8818,2 18.4348,2 Z" id="Combined-Shape" fill="#000000" fill-rule="nonzero"></path>
            </g>
        </g>
    </g>
</svg>