<?xml version="1.0" encoding="UTF-8"?>
<svg width="20px" height="20px" viewBox="0 0 20 20" version="1.1" xmlns="http://www.w3.org/2000/svg" xmlns:xlink="http://www.w3.org/1999/xlink">
    <title>Icon/24/Package</title>
    <g id="Design-System" stroke="none" stroke-width="1" fill="none" fill-rule="evenodd">
        <g id="Icon" transform="translate(-1218.000000, -398.000000)">
            <g id="Group" transform="translate(1216.000000, 396.000000)">
                <rect id="Rectangle" x="0" y="0" width="24" height="24"></rect>
                <path d="M14.547,2.4 C16.516,2.4 18.118,4.003 18.118,5.971 L18.118,5.971 L18.118,17.971 C18.118,18.538 17.974,19.066 17.738,19.543 L17.738,19.543 L18.429,19.543 C19.295,19.543 20,18.837 20,17.971 L20,17.971 L20,13.686 C20,13.528 19.872,13.4 19.715,13.4 C19.162,13.4 18.715,12.953 18.715,12.4 C18.715,11.847 19.162,11.4 19.715,11.4 C20.975,11.4 22,12.425 22,13.686 L22,13.686 L22,17.971 C22,19.94 20.398,21.543 18.429,21.543 L18.429,21.543 L5.571,21.543 C3.603,21.543 2,19.94 2,17.971 L2,17.971 L2,5.971 C2,4.003 3.603,2.4 5.571,2.4 C6.124,2.4 6.571,2.847 6.571,3.4 C6.571,3.953 6.124,4.4 5.571,4.4 C4.705,4.4 4,5.105 4,5.971 L4,5.971 L4,17.971 C4,18.837 4.705,19.543 5.571,19.543 L5.571,19.543 L14.547,19.543 C15.413,19.543 16.118,18.837 16.118,17.971 L16.118,17.971 L16.118,5.971 C16.118,5.105 15.413,4.4 14.547,4.4 L14.547,4.4 L8.143,4.4 C7.59,4.4 7.143,3.953 7.143,3.4 C7.143,2.847 7.59,2.4 8.143,2.4 L8.143,2.4 Z M13.0842,14.61 C13.6372,14.61 14.0842,15.057 14.0842,15.61 C14.0842,16.163 13.6372,16.61 13.0842,16.61 L13.0842,16.61 L7.0342,16.61 C6.4812,16.61 6.0342,16.163 6.0342,15.61 C6.0342,15.057 6.4812,14.61 7.0342,14.61 L7.0342,14.61 Z M13.0842,10.9908 C13.6372,10.9908 14.0842,11.4378 14.0842,11.9908 C14.0842,12.5438 13.6372,12.9908 13.0842,12.9908 L13.0842,12.9908 L7.0342,12.9908 C6.4812,12.9908 6.0342,12.5438 6.0342,11.9908 C6.0342,11.4378 6.4812,10.9908 7.0342,10.9908 L7.0342,10.9908 Z M10.0588,7.3717 C10.6118,7.3717 11.0588,7.8187 11.0588,8.3717 C11.0588,8.9247 10.6118,9.3717 10.0588,9.3717 L10.0588,9.3717 L7.0348,9.3717 C6.4818,9.3717 6.0348,8.9247 6.0348,8.3717 C6.0348,7.8187 6.4818,7.3717 7.0348,7.3717 L7.0348,7.3717 Z" id="Combined-Shape" fill="#000000" fill-rule="nonzero"></path>
            </g>
        </g>
    </g>
</svg>