<?xml version="1.0" encoding="UTF-8"?>
<svg width="18px" height="18px" viewBox="0 0 18 18" version="1.1" xmlns="http://www.w3.org/2000/svg" xmlns:xlink="http://www.w3.org/1999/xlink">
    <title>Icon/24/Phone</title>
    <g id="Design-System" stroke="none" stroke-width="1" fill="none" fill-rule="evenodd">
        <g id="Icon" transform="translate(-339.000000, -399.000000)">
            <g id="Group" transform="translate(336.000000, 396.000000)">
                <rect id="Rectangle" x="0" y="0" width="24" height="24"></rect>
                <path d="M20.0227757,13.8289544 L18.8871495,12.6909472 C17.5505894,11.3539387 15.3783044,11.3449386 14.0287486,12.662947 L13.41695,13.2749509 C13.331978,13.3569514 13.1930237,13.3579514 13.107052,13.2779509 L10.7418305,10.9049358 C10.6618568,10.8249353 10.6618568,10.6959345 10.7528269,10.6049339 L11.4505972,9.87792931 L11.4495976,9.87592929 C12.6591994,8.51992068 12.6152139,6.42390735 11.3196403,5.11989907 L10.1850138,3.98289184 C9.57321517,3.38588804 8.7664807,3.03788583 7.90876302,3.0018856 C7.38193642,2.98488549 6.84811213,3.08288612 6.37226876,3.29388746 C6.11835233,3.40488816 5.9234165,3.60988947 5.82244973,3.86789111 C5.72148296,4.12789276 5.72848066,4.40989455 5.84044381,4.66389617 C6.0713678,5.1878995 6.68516577,5.42690102 7.21099269,5.19389954 C7.40292951,5.109899 7.6168591,5.0628987 7.82479066,5.0788988 C8.17267615,5.0938989 8.50056823,5.23689981 8.74648728,5.48190137 L9.84712501,6.58690839 C10.3839483,7.12791183 10.3839483,8.00791742 9.8371283,8.55992093 L9.18934152,9.23392521 L9.18934152,9.23592523 C8.38560607,10.1289309 8.41459653,11.5159397 9.2693152,12.3729452 L11.6715245,14.7819605 C12.563231,15.6279659 13.960771,15.6289659 14.8704716,14.7619604 L15.4682748,14.1609565 C16.0060978,13.6259531 16.8808099,13.6259531 17.4196325,14.1609565 L18.5192706,15.2659636 C19.0580932,15.807967 19.0580932,16.6879726 18.5212699,17.226976 C17.4376266,18.3059829 15.9461175,18.9209868 14.4116226,18.9209868 C14.3956279,18.9199868 14.3816325,18.9219868 14.3646381,18.9209868 C12.8071507,18.9209868 11.3436324,18.3129829 10.2429947,17.2099759 L6.79512957,13.767954 C4.97872744,11.9429424 4.55986531,9.18292489 5.75147309,6.90191039 C5.88043064,6.65690883 5.90442275,6.37490704 5.82145006,6.10890535 C5.73847737,5.84490367 5.55653725,5.62790229 5.3106182,5.49990148 C4.80578436,5.23389979 4.17499199,5.43290105 3.90907951,5.93990428 C2.29760993,9.0279239 2.86442336,12.7639477 5.32461359,15.2369634 L8.77447807,18.6809853 C10.2669868,20.1759948 12.2543327,21 14.3696364,21 L14.41962,20.999 L14.425618,20.999 C16.4949369,20.999 18.5202702,20.1619947 19.9947849,18.6939853 C21.3263466,17.3539768 21.334344,15.180963 20.0227757,13.8289544" id="Fill-1" fill="#000000" fill-rule="nonzero"></path>
            </g>
        </g>
    </g>
</svg>