<?xml version="1.0" encoding="UTF-8"?>
<svg width="18px" height="20px" viewBox="0 0 18 20" version="1.1" xmlns="http://www.w3.org/2000/svg" xmlns:xlink="http://www.w3.org/1999/xlink">
    <title>Icon/24/Play</title>
    <g id="Design-System" stroke="none" stroke-width="1" fill="none" fill-rule="evenodd">
        <g id="Icon" transform="translate(-603.000000, -502.000000)">
            <g id="Group" transform="translate(600.000000, 500.000000)">
                <rect id="Rectangle" x="0" y="0" width="24" height="24"></rect>
                <path d="M17.908,13.9597 C18.303,13.5727 18.936,13.5767 19.322,13.9697 C20.131,14.7897 20.557,15.7467 20.557,16.7377 C20.557,19.6887 16.79,21.9997 11.979,21.9997 C7.169,21.9997 3.4,19.6887 3.4,16.7377 C3.4,15.7467 3.827,14.7897 4.635,13.9697 C5.023,13.5757 5.656,13.5727 6.05,13.9597 C6.443,14.3477 6.447,14.9807 6.059,15.3737 C5.622,15.8177 5.4,16.2767 5.4,16.7377 C5.4,18.2807 8.102,19.9997 11.979,19.9997 C15.856,19.9997 18.557,18.2807 18.557,16.7377 C18.557,16.2767 18.336,15.8177 17.898,15.3737 C17.51,14.9807 17.514,14.3477 17.908,13.9597 Z M11.9792,1.9997 C14.6202,1.9997 16.7682,4.1487 16.7682,6.7897 C16.7682,9.0867 15.1412,11.0087 12.9792,11.4697 L12.9792,11.4697 L12.9792,15.3157 C12.9792,15.8677 12.5322,16.3157 11.9792,16.3157 C11.4262,16.3157 10.9792,15.8677 10.9792,15.3157 L10.9792,15.3157 L10.9792,11.4707 C8.8172,11.0087 7.1892,9.0867 7.1892,6.7897 C7.1892,6.3887 7.2402,5.9877 7.3392,5.5957 C7.4742,5.0597 8.0192,4.7327 8.5542,4.8727 C9.0892,5.0087 9.4142,5.5527 9.2772,6.0877 C9.2182,6.3187 9.1892,6.5547 9.1892,6.7897 C9.1892,8.3277 10.4412,9.5787 11.9792,9.5787 C13.5172,9.5787 14.7682,8.3277 14.7682,6.7897 C14.7682,5.2517 13.5172,3.9997 11.9792,3.9997 C11.4882,3.9997 11.0052,4.1287 10.5832,4.3727 C10.1052,4.6477 9.4942,4.4857 9.2172,4.0067 C8.9412,3.5297 9.1052,2.9167 9.5832,2.6407 C10.3092,2.2217 11.1372,1.9997 11.9792,1.9997 Z" id="Combined-Shape" fill="#000000" fill-rule="nonzero"></path>
            </g>
        </g>
    </g>
</svg>