<?xml version="1.0" encoding="UTF-8"?>
<svg width="20px" height="20px" viewBox="0 0 20 20" version="1.1" xmlns="http://www.w3.org/2000/svg" xmlns:xlink="http://www.w3.org/1999/xlink">
    <title>Icon/24/Point</title>
    <g id="Design-System" stroke="none" stroke-width="1" fill="none" fill-rule="evenodd">
        <g id="Icon" transform="translate(-778.000000, -710.000000)">
            <g id="Icon/24/Point" transform="translate(776.000000, 708.000000)">
                <rect id="Rectangle" x="0" y="0" width="24" height="24"></rect>
                <path d="M12.0022005,2 C13.0572005,2 13.9702005,2.588 14.3832005,3.535 C14.4682005,3.729 14.6372005,3.809 14.7312005,3.839 C14.9052005,3.895 15.0952005,3.877 15.2522005,3.786 C16.1662005,3.252 17.3082005,3.314 18.1572005,3.95 C18.9802005,4.564 19.3402005,5.557 19.0982005,6.54 C19.0552005,6.716 19.1172005,6.852 19.1772005,6.935 C19.2762005,7.072 19.4392005,7.159 19.6212005,7.174 C20.6832005,7.258 21.5712005,7.955 21.8852005,8.948 C22.1942005,9.93 21.8872005,10.952 21.0832005,11.616 C20.9192005,11.751 20.8952005,11.915 20.8952005,12 C20.8952005,12.085 20.9192005,12.249 21.0842005,12.385 C21.8872005,13.048 22.1942005,14.07 21.8852005,15.052 C21.5712005,16.045 20.6832005,16.742 19.6212005,16.826 C19.4392005,16.841 19.2762005,16.928 19.1772005,17.065 C19.1172005,17.148 19.0552005,17.284 19.0982005,17.459 C19.3402005,18.443 18.9802005,19.436 18.1572005,20.05 C17.3092005,20.685 16.1682005,20.747 15.2522005,20.215 C15.0962005,20.123 14.9082005,20.105 14.7312005,20.161 C14.6372005,20.191 14.4682005,20.271 14.3842005,20.465 C13.9702005,21.412 13.0572005,22 12.0022005,22 L12.0012005,22 C10.9452005,21.999 10.0332005,21.411 9.6202005,20.464 C9.5362005,20.271 9.3662005,20.191 9.2732005,20.161 C9.0962005,20.103 8.9072005,20.122 8.7512005,20.214 C7.8362005,20.747 6.6952005,20.686 5.8462005,20.05 C5.0232005,19.435 4.6642005,18.442 4.9062005,17.459 C4.9482005,17.285 4.8862005,17.148 4.8262005,17.065 C4.7272005,16.928 4.5652005,16.841 4.3832005,16.826 C3.3202005,16.742 2.4322005,16.045 2.1182005,15.051 C1.8092005,14.069 2.1162005,13.048 2.9202005,12.384 C3.0842005,12.248 3.1082005,12.085 3.1082005,12 C3.1082005,11.915 3.0842005,11.752 2.9202005,11.615 C2.1162005,10.952 1.8092005,9.931 2.1182005,8.949 C2.4322005,7.955 3.3202005,7.258 4.3832005,7.174 C4.5652005,7.159 4.7272005,7.072 4.8262005,6.935 C4.8862005,6.852 4.9482005,6.715 4.9052005,6.54 C4.6772005,5.612 4.9952005,4.652 5.7382005,4.035 C6.1622005,3.681 6.7922005,3.741 7.1472005,4.166 C7.4992005,4.591 7.4402005,5.221 7.0162005,5.574 C6.9062005,5.665 6.7892005,5.823 6.8482005,6.062 C7.0222005,6.769 6.8752005,7.513 6.4472005,8.105 C6.0042005,8.72 5.3102005,9.106 4.5412005,9.168 C4.1652005,9.197 4.0522005,9.468 4.0252005,9.55 C3.9902005,9.664 3.9642005,9.884 4.1932005,10.073 C4.7752005,10.555 5.1082005,11.257 5.1082005,12 C5.1082005,12.743 4.7752005,13.445 4.1932005,13.926 C3.9642005,14.116 3.9902005,14.336 4.0252005,14.45 C4.0522005,14.532 4.1652005,14.803 4.5412005,14.832 C5.3102005,14.894 6.0042005,15.28 6.4472005,15.895 C6.8752005,16.487 7.0222005,17.231 6.8492005,17.937 C6.7822005,18.205 6.9422005,18.372 7.0442005,18.448 C7.1232005,18.508 7.4082005,18.685 7.7432005,18.486 C8.3912005,18.109 9.1732005,18.026 9.8932005,18.259 C10.5942005,18.488 11.1632005,19 11.4532005,19.664 C11.5892005,19.976 11.9072005,20 12.0012005,20 L12.0022005,20 C12.0962005,20 12.4142005,19.976 12.5512005,19.664 C12.8402005,19.001 13.4082005,18.488 14.1092005,18.26 C14.8292005,18.023 15.6112005,18.109 16.2602005,18.487 C16.5972005,18.684 16.8812005,18.508 16.9602005,18.448 C17.0622005,18.372 17.2222005,18.205 17.1562005,17.937 C16.9822005,17.232 17.1282005,16.488 17.5552005,15.896 C17.9982005,15.281 18.6932005,14.894 19.4632005,14.832 C19.8382005,14.803 19.9512005,14.532 19.9782005,14.45 C20.0142005,14.336 20.0392005,14.116 19.8102005,13.927 C19.2282005,13.445 18.8952005,12.743 18.8952005,12 C18.8952005,11.257 19.2282005,10.555 19.8092005,10.074 C20.0392005,9.884 20.0142005,9.664 19.9782005,9.55 C19.9512005,9.468 19.8382005,9.197 19.4632005,9.168 C18.6932005,9.106 17.9982005,8.719 17.5552005,8.104 C17.1282005,7.512 16.9822005,6.768 17.1562005,6.062 C17.2222005,5.795 17.0622005,5.628 16.9602005,5.552 C16.8812005,5.493 16.5972005,5.316 16.2602005,5.514 C15.6092005,5.892 14.8242005,5.974 14.1092005,5.74 C13.4082005,5.512 12.8402005,4.999 12.5502005,4.336 C12.4142005,4.024 12.0962005,4 12.0012005,4 C11.9072005,4 11.5892005,4.024 11.4542005,4.335 C11.2022005,4.911 10.7452005,5.372 10.1652005,5.635 C9.6632005,5.866 9.0692005,5.641 8.8422005,5.138 C8.6132005,4.635 8.8362005,4.042 9.3392005,3.814 C9.4302005,3.772 9.5532005,3.69 9.6212005,3.535 C10.0332005,2.589 10.9452005,2.001 12.0012005,2 L12.0022005,2 Z M12.0002005,9.0004 C13.7062005,9.0004 14.6872005,9.8484 14.6872005,11.3474 C14.6872005,12.9224 13.7062005,13.8274 12.0002005,13.8274 L12.0002005,13.8274 L10.9632005,13.8274 L10.9632005,14.6294 C10.9632005,15.1714 10.5242005,15.6094 9.9832005,15.6094 C9.4412005,15.6094 9.0022005,15.1714 9.0022005,14.6294 L9.0022005,14.6294 L9.0022005,9.8574 C9.0022005,9.3834 9.3862005,9.0004 9.8592005,9.0004 L9.8592005,9.0004 Z M11.9052005,10.5084 L10.9632005,10.5084 L10.9632005,12.3184 L11.9052005,12.3184 C12.4902005,12.3184 12.8292005,11.9984 12.8292005,11.4044 C12.8292005,10.8294 12.4902005,10.5084 11.9052005,10.5084 L11.9052005,10.5084 Z" id="Combined-Shape" fill="#000000" fill-rule="nonzero"></path>
            </g>
        </g>
    </g>
</svg>