<?xml version="1.0" encoding="UTF-8"?>
<svg width="16px" height="20px" viewBox="0 0 16 20" version="1.1" xmlns="http://www.w3.org/2000/svg" xmlns:xlink="http://www.w3.org/1999/xlink">
    <title>Icon/24/Privacy</title>
    <g id="Design-System" stroke="none" stroke-width="1" fill="none" fill-rule="evenodd">
        <g id="Icon" transform="translate(-1484.000000, -502.000000)">
            <g id="Group" transform="translate(1480.000000, 500.000000)">
                <rect id="Rectangle" x="0" y="0" width="24" height="24"></rect>
                <path d="M18.3103622,16.867 C18.3103622,18.732 16.7923622,20.25 14.9273622,20.25 L12.4643622,20.25 C10.8493622,20.25 9.46636216,18.81 9.10636216,18.311 L5.75636216,12.624 C5.71436216,12.552 5.69536216,12.47 5.70136216,12.387 C5.71836216,12.138 5.91236216,12.049 5.99536216,12.021 C6.06536216,11.998 6.30536216,11.94 6.49036216,12.156 L8.98736216,15.059 C8.99436216,15.066 9.00236216,15.069 9.00936216,15.076 C9.04636216,15.117 9.09236216,15.144 9.13836216,15.177 C9.17336216,15.201 9.20536216,15.23 9.24436216,15.248 C9.28536216,15.267 9.33136216,15.272 9.37636216,15.284 C9.42636216,15.297 9.47436216,15.312 9.52736216,15.314 C9.53736216,15.314 9.54436216,15.32 9.55536216,15.32 C9.59336216,15.32 9.62636216,15.304 9.66436216,15.299 C9.71436216,15.291 9.76436216,15.286 9.81336216,15.267 C9.86536216,15.249 9.90836216,15.219 9.95436216,15.189 C9.98336216,15.171 10.0173622,15.162 10.0443622,15.138 C10.0523622,15.133 10.0543622,15.123 10.0623622,15.117 C10.1013622,15.08 10.1283622,15.035 10.1603622,14.991 C10.1853622,14.954 10.2153622,14.922 10.2343622,14.881 C10.2513622,14.842 10.2573622,14.798 10.2683622,14.755 C10.2823622,14.703 10.2973622,14.652 10.2993622,14.597 C10.3003622,14.588 10.3053622,14.58 10.3053622,14.57 L10.3053622,5.892 C10.3053622,5.622 10.5253622,5.402 10.7943622,5.402 C11.0653622,5.402 11.2853622,5.622 11.2853622,5.892 L11.2853622,12.091 L11.2853622,12.691 C11.2853622,13.105 11.6213622,13.441 12.0353622,13.441 C12.4493622,13.441 12.7853622,13.105 12.7853622,12.691 L12.7853622,12.091 L12.7853622,5.892 L12.7853622,4.157 C12.7853622,3.932 12.9673622,3.75 13.1923622,3.75 C13.4163622,3.75 13.5993622,3.932 13.5993622,4.157 L13.5993622,5.561 L13.5993622,12.423 L13.5993622,12.691 C13.5993622,13.105 13.9353622,13.441 14.3493622,13.441 C14.7633622,13.441 15.0993622,13.105 15.0993622,12.691 L15.0993622,12.423 L15.0993622,5.561 C15.0993622,5.325 15.2903622,5.134 15.5273622,5.134 C15.7633622,5.134 15.9553622,5.325 15.9553622,5.561 L15.9553622,6.947 L15.9553622,9.461 L15.9553622,13.25 C15.9553622,13.664 16.2903622,14 16.7053622,14 C17.1193622,14 17.4553622,13.664 17.4553622,13.25 L17.4553622,9.461 L17.4553622,6.947 C17.4553622,6.711 17.6463622,6.519 17.8823622,6.519 C18.1193622,6.519 18.3103622,6.711 18.3103622,6.947 L18.3103622,8.538 L18.3103622,15.461 L18.3103622,16.867 Z M17.8823622,5.019 C17.7103622,5.019 17.5483622,5.049 17.3903622,5.092 C17.1783622,4.256 16.4263622,3.634 15.5273622,3.634 C15.3573622,3.634 15.1963622,3.663 15.0393622,3.704 C14.8343622,2.871 14.0873622,2.25 13.1923622,2.25 C12.2033622,2.25 11.3963622,3.011 11.3033622,3.976 C11.1403622,3.933 10.9713622,3.902 10.7943622,3.902 C9.69836216,3.902 8.80536216,4.795 8.80536216,5.892 L8.80536216,12.549 L7.62636216,11.178 C7.10936216,10.575 6.28636216,10.348 5.52436216,10.596 C4.76736216,10.846 4.26236216,11.49 4.20536216,12.276 C4.17636216,12.663 4.26536216,13.046 4.46336216,13.385 L7.84936216,19.129 C8.54636216,20.102 10.3013622,21.75 12.4643622,21.75 L14.9273622,21.75 C17.6203622,21.75 19.8103622,19.559 19.8103622,16.867 L19.8103622,15.461 L19.8103622,8.538 L19.8103622,6.947 C19.8103622,5.885 18.9453622,5.019 17.8823622,5.019 L17.8823622,5.019 Z" id="Fill-1" fill="#000000" fill-rule="nonzero"></path>
            </g>
        </g>
    </g>
</svg>