<?xml version="1.0" encoding="UTF-8"?>
<svg width="20px" height="20px" viewBox="0 0 20 20" version="1.1" xmlns="http://www.w3.org/2000/svg" xmlns:xlink="http://www.w3.org/1999/xlink">
    <title>Icon/24/Refresh</title>
    <g id="Design-System" stroke="none" stroke-width="1" fill="none" fill-rule="evenodd">
        <g id="Icon" transform="translate(-1042.000000, -606.000000)">
            <g id="Icon/24/History" transform="translate(1040.000000, 604.000000)">
                <rect id="Rectangle" x="0" y="0" width="24" height="24"></rect>
                <path d="M10.0753044,21.1999577 C9.98130436,21.1999577 9.88630436,21.1859577 9.79030436,21.1589577 C7.72730436,20.5459577 5.91330436,19.2289577 4.68230436,17.4519577 C4.36830436,16.9979577 4.48130436,16.3749577 4.93530436,16.0599577 C5.38830436,15.7449577 6.01330436,15.8589577 6.32730436,16.3129577 C7.31330436,17.7379577 8.70830436,18.7509577 10.3603044,19.2409577 C10.8893044,19.3989577 11.1913044,19.9559577 11.0343044,20.4849577 C10.9043044,20.9189577 10.5073044,21.1999577 10.0753044,21.1999577 M13.0793044,21.5319577 C12.5583044,21.5319577 12.1193044,21.1289577 12.0823044,20.6009577 C12.0443044,20.0499577 12.4603044,19.5719577 13.0113044,19.5339577 C14.3583044,19.4409577 15.6603044,18.9799577 16.7753044,18.2009577 C20.1783044,15.8239577 21.0203044,11.1079577 18.6543044,7.68995769 C17.5073044,6.03295769 15.7873044,4.92595769 13.8103044,4.56995769 C11.8383044,4.21495769 9.84830436,4.65495769 8.20430436,5.80195769 C7.51630436,6.28295769 6.92330436,6.86395769 6.43830436,7.52495769 L8.08330436,6.95495769 C8.60430436,6.77595769 9.17430436,7.05095769 9.35530436,7.57295769 C9.53630436,8.09495769 9.26030436,8.66395769 8.73730436,8.84595769 L4.94730436,10.1589577 C4.70430436,10.3139577 4.39530436,10.3619577 4.09930436,10.2639577 C3.97430436,10.2229577 3.86330436,10.1599577 3.76830436,10.0799577 C3.61930436,9.96195769 3.50530436,9.80295769 3.44230436,9.61995769 L2.05430436,5.57895769 C1.87530436,5.05595769 2.15330436,4.48695769 2.67530436,4.30795769 C3.20030436,4.12895769 3.76630436,4.40695769 3.94530436,4.92895769 L4.56130436,6.72095769 C5.21830436,5.72595769 6.05830436,4.86095769 7.05830436,4.16295769 C9.14230436,2.70695769 11.6723044,2.15395769 14.1643044,2.60095769 C16.6683044,3.05195769 18.8463044,4.45395769 20.2993044,6.55195769 C23.2903044,10.8729577 22.2233044,16.8339577 17.9223044,19.8399577 C16.5093044,20.8269577 14.8583044,21.4119577 13.1493044,21.5299577 C13.1263044,21.5309577 13.1023044,21.5319577 13.0793044,21.5319577" id="Fill-1" fill="#000000" fill-rule="nonzero"></path>
            </g>
        </g>
    </g>
</svg>