<?xml version="1.0" encoding="UTF-8"?>
<svg width="20px" height="20px" viewBox="0 0 20 20" version="1.1" xmlns="http://www.w3.org/2000/svg" xmlns:xlink="http://www.w3.org/1999/xlink">
    <title>Icon/24/Rupiah</title>
    <g id="Design-System" stroke="none" stroke-width="1" fill="none" fill-rule="evenodd">
        <g id="Icon" transform="translate(-954.000000, -502.000000)">
            <g id="Group" transform="translate(952.000000, 500.000000)">
                <rect id="Rectangle" x="0" y="0" width="24" height="24"></rect>
                <path d="M12,2 C17.514,2 22,6.486 22,12 C22,17.514 17.514,22 12,22 C6.486,22 2,17.514 2,12 C2,6.486 6.486,2 12,2 Z M12,4 C7.589,4 4,7.589 4,12 C4,16.411 7.589,20 12,20 C16.411,20 20,16.411 20,12 C20,7.589 16.411,4 12,4 Z M14.9518,10.1806 C16.0838,10.1806 16.8348,11.0036 16.8348,12.2446 C16.8348,13.4616 16.1058,14.2716 14.9838,14.2716 C14.4608,14.2716 14.0368,14.0636 13.7548,13.6926 L13.7548,15.6666 L12.4678,15.6666 L12.4678,10.2246 L13.7548,10.2246 L13.7548,10.7506 C14.0368,10.3886 14.4468,10.1806 14.9518,10.1806 Z M9.3778,9.0293 C10.7538,9.0293 11.5428,9.6823 11.5428,10.8413 C11.5428,11.6353 11.2078,12.2073 10.5988,12.5113 L11.6928,14.2273 L10.1888,14.2273 L9.4148,12.7643 L8.3738,12.7643 L8.3738,14.2273 L7.0498,14.2273 L7.0498,9.0293 L9.3778,9.0293 Z M14.6408,11.1676 C14.1188,11.1676 13.7548,11.5986 13.7548,12.2066 C13.7548,12.8306 14.1188,13.2536 14.6408,13.2536 C15.1758,13.2536 15.5398,12.8246 15.5398,12.2066 C15.5398,11.5986 15.1758,11.1676 14.6408,11.1676 Z M9.3778,10.0693 L8.3738,10.0693 L8.3738,11.7253 L9.3778,11.7253 C9.9498,11.7253 10.2858,11.4353 10.2858,10.8853 C10.2858,10.3433 9.9498,10.0693 9.3778,10.0693 Z" id="Combined-Shape" fill="#000000" fill-rule="nonzero"></path>
            </g>
        </g>
    </g>
</svg>