<?xml version="1.0" encoding="UTF-8"?>
<svg width="20px" height="20px" viewBox="0 0 20 20" version="1.1" xmlns="http://www.w3.org/2000/svg" xmlns:xlink="http://www.w3.org/1999/xlink">
    <title>Icon/24/Sakuku</title>
    <g id="Design-System" stroke="none" stroke-width="1" fill="none" fill-rule="evenodd">
        <g id="Icon" transform="translate(-250.000000, -606.000000)">
            <g id="Icon/24/Sakuku" transform="translate(248.000000, 604.000000)">
                <rect id="Rectangle" x="0" y="0" width="24" height="24"></rect>
                <path d="M17.572,2 C20.014,2 22,3.986 22,6.428 L22,17.571 C22,20.014 20.014,22 17.572,22 L6.429,22 C3.987,22 2,20.014 2,17.571 L2,6.428 C2,3.986 3.987,2 6.429,2 L17.572,2 Z M17.572,4 L6.429,4 C5.09,4 4,5.089 4,6.428 L4,17.571 C4,18.91 5.09,20 6.429,20 L17.572,20 C18.91,20 20,18.91 20,17.571 L20,6.428 C20,5.089 18.91,4 17.572,4 Z M17.1634,7.7136 C17.7164,7.7136 18.1634,8.1616 18.1634,8.7136 L18.1634,16.2246 C18.1634,16.7776 17.7164,17.2246 17.1634,17.2246 L14.6284,17.2246 C14.0754,17.2246 13.6284,16.7776 13.6284,16.2246 C13.6284,15.6716 14.0754,15.2246 14.6284,15.2246 L16.1634,15.2246 L16.1634,9.7136 L12.9064,9.7136 L12.9064,13.6896 C12.9064,15.6386 11.3204,17.2246 9.3714,17.2246 C7.4224,17.2246 5.8374,15.6386 5.8374,13.6896 L5.8374,8.7136 C5.8374,8.1616 6.2844,7.7136 6.8374,7.7136 C7.3904,7.7136 7.8374,8.1616 7.8374,8.7136 L7.8374,13.6896 C7.8374,14.5366 8.5254,15.2246 9.3714,15.2246 C10.2184,15.2246 10.9064,14.5366 10.9064,13.6896 L10.9064,8.7136 C10.9064,8.1616 11.3534,7.7136 11.9064,7.7136 L17.1634,7.7136 Z" id="Combined-Shape" fill="#000000" fill-rule="nonzero"></path>
            </g>
        </g>
    </g>
</svg>