<?xml version="1.0" encoding="UTF-8"?>
<svg width="20px" height="18px" viewBox="0 0 20 18" version="1.1" xmlns="http://www.w3.org/2000/svg" xmlns:xlink="http://www.w3.org/1999/xlink">
    <title>Icon/24/Scan</title>
    <g id="Design-System" stroke="none" stroke-width="1" fill="none" fill-rule="evenodd">
        <g id="Icon" transform="translate(-1394.000000, -503.000000)">
            <g id="Group" transform="translate(1392.000000, 500.000000)">
                <rect id="Rectangle" x="0" y="0" width="24" height="24"></rect>
                <path d="M19.4998,13.9483 C20.0528,13.9483 20.4998,14.3963 20.4998,14.9483 L20.4998,17.4743 C20.4998,19.4183 18.9178,21.0003 16.9738,21.0003 L6.8688,21.0003 C4.9238,21.0003 3.3418,19.4183 3.3418,17.4743 L3.3418,14.9483 C3.3418,14.3963 3.7888,13.9483 4.3418,13.9483 C4.8948,13.9483 5.3418,14.3963 5.3418,14.9483 L5.3418,17.4743 C5.3418,18.3153 6.0268,19.0003 6.8688,19.0003 L16.9738,19.0003 C17.8158,19.0003 18.4998,18.3153 18.4998,17.4743 L18.4998,14.9483 C18.4998,14.3963 18.9478,13.9483 19.4998,13.9483 Z M20.342,11.0003 C20.895,11.0003 21.342,11.4473 21.342,12.0003 C21.342,12.5533 20.895,13.0003 20.342,13.0003 L3.5,13.0003 C2.947,13.0003 2.5,12.5533 2.5,12.0003 C2.5,11.4473 2.947,11.0003 3.5,11.0003 L20.342,11.0003 Z M16.9742,3 C18.9182,3 20.5002,4.582 20.5002,6.527 L20.5002,9.053 C20.5002,9.606 20.0532,10.053 19.5002,10.053 C18.9472,10.053 18.5002,9.606 18.5002,9.053 L18.5002,6.527 C18.5002,5.685 17.8152,5 16.9742,5 L6.8682,5 C6.0262,5 5.3422,5.685 5.3422,6.527 L5.3422,9.053 C5.3422,9.606 4.8952,10.053 4.3422,10.053 C3.7892,10.053 3.3422,9.606 3.3422,9.053 L3.3422,6.527 C3.3422,4.582 4.9242,3 6.8682,3 L16.9742,3 Z" id="Combined-Shape" fill="#000000" fill-rule="nonzero"></path>
            </g>
        </g>
    </g>
</svg>