<?xml version="1.0" encoding="UTF-8"?>
<svg width="20px" height="18px" viewBox="0 0 20 18" version="1.1" xmlns="http://www.w3.org/2000/svg" xmlns:xlink="http://www.w3.org/1999/xlink">
    <title>Icon/24/Chat/Service</title>
    <g id="Design-System" stroke="none" stroke-width="1" fill="none" fill-rule="evenodd">
        <g id="Icon" transform="translate(-250.000000, -503.000000)">
            <g id="Group" transform="translate(248.000000, 500.000000)">
                <rect id="Rectangle" x="0" y="0" width="24" height="24"></rect>
                <path d="M18.301,3.5 C20.341,3.5 22,5.159 22,7.199 L22,7.199 L22,15.1 C22,17.14 20.341,18.8 18.301,18.8 L18.301,18.8 L7.865,18.8 L6.606,19.863 C6.087,20.302 5.452,20.528 4.808,20.528 C4.407,20.528 4.004,20.44 3.621,20.263 C2.621,19.799 2,18.826 2,17.724 L2,17.724 L2,11.699 C2,11.146 2.447,10.699 3,10.699 C3.553,10.699 4,11.146 4,11.699 L4,11.699 L4,17.724 C4,18.185 4.324,18.385 4.463,18.449 C4.603,18.514 4.963,18.633 5.316,18.335 L5.316,18.335 L6.856,17.035 C7.035,16.884 7.264,16.8 7.5,16.8 L7.5,16.8 L18.301,16.8 C19.238,16.8 20,16.037 20,15.1 L20,15.1 L20,7.199 C20,6.263 19.238,5.5 18.301,5.5 L18.301,5.5 L5.7,5.5 C4.763,5.5 4,6.263 4,7.199 L4,7.199 L4,8.1 C4,8.652 3.553,9.1 3,9.1 C2.447,9.1 2,8.652 2,8.1 L2,8.1 L2,7.199 C2,5.159 3.66,3.5 5.7,3.5 L5.7,3.5 Z M11.6789,14.249 C12.1159,14.249 12.4719,14.604 12.4719,15.042 C12.4719,15.479 12.1159,15.836 11.6789,15.836 C11.2419,15.836 10.8859,15.479 10.8859,15.042 C10.8859,14.604 11.2419,14.249 11.6789,14.249 Z M11.9999,7.0486 C13.3239,7.0486 14.4009,8.1256 14.4009,9.4496 L14.4009,9.4496 L14.4009,9.7486 C14.4009,10.4486 14.0899,11.1026 13.5499,11.5436 L13.5499,11.5436 L13.0079,11.9876 C12.9469,12.0376 12.8889,12.0826 12.8359,12.1246 C12.5589,12.3426 12.4719,12.4206 12.4719,12.5996 L12.4719,12.5996 L12.4719,12.9856 C12.4719,13.4226 12.1169,13.7786 11.6789,13.7786 C11.2419,13.7786 10.8859,13.4226 10.8859,12.9856 L10.8859,12.9856 L10.8859,12.5996 C10.8859,11.9946 11.2729,11.3586 12.0039,10.7596 L12.0039,10.7596 L12.5469,10.3166 C12.7169,10.1766 12.8139,9.9696 12.8139,9.7486 L12.8139,9.7486 L12.8139,9.4496 C12.8139,8.9996 12.4499,8.6356 11.9999,8.6356 C11.7489,8.6356 11.5159,8.7476 11.3609,8.9456 C11.1819,9.1736 10.8479,9.5996 10.3929,9.5996 C10.1529,9.5996 9.9289,9.4916 9.7939,9.3106 C9.6759,9.1536 9.6419,8.9616 9.6989,8.7736 C9.9949,7.7576 10.9419,7.0486 11.9999,7.0486 Z" id="Combined-Shape" fill="#000000" fill-rule="nonzero"></path>
            </g>
        </g>
    </g>
</svg>