<?xml version="1.0" encoding="UTF-8"?>
<svg width="20px" height="20px" viewBox="0 0 20 20" version="1.1" xmlns="http://www.w3.org/2000/svg" xmlns:xlink="http://www.w3.org/1999/xlink">
    <title>Icon/24/Share</title>
    <g id="Design-System" stroke="none" stroke-width="1" fill="none" fill-rule="evenodd">
        <g id="Icon" transform="translate(-338.000000, -606.000000)">
            <g id="Icon/24/Share" transform="translate(336.000000, 604.000000)">
                <rect id="Rectangle" x="0" y="0" width="24" height="24"></rect>
                <path d="M18.75,19.510367 C18.061,19.510367 17.5,18.9293942 17.5,18.215116 C17.5,17.5008377 18.061,16.9198649 18.75,16.9198649 C19.439,16.9198649 20,17.5008377 20,18.215116 C20,18.9293942 19.439,19.510367 18.75,19.510367 M5.25,12.9684538 C4.561,12.9684538 4,12.387481 4,11.6732028 C4,10.9589246 4.561,10.3779517 5.25,10.3779517 C5.939,10.3779517 6.5,10.9589246 6.5,11.6732028 C6.5,12.387481 5.939,12.9684538 5.25,12.9684538 M18.75,4.48963297 C19.439,4.48963297 20,5.07060579 20,5.78488403 C20,6.49916226 19.439,7.08013509 18.75,7.08013509 C18.061,7.08013509 17.5,6.49916226 17.5,5.78488403 C17.5,5.07060579 18.061,4.48963297 18.75,4.48963297 M18.75,14.9302319 C17.894,14.9302319 17.118,15.2734436 16.537,15.8235772 L8.466,12.0094508 C8.478,11.8980313 8.5,11.7876067 8.5,11.6732028 C8.5,11.5578041 8.478,11.4483743 8.466,11.3349652 L16.132,7.71383318 C16.724,8.53157233 17.673,9.06976805 18.75,9.06976805 C20.542,9.06976805 22,7.59545002 22,5.78488403 C22,3.97431803 20.542,2.5 18.75,2.5 C16.958,2.5 15.5,3.97431803 15.5,5.78488403 C15.5,5.79284256 15.502,5.79980627 15.503,5.80875962 L7.674,9.5074873 C7.078,8.82703283 6.218,8.38831876 5.25,8.38831876 C3.458,8.38831876 2,9.86263679 2,11.6732028 C2,13.4837688 3.458,14.9580868 5.25,14.9580868 C6.218,14.9580868 7.079,14.5193727 7.675,13.8379235 L15.565,17.5664956 C15.523,17.7764019 15.5,17.9942667 15.5,18.215116 C15.5,20.0266768 16.958,21.5 18.75,21.5 C20.542,21.5 22,20.0266768 22,18.215116 C22,16.40455 20.542,14.9302319 18.75,14.9302319" id="Fill-1" fill="#000000" fill-rule="nonzero"></path>
            </g>
        </g>
    </g>
</svg>