<?xml version="1.0" encoding="UTF-8"?>
<svg width="20px" height="20px" viewBox="0 0 20 20" version="1.1" xmlns="http://www.w3.org/2000/svg" xmlns:xlink="http://www.w3.org/1999/xlink">
    <title>Icon/24/Shop</title>
    <g id="Design-System" stroke="none" stroke-width="1" fill="none" fill-rule="evenodd">
        <g id="Icon" transform="translate(-338.000000, -710.000000)">
            <g id="Icon/24/Shop" transform="translate(336.000000, 708.000000)">
                <rect id="Rectangle" x="0" y="0" width="24" height="24"></rect>
                <path d="M20.5652331,7.218 C20.0492331,6.626 19.3042331,6.286 18.5192331,6.286 L16.6802331,6.286 C16.2492331,3.849 14.2802331,2 11.9172331,2 C9.55223309,2 7.58423309,3.849 7.15223309,6.286 L5.31423309,6.286 C4.52823309,6.286 3.78223309,6.626 3.26623309,7.219 C2.75123309,7.812 2.51723309,8.597 2.62623309,9.374 L3.12823309,12.995 C3.19823309,13.495 3.62723309,13.858 4.11823309,13.858 C4.16423309,13.858 4.21023309,13.855 4.25623309,13.848 C4.80323309,13.772 5.18523309,13.267 5.10923309,12.72 L4.60623309,9.099 C4.56723309,8.819 4.69523309,8.623 4.77523309,8.531 C4.85523309,8.441 5.03123309,8.286 5.31423309,8.286 L11.4882331,8.286 C12.0412331,8.286 12.4882331,7.839 12.4882331,7.286 C12.4882331,6.734 12.0412331,6.286 11.4882331,6.286 L9.20923309,6.286 C9.58023309,4.965 10.6462331,4 11.9172331,4 C13.2682331,4 14.3982331,5.089 14.6932331,6.542 C14.4842331,6.726 14.3452331,6.987 14.3452331,7.286 C14.3452331,7.839 14.7932331,8.286 15.3452331,8.286 L18.5192331,8.286 C18.8012331,8.286 18.9782331,8.44 19.0572331,8.531 C19.1372331,8.623 19.2652331,8.82 19.2272331,9.099 L17.7982331,19.384 C17.7502331,19.736 17.4452331,20 17.0902331,20 L6.74323309,20 C6.38823309,20 6.08423309,19.736 6.03523309,19.384 L5.62123309,16.406 C5.54423309,15.859 5.04023309,15.472 4.49323309,15.553 C3.94623309,15.629 3.56423309,16.134 3.64023309,16.681 L4.05423309,19.658 C4.23923309,20.993 5.39423309,22 6.74323309,22 L17.0902331,22 C18.4372331,22 19.5932331,20.994 19.7792331,19.659 L21.2082331,9.373 C21.3162331,8.596 21.0822331,7.81 20.5652331,7.218" id="Fill-1" fill="#000000" fill-rule="nonzero"></path>
            </g>
        </g>
    </g>
</svg>