<?xml version="1.0" encoding="UTF-8"?>
<svg width="14px" height="18px" viewBox="0 0 14 18" version="1.1" xmlns="http://www.w3.org/2000/svg" xmlns:xlink="http://www.w3.org/1999/xlink">
    <title>Icon/24/Simcard</title>
    <g id="Design-System" stroke="none" stroke-width="1" fill="none" fill-rule="evenodd">
        <g id="Icon" transform="translate(-1045.000000, -503.000000)">
            <g id="Group" transform="translate(1040.000000, 500.000000)">
                <rect id="Rectangle" x="0" y="0" width="24" height="24"></rect>
                <path d="M7.579,2.9999 C8.131,2.9999 8.579,3.4469 8.579,3.9999 C8.579,4.5529 8.131,4.9999 7.579,4.9999 L7.579,4.9999 L7.1,4.9999 L7.1,17.9129 C7.1,18.5129 7.587,18.9999 8.187,18.9999 L8.187,18.9999 L15.839,18.9999 C16.439,18.9999 16.926,18.5129 16.926,17.9129 L16.926,17.9129 L16.926,8.0179 C16.926,7.7429 16.824,7.4819 16.637,7.2789 L16.637,7.2789 L14.855,5.3499 C14.649,5.1279 14.358,4.9999 14.056,4.9999 L14.056,4.9999 L10.535,4.9999 C9.982,4.9999 9.535,4.5529 9.535,3.9999 C9.535,3.4469 9.982,2.9999 10.535,2.9999 L10.535,2.9999 L14.056,2.9999 C14.913,2.9999 15.739,3.3609 16.323,3.9909 L16.323,3.9909 L18.106,5.9219 C18.635,6.4939 18.926,7.2379 18.926,8.0179 L18.926,8.0179 L18.926,17.9129 C18.926,19.6149 17.542,20.9999 15.839,20.9999 L15.839,20.9999 L8.187,20.9999 C6.485,20.9999 5.1,19.6149 5.1,17.9129 L5.1,17.9129 L5.1,4.6959 C5.1,3.7609 5.861,2.9999 6.795,2.9999 L6.795,2.9999 Z M14.4473,9.7619 C15.1073,9.7619 15.6433,10.2979 15.6433,10.9569 L15.6433,10.9569 L15.6433,16.5229 C15.6433,17.1819 15.1073,17.7179 14.4473,17.7179 L14.4473,17.7179 L9.5783,17.7179 C8.9193,17.7179 8.3823,17.1819 8.3823,16.5229 L8.3823,16.5229 L8.3823,10.9569 C8.3823,10.2979 8.9193,9.7619 9.5783,9.7619 L9.5783,9.7619 Z M10.4693,15.6309 L9.3823,15.6309 L9.3823,16.5229 C9.3823,16.6299 9.4703,16.7179 9.5783,16.7179 L9.5783,16.7179 L10.4693,16.7179 L10.4693,15.6309 Z M12.5563,10.7619 L9.5783,10.7619 C9.4703,10.7619 9.3823,10.8499 9.3823,10.9569 L9.3823,10.9569 L9.3823,12.5439 L10.9693,12.5439 C11.2453,12.5439 11.4693,12.7679 11.4693,13.0439 L11.4693,13.0439 L11.4693,16.7179 L12.5563,16.7179 L12.5563,10.7619 Z M14.6433,15.2829 L13.5563,15.2829 L13.5563,16.7179 L14.4473,16.7179 C14.5553,16.7179 14.6433,16.6299 14.6433,16.5229 L14.6433,16.5229 L14.6433,15.2829 Z M10.4693,13.5439 L9.3823,13.5439 L9.3823,14.6309 L10.4693,14.6309 L10.4693,13.5439 Z M14.6433,13.1959 L13.5563,13.1959 L13.5563,14.2829 L14.6433,14.2829 L14.6433,13.1959 Z M14.4473,10.7619 L13.5563,10.7619 L13.5563,12.1959 L14.6433,12.1959 L14.6433,10.9569 C14.6433,10.8499 14.5553,10.7619 14.4473,10.7619 L14.4473,10.7619 Z" id="Combined-Shape" fill="#000000" fill-rule="nonzero"></path>
            </g>
        </g>
    </g>
</svg>