<?xml version="1.0" encoding="UTF-8"?>
<svg width="20px" height="20px" viewBox="0 0 20 20" version="1.1" xmlns="http://www.w3.org/2000/svg" xmlns:xlink="http://www.w3.org/1999/xlink">
    <title>Icon/24/Smartcoin</title>
    <g id="Design-System" stroke="none" stroke-width="1" fill="none" fill-rule="evenodd">
        <g id="Icon" transform="translate(-162.000000, -502.000000)">
            <g id="Group" transform="translate(160.000000, 500.000000)">
                <rect id="Rectangle" x="0" y="0" width="24" height="24"></rect>
                <path d="M12,2 C17.514,2 22,6.486 22,12 C22,17.514 17.514,22 12,22 C6.486,22 2,17.514 2,12 C2,6.486 6.486,2 12,2 Z M12,4 C7.589,4 4,7.589 4,12 C4,16.411 7.589,20 12,20 C16.411,20 20,16.411 20,12 C20,7.589 16.411,4 12,4 Z M15.2604,6.9945 C15.8730154,6.99619231 16.0632047,7.02079586 16.1569025,7.0416543 L16.2004,7.0525 L16.2904,7.0765 C16.7344,7.1975 17.0324,7.6215 17.0044,8.0895 L17.0044,8.0895 L16.9854,8.4155 C16.9584,8.8665 16.8804,9.3835 16.5284,9.7545 C16.5714,9.8515 16.6034,9.9555 16.6144,10.0665 L16.6144,10.0665 L16.6334,10.2815 C16.6414,10.3615 16.6494,10.5825 16.6294,10.8335 C16.6084,11.0835 16.5594,11.3715 16.4524,11.5765 C16.3554,11.7615 16.2104,11.9065 16.1534,11.9585 C15.8884,12.2065 15.6274,12.2595 15.2284,12.2785 L15.2284,12.2785 L15.2284,15.4805 C15.2284,16.0255 14.7974,16.4675 14.2664,16.4675 L14.2664,16.4675 L12.8994,16.4675 C12.6434,16.4675 12.3984,16.3635 12.2174,16.1775 L12.2174,16.1775 L12.1315875,16.07325 C12.0543375,15.963375 12.0024,15.83775 11.9724,15.7065 C11.4194,16.1955 10.6504,16.4645 9.7124,16.4645 C9.4254,16.4645 9.1244,16.4415 8.8154,16.3945 C8.6264,16.3715 8.3064,16.3165 7.9784,16.2015 C7.6514,16.0855 7.3104,15.9075 7.0844,15.6305 L7.0844,15.6305 C6.7864,15.2675 6.6844,14.7695 6.7924,14.2305 C6.9084,13.6565 7.1124,13.3195 7.3344,13.1235 C7.0274,12.7105 6.8654,12.2015 6.8654,11.6305 C6.8654,10.9085 7.1204,10.2945 7.6244,9.8125 C8.1944,9.2635 9.0144,8.9755 9.9904,8.9755 C10.3704,8.9755 10.7704,9.0195 11.1824,9.1065 C11.5474,9.1835 11.8074,9.2725 12.0074,9.3675 C12.0464,9.0545 12.1124,8.8965 12.2274,8.6535 L12.2274,8.6535 L12.2554,8.5935 C12.4814,8.1075 12.9624,7.6115 13.4544,7.3575 C14.0504,7.0485 14.5084,6.9945 15.2414,6.9945 L15.2414,6.9945 Z M15.2594,8.0215 L15.2414,8.0215 C14.8994,8.0215 14.6634,8.0355 14.4634,8.0735 C14.2644,8.1115 14.1004,8.1725 13.9054,8.2735 C13.6124,8.4255 13.2904,8.7545 13.1614,9.0335 C13.1064,9.1545 13.0674,9.2245 13.0394,9.3205 C13.0114,9.4145 12.9934,9.5315 12.9794,9.7385 C12.9544,10.1525 12.9554,10.9145 12.9494,12.5425 L12.9494,12.5425 L12.9404,15.4395 L14.2254,15.4395 L14.2254,11.2735 L14.2654,11.2725 L14.8524,11.2615 C15.1204,11.2565 15.2654,11.2515 15.3524,11.2425 C15.3954,11.2385 15.4224,11.2325 15.4384,11.2255 C15.4554,11.2185 15.4664,11.2105 15.4794,11.1995 C15.5144,11.1665 15.5554,11.1175 15.5674,11.0935 C15.5774,11.0735 15.5884,11.0345 15.5994,10.9775 C15.6104,10.9215 15.6204,10.8555 15.6264,10.7835 C15.6414,10.6405 15.6454,10.4845 15.6354,10.3805 L15.6354,10.3805 L15.6194,10.2025 L14.2254,10.2025 L14.2254,10.0075 C14.2254,9.6545 14.3714,9.3655 14.6314,9.2245 C14.7514,9.1605 14.8484,9.1485 15.2624,9.1345 C15.4954,9.1255 15.6154,9.1215 15.6864,9.1095 C15.7204,9.1035 15.7414,9.0955 15.7564,9.0875 C15.7724,9.0805 15.7854,9.0685 15.8024,9.0505 C15.8494,9.0045 15.8894,8.9295 15.9214,8.8135 C15.9524,8.6985 15.9724,8.5455 15.9844,8.3535 L15.9844,8.3535 L16.0024,8.0605 L15.9444,8.0445 C15.9364,8.0435 15.9124,8.0415 15.8694,8.0375 C15.8284,8.0355 15.7744,8.0315 15.7124,8.0295 C15.5864,8.0255 15.4254,8.0215 15.2594,8.0215 L15.2594,8.0215 Z M9.9904,10.0035 C9.2764,10.0035 8.6904,10.1965 8.3094,10.5615 C8.0064,10.8525 7.8684,11.1875 7.8684,11.6305 C7.8684,12.0545 8.0034,12.4025 8.2624,12.6545 C8.5594,12.9425 8.8444,13.0685 9.5904,13.2305 C9.9374,13.3065 10.1594,13.3705 10.2944,13.4515 C10.3624,13.4925 10.4114,13.5395 10.4424,13.5965 C10.4734,13.6535 10.4854,13.7165 10.4864,13.7885 C10.4904,13.9475 10.4344,14.0705 10.3094,14.1545 C10.1874,14.2345 10.0044,14.2765 9.7564,14.2905 C9.7004,14.2935 9.6434,14.2945 9.5864,14.2945 C9.1364,14.2945 8.6704,14.1995 8.2604,14.0175 C8.1334,13.9625 8.0214,13.9135 7.9874,13.8985 C7.9814,13.9055 7.9734,13.9155 7.9634,13.9315 C7.9424,13.9635 7.9194,14.0105 7.8944,14.0675 C7.8454,14.1785 7.7974,14.3205 7.7744,14.4375 C7.7274,14.6735 7.7584,14.8555 7.8524,14.9705 C7.9204,15.0525 8.0664,15.1395 8.2644,15.2145 C8.4614,15.2875 8.7014,15.3455 8.9494,15.3765 L8.9494,15.3765 L8.9504,15.3765 L9.20191852,15.4092037 C9.37095556,15.4272778 9.54206667,15.4375 9.7114,15.4375 C10.5484,15.4375 11.3404,15.1905 11.6984,14.4415 C11.7624,14.2515 11.7884,13.9985 11.7764,13.7445 C11.7644,13.4915 11.7164,13.2455 11.6384,13.0745 C11.4164,12.5855 10.9544,12.3125 9.9364,12.0955 C9.6144,12.0285 9.4114,11.9705 9.2894,11.8945 C9.2254,11.8535 9.1824,11.8085 9.1554,11.7515 C9.1294,11.6965 9.1204,11.6325 9.1204,11.5625 C9.1204,11.4585 9.1504,11.3715 9.2134,11.2985 C9.2754,11.2275 9.3674,11.1755 9.4834,11.1415 C9.5814,11.1115 9.7334,11.0995 9.9014,11.0995 C10.1704,11.0995 10.4924,11.1325 10.7224,11.1915 C10.9064,11.2405 11.0554,11.2635 11.1714,11.2635 C11.2694,11.2635 11.3384,11.2465 11.3794,11.2165 L11.3794,11.2165 L11.3992148,11.2005 C11.4141778,11.1860556 11.4324,11.1645 11.4524,11.1385 C11.4794,11.1005 11.5074,11.0545 11.5284,11.0115 C11.5694,10.9255 11.6164,10.7725 11.6494,10.6305 C11.6664,10.5605 11.6784,10.4945 11.6864,10.4415 C11.6894,10.4155 11.6914,10.3925 11.6924,10.3745 C11.6924,10.3675 11.6924,10.3595 11.6914,10.3555 C11.6914,10.3515 11.6904,10.3515 11.6904,10.3495 C11.6884,10.3485 11.6864,10.3465 11.6814,10.3425 C11.6714,10.3355 11.6554,10.3265 11.6334,10.3165 C11.5914,10.2945 11.5324,10.2725 11.4634,10.2485 C11.3244,10.1995 11.1454,10.1475 10.9794,10.1135 C10.6304,10.0395 10.2984,10.0035 9.9904,10.0035 Z" id="Combined-Shape" fill="#000000" fill-rule="nonzero"></path>
            </g>
        </g>
    </g>
</svg>