<?xml version="1.0" encoding="UTF-8"?>
<svg width="18px" height="17px" viewBox="0 0 18 17" version="1.1" xmlns="http://www.w3.org/2000/svg" xmlns:xlink="http://www.w3.org/1999/xlink">
    <title>Other/Switch</title>
    <defs>
        <path d="M7.40001065,13.2001763 C7.84300963,12.8691837 8.46900818,12.9581817 8.80000741,13.4001717 C9.13100665,13.8421618 9.04200685,14.4691476 8.60000788,14.8001401 L8.60000788,14.8001401 L7.00001158,16.000113 L19.9999815,16.000113 C20.5519802,16.000113 20.9999792,16.4471029 20.9999792,17.0000904 C20.9999792,17.5530779 20.5519802,18.0000678 19.9999815,18.0000678 L19.9999815,18.0000678 L6.91801177,18.0000678 L8.47600816,19.2100405 C8.91200715,19.5490328 8.99100697,20.1780186 8.65200775,20.6130087 C8.45500821,20.867003 8.16000889,21 7.86200958,21 C7.64701008,21 7.43101058,20.9320015 7.249011,20.7900047 L7.249011,20.7900047 L3.38701995,17.7900725 C3.14002052,17.5990769 2.99802085,17.3040835 3,16.9910906 C3.00202084,16.6800976 3.1500205,16.3871042 3.40001992,16.2001085 L3.40001992,16.2001085 Z M15.3479922,4.38737543 C15.6869915,3.95038531 16.31599,3.87138709 16.750989,4.21037943 L16.750989,4.21037943 L20.6129801,7.21031163 C20.8599795,7.40130732 21.0019791,7.69630065 21,8.00929358 C20.9979792,8.32028655 20.8499795,8.61327993 20.5999801,8.8002757 L20.5999801,8.8002757 L16.5999893,11.8002079 C16.4199898,11.9352049 16.2089903,12.0002034 16.0009907,12.0002034 C15.6969914,12.0002034 15.3959921,11.8622065 15.1999926,11.6002124 C14.8689934,11.1582224 14.9579931,10.5312366 15.3999921,10.2002441 L15.3999921,10.2002441 L16.9999884,9.00027118 L4.00002085,9.00027118 C3.44801981,9.00027118 3.00002085,8.55328128 3.00002085,8.00029378 C3.00002085,7.44730628 3.44801981,7.00031638 4.00002085,7.00031638 L4.00002085,7.00031638 L17.0819882,7.00031638 L15.5239918,5.79034372 C15.0879928,5.45135139 15.008993,4.8223656 15.3479922,4.38737543 Z" id="path-1"></path>
    </defs>
    <g id="Design-System" stroke="none" stroke-width="1" fill="none" fill-rule="evenodd">
        <g id="Icon" transform="translate(-979.000000, -3138.000000)">
            <g id="Group" transform="translate(976.000000, 3134.000000)">
                <rect id="Rectangle-Copy-125" x="0" y="0" width="24" height="24"></rect>
                <mask id="mask-2" fill="white">
                    <use xlink:href="#path-1"></use>
                </mask>
                <use id="🎨-Icon-Сolor" fill="#000000" xlink:href="#path-1"></use>
            </g>
        </g>
    </g>
</svg>