<?xml version="1.0" encoding="UTF-8"?>
<svg width="20px" height="20px" viewBox="0 0 20 20" version="1.1" xmlns="http://www.w3.org/2000/svg" xmlns:xlink="http://www.w3.org/1999/xlink">
    <title>Icon/24/Tooltips</title>
    <g id="Design-System" stroke="none" stroke-width="1" fill="none" fill-rule="evenodd">
        <g id="Icon" transform="translate(-162.000000, -606.000000)">
            <g id="Icon/24/Tooltips" transform="translate(160.000000, 604.000000)">
                <rect id="Rectangle" x="0" y="0" width="24" height="24"></rect>
                <path d="M12,7.4335 C12.956,7.4335 13.889,7.7015 14.695,8.2095 C15.163,8.5045 15.304,9.1215 15.01,9.5885 C14.716,10.0585 14.099,10.1965 13.631,9.9025 C13.143,9.5955 12.579,9.4335 12,9.4335 C10.305,9.4335 8.925,10.8135 8.925,12.5125 C8.925,13.4465 9.293,14.4205 9.861,14.9915 C10.2976293,15.4296298 10.6409534,15.949558 10.8750831,16.5126253 L13.125208,16.5128749 C13.3592033,15.950442 13.7021292,15.4308701 14.138,14.9925 C14.708,14.4205 15.076,13.4475 15.076,12.5125 C15.076,12.0645 14.982,11.6345 14.797,11.2305 C14.565,10.7295 14.785,10.1355 15.287,9.9045 C15.789,9.6745 16.383,9.8935 16.613,10.3955 C16.921,11.0625 17.076,11.7735 17.076,12.5125 C17.076,13.9935 16.508,15.4485 15.555,16.4035 C15.054,16.9075 14.766,17.5965 14.766,18.2915 L14.766,18.7765 C14.766,20.3025 13.525,21.5425 12,21.5425 C10.475,21.5425 9.234,20.3025 9.234,18.7765 L9.234,18.2915 C9.234,17.5955 8.946,16.9075 8.444,16.4035 C7.507,15.4625 6.925,13.9715 6.925,12.5125 C6.925,9.7115 9.201,7.4335 12,7.4335 Z M12.7697,18.113 L11.2304667,18.1135174 C11.2328174,18.1727786 11.234,18.232118 11.234,18.2915 L11.234,18.7765 C11.234,19.1985 11.578,19.5425 12,19.5425 C12.422,19.5425 12.766,19.1985 12.766,18.7765 L12.766,18.2915 L12.7697,18.113 Z M4.9687,11.439 C5.5217,11.439 5.9687,11.886 5.9687,12.439 C5.9687,12.992 5.5217,13.439 4.9687,13.439 L2.9997,13.439 C2.4477,13.439 1.9997,12.992 1.9997,12.439 C1.9997,11.886 2.4477,11.439 2.9997,11.439 L4.9687,11.439 Z M21,11.439 C21.553,11.439 22,11.886 22,12.439 C22,12.992 21.553,13.439 21,13.439 L19.031,13.439 C18.479,13.439 18.031,12.992 18.031,12.439 C18.031,11.886 18.479,11.439 19.031,11.439 L21,11.439 Z M6.022,5.2652 L7.147,6.6272 C7.498,7.0532 7.438,7.6832 7.012,8.0352 C6.825,8.1892 6.6,8.2642 6.376,8.2642 C6.088,8.2642 5.802,8.1402 5.604,7.9012 L4.479,6.5382 C4.127,6.1132 4.188,5.4832 4.613,5.1302 C5.04,4.7802 5.67,4.8412 6.022,5.2652 Z M19.387,5.1302 C19.812,5.4832 19.873,6.1132 19.521,6.5382 L18.396,7.9012 C18.198,8.1402 17.912,8.2642 17.624,8.2642 C17.4,8.2642 17.175,8.1892 16.988,8.0352 C16.562,7.6832 16.502,7.0532 16.853,6.6272 L17.978,5.2652 C18.33,4.8402 18.96,4.7792 19.387,5.1302 Z M12,2.45 C12.553,2.45 13,2.897 13,3.45 L13,5.357 C13,5.91 12.553,6.357 12,6.357 C11.447,6.357 11,5.91 11,5.357 L11,3.45 C11,2.897 11.447,2.45 12,2.45 Z" id="Combined-Shape" fill="#000000" fill-rule="nonzero"></path>
            </g>
        </g>
    </g>
</svg>