<?xml version="1.0" encoding="UTF-8"?>
<svg width="20px" height="20px" viewBox="0 0 20 20" version="1.1" xmlns="http://www.w3.org/2000/svg" xmlns:xlink="http://www.w3.org/1999/xlink">
    <title>Icon/24/Topup</title>
    <g id="Design-System" stroke="none" stroke-width="1" fill="none" fill-rule="evenodd">
        <g id="Icon" transform="translate(-1306.000000, -398.000000)">
            <g id="Group" transform="translate(1304.000000, 396.000000)">
                <rect id="Rectangle" x="0" y="0" width="24" height="24"></rect>
                <path d="M12.473,4.8426 C13.026,4.8426 13.473,5.2906 13.473,5.8426 C13.473,6.3956 13.026,6.8426 12.473,6.8426 L12.473,6.8426 L5.7,6.8426 C4.762,6.8426 4,7.6056 4,8.5426 L4,8.5426 L4,18.2996 C4,19.2376 4.762,20.0006 5.7,20.0006 L5.7,20.0006 L15.458,20.0006 C16.394,20.0006 17.157,19.2376 17.157,18.2996 L17.157,18.2996 L17.157,11.5266 C17.157,10.9736 17.604,10.5266 18.157,10.5266 C18.71,10.5266 19.157,10.9736 19.157,11.5266 L19.157,11.5266 L19.157,18.2996 C19.157,20.3396 17.498,22.0006 15.458,22.0006 L15.458,22.0006 L5.7,22.0006 C3.66,22.0006 2,20.3396 2,18.2996 L2,18.2996 L2,8.5426 C2,6.5026 3.66,4.8426 5.7,4.8426 L5.7,4.8426 Z M13.7233,12.0593 C14.7513,12.0593 15.4343,12.8083 15.4343,13.9353 C15.4343,15.0423 14.7713,15.7773 13.7513,15.7773 C13.2773,15.7773 12.8913,15.5883 12.6343,15.2513 L12.6343,15.2513 L12.6343,17.0463 L11.4643,17.0463 L11.4643,12.0993 L12.6343,12.0993 L12.6343,12.5773 C12.8913,12.2473 13.2633,12.0593 13.7233,12.0593 Z M8.6551,11.0121 C9.9061,11.0121 10.6231,11.6071 10.6231,12.6591 C10.6231,13.3821 10.3191,13.9001 9.7641,14.1771 L9.7641,14.1771 L10.7591,15.7371 L9.3921,15.7371 L8.6881,14.4071 L7.7421,14.4071 L7.7421,15.7371 L6.5391,15.7371 L6.5391,11.0121 Z M13.4393,12.9563 C12.9653,12.9563 12.6343,13.3473 12.6343,13.9003 C12.6343,14.4683 12.9653,14.8523 13.4393,14.8523 C13.9263,14.8523 14.2573,14.4623 14.2573,13.9003 C14.2573,13.3473 13.9263,12.9563 13.4393,12.9563 Z M8.6551,11.9571 L7.7421,11.9571 L7.7421,13.4621 L8.6551,13.4621 C9.1761,13.4621 9.4801,13.1981 9.4801,12.6991 C9.4801,12.2061 9.1761,11.9571 8.6551,11.9571 L8.6551,11.9571 Z M18.1568,2 C18.7098,2 19.1568,2.447 19.1568,3 L19.1568,3 L19.1568,4.843 L20.9998,4.843 C21.5528,4.843 21.9998,5.29 21.9998,5.843 C21.9998,6.396 21.5528,6.843 20.9998,6.843 L20.9998,6.843 L19.1568,6.843 L19.1568,8.685 C19.1568,9.238 18.7098,9.685 18.1568,9.685 C17.6038,9.685 17.1568,9.238 17.1568,8.685 L17.1568,8.685 L17.1568,6.843 L15.3148,6.843 C14.7628,6.843 14.3148,6.396 14.3148,5.843 C14.3148,5.29 14.7628,4.843 15.3148,4.843 L15.3148,4.843 L17.1568,4.843 L17.1568,3 C17.1568,2.447 17.6038,2 18.1568,2 Z" id="Combined-Shape" fill="#000000" fill-rule="nonzero"></path>
            </g>
        </g>
    </g>
</svg>