<?xml version="1.0" encoding="UTF-8"?>
<svg width="18px" height="18px" viewBox="0 0 18 18" version="1.1" xmlns="http://www.w3.org/2000/svg" xmlns:xlink="http://www.w3.org/1999/xlink">
    <title>Icon/24/Translate</title>
    <g id="Design-System" stroke="none" stroke-width="1" fill="none" fill-rule="evenodd">
        <g id="Icon" transform="translate(-1219.000000, -503.000000)">
            <g id="Group" transform="translate(1216.000000, 500.000000)">
                <rect id="Rectangle" x="0" y="0" width="24" height="24"></rect>
                <path d="M14.471,3.5 C15.024,3.5 15.471,3.947 15.471,4.5 C15.471,5.053 15.024,5.5 14.471,5.5 L14.471,5.5 L6.416,5.5 C5.635,5.5 5,6.135 5,6.916 L5,6.916 L5,18.23 L7.576,17.023 C7.708,16.961 7.854,16.929 8,16.929 L8,16.929 L17.583,16.929 C18.365,16.929 19,16.294 19,15.513 L19,15.513 L19,6.111 C19,5.774 18.726,5.5 18.389,5.5 L18.389,5.5 L17.638,5.5 C17.085,5.5 16.638,5.053 16.638,4.5 C16.638,3.947 17.085,3.5 17.638,3.5 L17.638,3.5 L18.389,3.5 C19.828,3.5 21,4.672 21,6.111 L21,6.111 L21,15.513 C21,17.396 19.467,18.929 17.583,18.929 L17.583,18.929 L8.223,18.929 L5.573,20.171 C5.327,20.286 5.065,20.344 4.804,20.344 C4.468,20.344 4.133,20.248 3.837,20.061 C3.314,19.728 3,19.158 3,18.537 L3,18.537 L3,6.916 C3,5.032 4.533,3.5 6.416,3.5 L6.416,3.5 Z M13.6661,7.8771 C14.0261,7.8771 14.3171,8.1681 14.3171,8.5271 L14.3171,8.5271 L14.3171,9.5721 L17.1331,9.5721 C17.4921,9.5721 17.7831,9.8631 17.7831,10.2231 C17.7831,10.5821 17.4921,10.8731 17.1331,10.8731 L17.1331,10.8731 L16.2951,10.8731 C16.2451,11.7631 15.8981,12.5671 15.3451,13.1981 C15.4471,13.2201 15.5541,13.2311 15.6621,13.2311 L15.6621,13.2311 L17.1331,13.2311 C17.4921,13.2311 17.7831,13.5221 17.7831,13.8821 C17.7831,14.2411 17.4921,14.5321 17.1331,14.5321 L17.1331,14.5321 L15.6621,14.5321 C15.1161,14.5321 14.6121,14.3701 14.1791,14.1031 C13.6541,14.3681 13.0711,14.5321 12.4451,14.5321 L12.4451,14.5321 L12.0001,14.5321 C11.6411,14.5321 11.3501,14.2411 11.3501,13.8821 C11.3501,13.5221 11.6411,13.2311 12.0001,13.2311 L12.0001,13.2311 L12.4451,13.2311 C12.7121,13.2311 12.9661,13.1791 13.2081,13.1021 C12.9661,12.6841 12.8171,12.2041 12.8171,11.6861 C12.8171,11.3271 13.1081,11.0361 13.4671,11.0361 C13.8261,11.0361 14.1171,11.3271 14.1171,11.6861 C14.1171,11.9531 14.1911,12.2001 14.3101,12.4191 C14.6981,12.0081 14.9451,11.4701 14.9941,10.8731 L14.9941,10.8731 L12.0001,10.8731 C11.6411,10.8731 11.3501,10.5821 11.3501,10.2231 C11.3501,9.8631 11.6411,9.5721 12.0001,9.5721 L12.0001,9.5721 L13.0161,9.5721 L13.0161,8.5271 C13.0161,8.1681 13.3071,7.8771 13.6661,7.8771 Z M9.4443,8.1082 L11.1843,9.4092 L11.1843,13.1502 C11.1843,13.5102 10.8933,13.8012 10.5333,13.8012 C10.1743,13.8012 9.8833,13.5102 9.8833,13.1502 L9.8833,13.1502 L9.8833,12.3372 L8.2503,12.3372 L8.2503,13.1502 C8.2503,13.5102 7.9593,13.8012 7.6003,13.8012 C7.2403,13.8012 6.9493,13.5102 6.9493,13.1502 L6.9493,13.1502 L6.9493,9.1082 C6.9493,8.55591525 7.39701525,8.1082 7.9493,8.1082 L7.9493,8.1082 L9.4443,8.1082 Z M9.0133,9.4092 L8.2503,9.4092 L8.2503,11.0362 L9.8833,11.0362 L9.8833,10.0592 L9.0133,9.4092 Z" id="Combined-Shape" fill="#000000" fill-rule="nonzero"></path>
            </g>
        </g>
    </g>
</svg>