<?xml version="1.0" encoding="UTF-8"?>
<svg width="20px" height="20px" viewBox="0 0 20 20" version="1.1" xmlns="http://www.w3.org/2000/svg" xmlns:xlink="http://www.w3.org/1999/xlink">
    <title>Icon/24/Travel</title>
    <g id="Design-System" stroke="none" stroke-width="1" fill="none" fill-rule="evenodd">
        <g id="Icon" transform="translate(-426.000000, -710.000000)">
            <g id="Icon/24/Travel" transform="translate(424.000000, 708.000000)">
                <rect id="Rectangle" x="0" y="0" width="24" height="24"></rect>
                <path d="M6.8894,2.41 C6.6114,2.41 6.3514,2.549 6.1974,2.779 C6.0414,3.011 6.0124,3.304 6.1184,3.56 L8.5994,9.595 L6.1274,9.595 L4.8874,8.393 C4.7324,8.242 4.5244,8.158 4.3084,8.158 L3.6664,8.158 C2.7454,8.158 1.9994,8.904 1.9994,9.825 L1.9994,11.644 L1.9994,12.345 L1.9994,14.164 C1.9994,15.085 2.7454,15.83 3.6664,15.83 L4.3104,15.83 C4.5274,15.83 4.7364,15.746 4.8914,15.595 L6.1254,14.393 L8.5994,14.393 L6.1184,20.429 C6.0124,20.684 6.0414,20.978 6.1974,21.209 C6.3514,21.439 6.6114,21.578 6.8894,21.578 L10.0314,21.578 C10.3114,21.578 10.5724,21.437 10.7264,21.204 L15.2154,14.393 L17.6594,14.393 C19.1784,14.393 20.6374,13.801 21.7264,12.741 L21.7474,12.721 C21.9494,12.524 22.0304,12.252 21.9904,11.995 C22.0304,11.736 21.9494,11.464 21.7474,11.268 L21.7264,11.247 C20.6374,10.188 19.1784,9.595 17.6594,9.595 L14.7664,9.595 C14.3064,9.595 13.9334,9.969 13.9334,10.429 C13.9334,10.889 14.3064,11.262 14.7664,11.262 L17.6594,11.262 C18.5064,11.262 19.3284,11.52 20.0184,11.995 C19.3284,12.469 18.5064,12.727 17.6594,12.727 L14.7664,12.727 C14.4864,12.727 14.2254,12.868 14.0714,13.101 L9.5814,19.911 L8.1324,19.911 L10.6144,13.877 C10.7194,13.62 10.6904,13.327 10.5354,13.097 C10.3804,12.865 10.1204,12.727 9.8434,12.727 L5.7864,12.727 C5.5704,12.727 5.3624,12.811 5.2054,12.963 L3.9714,14.164 L3.6664,14.164 L3.6664,12.345 L3.6664,11.644 L3.6664,9.825 L3.9704,9.825 L5.2104,11.026 C5.3664,11.178 5.5744,11.262 5.7904,11.262 L9.8434,11.262 C10.1204,11.262 10.3804,11.123 10.5354,10.892 C10.6904,10.661 10.7194,10.369 10.6144,10.111 L8.1324,4.077 L9.5814,4.077 L10.5194,5.499 L10.5264,5.51 L12.1444,7.88 C12.4044,8.26 12.9214,8.357 13.3024,8.098 C13.6824,7.839 13.7804,7.32 13.5204,6.94 L11.9074,4.576 L10.7264,2.785 C10.5724,2.552 10.3114,2.41 10.0314,2.41 L6.8894,2.41 Z" id="Fill-1" fill="#000000"></path>
            </g>
        </g>
    </g>
</svg>